mtllib firestation.mtl
o hall
usemtl engine-brick
v 3.5 2.75 2.8
v 3.5 2.75 0.30000000000000004
v 3.5 0 2.8
v 3.5 0 0.30000000000000004
v -3.5 2.75 0.30000000000000004
v -3.5 2.75 2.8
v -3.5 0 0.30000000000000004
v -3.5 0 2.8
v -3.5 2.75 0.30000000000000004
v 3.5 2.75 0.30000000000000004
v -3.5 2.75 2.8
v 3.5 2.75 2.8
v -3.5 0 2.8
v 3.5 0 2.8
v -3.5 0 0.30000000000000004
v 3.5 0 0.30000000000000004
v -3.5 2.75 2.8
v 3.5 2.75 2.8
v -3.5 0 2.8
v 3.5 0 2.8
v 3.5 2.75 0.30000000000000004
v -3.5 2.75 0.30000000000000004
v 3.5 0 0.30000000000000004
v -3.5 0 0.30000000000000004
vt 0 1
vt 1 1
vt 0 0
vt 1 0
vt 0 1
vt 1 1
vt 0 0
vt 1 0
vt 0 1
vt 1 1
vt 0 0
vt 1 0
vt 0 1
vt 1 1
vt 0 0
vt 1 0
vt 0 1
vt 1 1
vt 0 0
vt 1 0
vt 0 1
vt 1 1
vt 0 0
vt 1 0
vn 1 0 0
vn 1 0 0
vn 1 0 0
vn 1 0 0
vn -1 0 0
vn -1 0 0
vn -1 0 0
vn -1 0 0
vn 0 1 0
vn 0 1 0
vn 0 1 0
vn 0 1 0
vn 0 -1 0
vn 0 -1 0
vn 0 -1 0
vn 0 -1 0
vn 0 0 1
vn 0 0 1
vn 0 0 1
vn 0 0 1
vn 0 0 -1
vn 0 0 -1
vn 0 0 -1
vn 0 0 -1
f 1/1/1 3/3/3 2/2/2
f 3/3/3 4/4/4 2/2/2
f 5/5/5 7/7/7 6/6/6
f 7/7/7 8/8/8 6/6/6
f 9/9/9 11/11/11 10/10/10
f 11/11/11 12/12/12 10/10/10
f 13/13/13 15/15/15 14/14/14
f 15/15/15 16/16/16 14/14/14
f 17/17/17 19/19/19 18/18/18
f 19/19/19 20/20/20 18/18/18
f 21/21/21 23/23/23 22/22/22
f 23/23/23 24/24/24 22/22/22
o door-surrounds
usemtl trim-concrete
v -0.38999995589256287 2.2200000286102295 2.9200000762939453
v -0.38999995589256287 -1.4305114426349519e-8 2.9200000762939453
v -0.38999995589256287 2.2200000286102295 2.799999952316284
v -0.38999995589256287 -1.4305114426349519e-8 2.9200000762939453
v -0.38999995589256287 -1.4305114426349519e-8 2.799999952316284
v -0.38999995589256287 2.2200000286102295 2.799999952316284
v -3.049999952316284 2.2200000286102295 2.799999952316284
v -3.049999952316284 -1.4305114426349519e-8 2.799999952316284
v -3.049999952316284 2.2200000286102295 2.9200000762939453
v -3.049999952316284 -1.4305114426349519e-8 2.799999952316284
v -3.049999952316284 -1.4305114426349519e-8 2.9200000762939453
v -3.049999952316284 2.2200000286102295 2.9200000762939453
v -3.049999952316284 2.2200000286102295 2.799999952316284
v -3.049999952316284 2.2200000286102295 2.9200000762939453
v -0.38999995589256287 2.2200000286102295 2.799999952316284
v -3.049999952316284 2.2200000286102295 2.9200000762939453
v -0.38999995589256287 2.2200000286102295 2.9200000762939453
v -0.38999995589256287 2.2200000286102295 2.799999952316284
v -3.049999952316284 -1.4305114426349519e-8 2.9200000762939453
v -3.049999952316284 -1.4305114426349519e-8 2.799999952316284
v -0.38999995589256287 -1.4305114426349519e-8 2.9200000762939453
v -3.049999952316284 -1.4305114426349519e-8 2.799999952316284
v -0.38999995589256287 -1.4305114426349519e-8 2.799999952316284
v -0.38999995589256287 -1.4305114426349519e-8 2.9200000762939453
v -3.049999952316284 2.2200000286102295 2.9200000762939453
v -3.049999952316284 -1.4305114426349519e-8 2.9200000762939453
v -0.38999995589256287 2.2200000286102295 2.9200000762939453
v -3.049999952316284 -1.4305114426349519e-8 2.9200000762939453
v -0.38999995589256287 -1.4305114426349519e-8 2.9200000762939453
v -0.38999995589256287 2.2200000286102295 2.9200000762939453
v -0.38999995589256287 2.2200000286102295 2.799999952316284
v -0.38999995589256287 -1.4305114426349519e-8 2.799999952316284
v -3.049999952316284 2.2200000286102295 2.799999952316284
v -0.38999995589256287 -1.4305114426349519e-8 2.799999952316284
v -3.049999952316284 -1.4305114426349519e-8 2.799999952316284
v -3.049999952316284 2.2200000286102295 2.799999952316284
v 3.049999952316284 2.2200000286102295 2.9200000762939453
v 3.049999952316284 -1.4305114426349519e-8 2.9200000762939453
v 3.049999952316284 2.2200000286102295 2.799999952316284
v 3.049999952316284 -1.4305114426349519e-8 2.9200000762939453
v 3.049999952316284 -1.4305114426349519e-8 2.799999952316284
v 3.049999952316284 2.2200000286102295 2.799999952316284
v 0.38999995589256287 2.2200000286102295 2.799999952316284
v 0.38999995589256287 -1.4305114426349519e-8 2.799999952316284
v 0.38999995589256287 2.2200000286102295 2.9200000762939453
v 0.38999995589256287 -1.4305114426349519e-8 2.799999952316284
v 0.38999995589256287 -1.4305114426349519e-8 2.9200000762939453
v 0.38999995589256287 2.2200000286102295 2.9200000762939453
v 0.38999995589256287 2.2200000286102295 2.799999952316284
v 0.38999995589256287 2.2200000286102295 2.9200000762939453
v 3.049999952316284 2.2200000286102295 2.799999952316284
v 0.38999995589256287 2.2200000286102295 2.9200000762939453
v 3.049999952316284 2.2200000286102295 2.9200000762939453
v 3.049999952316284 2.2200000286102295 2.799999952316284
v 0.38999995589256287 -1.4305114426349519e-8 2.9200000762939453
v 0.38999995589256287 -1.4305114426349519e-8 2.799999952316284
v 3.049999952316284 -1.4305114426349519e-8 2.9200000762939453
v 0.38999995589256287 -1.4305114426349519e-8 2.799999952316284
v 3.049999952316284 -1.4305114426349519e-8 2.799999952316284
v 3.049999952316284 -1.4305114426349519e-8 2.9200000762939453
v 0.38999995589256287 2.2200000286102295 2.9200000762939453
v 0.38999995589256287 -1.4305114426349519e-8 2.9200000762939453
v 3.049999952316284 2.2200000286102295 2.9200000762939453
v 0.38999995589256287 -1.4305114426349519e-8 2.9200000762939453
v 3.049999952316284 -1.4305114426349519e-8 2.9200000762939453
v 3.049999952316284 2.2200000286102295 2.9200000762939453
v 3.049999952316284 2.2200000286102295 2.799999952316284
v 3.049999952316284 -1.4305114426349519e-8 2.799999952316284
v 0.38999995589256287 2.2200000286102295 2.799999952316284
v 3.049999952316284 -1.4305114426349519e-8 2.799999952316284
v 0.38999995589256287 -1.4305114426349519e-8 2.799999952316284
v 0.38999995589256287 2.2200000286102295 2.799999952316284
vt 0 1
vt 0 0
vt 1 1
vt 0 0
vt 1 0
vt 1 1
vt 0 1
vt 0 0
vt 1 1
vt 0 0
vt 1 0
vt 1 1
vt 0 1
vt 0 0
vt 1 1
vt 0 0
vt 1 0
vt 1 1
vt 0 1
vt 0 0
vt 1 1
vt 0 0
vt 1 0
vt 1 1
vt 0 1
vt 0 0
vt 1 1
vt 0 0
vt 1 0
vt 1 1
vt 0 1
vt 0 0
vt 1 1
vt 0 0
vt 1 0
vt 1 1
vt 0 1
vt 0 0
vt 1 1
vt 0 0
vt 1 0
vt 1 1
vt 0 1
vt 0 0
vt 1 1
vt 0 0
vt 1 0
vt 1 1
vt 0 1
vt 0 0
vt 1 1
vt 0 0
vt 1 0
vt 1 1
vt 0 1
vt 0 0
vt 1 1
vt 0 0
vt 1 0
vt 1 1
vt 0 1
vt 0 0
vt 1 1
vt 0 0
vt 1 0
vt 1 1
vt 0 1
vt 0 0
vt 1 1
vt 0 0
vt 1 0
vt 1 1
vn 1 0 0
vn 1 0 0
vn 1 0 0
vn 1 0 0
vn 1 0 0
vn 1 0 0
vn -1 0 0
vn -1 0 0
vn -1 0 0
vn -1 0 0
vn -1 0 0
vn -1 0 0
vn 0 1 0
vn 0 1 0
vn 0 1 0
vn 0 1 0
vn 0 1 0
vn 0 1 0
vn 0 -1 0
vn 0 -1 0
vn 0 -1 0
vn 0 -1 0
vn 0 -1 0
vn 0 -1 0
vn 0 0 1
vn 0 0 1
vn 0 0 1
vn 0 0 1
vn 0 0 1
vn 0 0 1
vn 0 0 -1
vn 0 0 -1
vn 0 0 -1
vn 0 0 -1
vn 0 0 -1
vn 0 0 -1
vn 1 0 0
vn 1 0 0
vn 1 0 0
vn 1 0 0
vn 1 0 0
vn 1 0 0
vn -1 0 0
vn -1 0 0
vn -1 0 0
vn -1 0 0
vn -1 0 0
vn -1 0 0
vn 0 1 0
vn 0 1 0
vn 0 1 0
vn 0 1 0
vn 0 1 0
vn 0 1 0
vn 0 -1 0
vn 0 -1 0
vn 0 -1 0
vn 0 -1 0
vn 0 -1 0
vn 0 -1 0
vn 0 0 1
vn 0 0 1
vn 0 0 1
vn 0 0 1
vn 0 0 1
vn 0 0 1
vn 0 0 -1
vn 0 0 -1
vn 0 0 -1
vn 0 0 -1
vn 0 0 -1
vn 0 0 -1
f 25/25/25 26/26/26 27/27/27
f 28/28/28 29/29/29 30/30/30
f 31/31/31 32/32/32 33/33/33
f 34/34/34 35/35/35 36/36/36
f 37/37/37 38/38/38 39/39/39
f 40/40/40 41/41/41 42/42/42
f 43/43/43 44/44/44 45/45/45
f 46/46/46 47/47/47 48/48/48
f 49/49/49 50/50/50 51/51/51
f 52/52/52 53/53/53 54/54/54
f 55/55/55 56/56/56 57/57/57
f 58/58/58 59/59/59 60/60/60
f 61/61/61 62/62/62 63/63/63
f 64/64/64 65/65/65 66/66/66
f 67/67/67 68/68/68 69/69/69
f 70/70/70 71/71/71 72/72/72
f 73/73/73 74/74/74 75/75/75
f 76/76/76 77/77/77 78/78/78
f 79/79/79 80/80/80 81/81/81
f 82/82/82 83/83/83 84/84/84
f 85/85/85 86/86/86 87/87/87
f 88/88/88 89/89/89 90/90/90
f 91/91/91 92/92/92 93/93/93
f 94/94/94 95/95/95 96/96/96
o bay-doors
usemtl bay-door-light
v -0.5500000715255737 2 2.9800000190734863
v -0.5500000715255737 0 2.9800000190734863
v -0.5500000715255737 2 2.880000114440918
v -0.5500000715255737 0 2.9800000190734863
v -0.5500000715255737 0 2.880000114440918
v -0.5500000715255737 2 2.880000114440918
v -2.8899998664855957 2 2.880000114440918
v -2.8899998664855957 0 2.880000114440918
v -2.8899998664855957 2 2.9800000190734863
v -2.8899998664855957 0 2.880000114440918
v -2.8899998664855957 0 2.9800000190734863
v -2.8899998664855957 2 2.9800000190734863
v -2.8899998664855957 2 2.880000114440918
v -2.8899998664855957 2 2.9800000190734863
v -0.5500000715255737 2 2.880000114440918
v -2.8899998664855957 2 2.9800000190734863
v -0.5500000715255737 2 2.9800000190734863
v -0.5500000715255737 2 2.880000114440918
v -2.8899998664855957 0 2.9800000190734863
v -2.8899998664855957 0 2.880000114440918
v -0.5500000715255737 0 2.9800000190734863
v -2.8899998664855957 0 2.880000114440918
v -0.5500000715255737 0 2.880000114440918
v -0.5500000715255737 0 2.9800000190734863
v -2.8899998664855957 2 2.9800000190734863
v -2.8899998664855957 0 2.9800000190734863
v -0.5500000715255737 2 2.9800000190734863
v -2.8899998664855957 0 2.9800000190734863
v -0.5500000715255737 0 2.9800000190734863
v -0.5500000715255737 2 2.9800000190734863
v -0.5500000715255737 2 2.880000114440918
v -0.5500000715255737 0 2.880000114440918
v -2.8899998664855957 2 2.880000114440918
v -0.5500000715255737 0 2.880000114440918
v -2.8899998664855957 0 2.880000114440918
v -2.8899998664855957 2 2.880000114440918
v 2.8899998664855957 2 2.9800000190734863
v 2.8899998664855957 0 2.9800000190734863
v 2.8899998664855957 2 2.880000114440918
v 2.8899998664855957 0 2.9800000190734863
v 2.8899998664855957 0 2.880000114440918
v 2.8899998664855957 2 2.880000114440918
v 0.5500000715255737 2 2.880000114440918
v 0.5500000715255737 0 2.880000114440918
v 0.5500000715255737 2 2.9800000190734863
v 0.5500000715255737 0 2.880000114440918
v 0.5500000715255737 0 2.9800000190734863
v 0.5500000715255737 2 2.9800000190734863
v 0.5500000715255737 2 2.880000114440918
v 0.5500000715255737 2 2.9800000190734863
v 2.8899998664855957 2 2.880000114440918
v 0.5500000715255737 2 2.9800000190734863
v 2.8899998664855957 2 2.9800000190734863
v 2.8899998664855957 2 2.880000114440918
v 0.5500000715255737 0 2.9800000190734863
v 0.5500000715255737 0 2.880000114440918
v 2.8899998664855957 0 2.9800000190734863
v 0.5500000715255737 0 2.880000114440918
v 2.8899998664855957 0 2.880000114440918
v 2.8899998664855957 0 2.9800000190734863
v 0.5500000715255737 2 2.9800000190734863
v 0.5500000715255737 0 2.9800000190734863
v 2.8899998664855957 2 2.9800000190734863
v 0.5500000715255737 0 2.9800000190734863
v 2.8899998664855957 0 2.9800000190734863
v 2.8899998664855957 2 2.9800000190734863
v 2.8899998664855957 2 2.880000114440918
v 2.8899998664855957 0 2.880000114440918
v 0.5500000715255737 2 2.880000114440918
v 2.8899998664855957 0 2.880000114440918
v 0.5500000715255737 0 2.880000114440918
v 0.5500000715255737 2 2.880000114440918
vt 0 1
vt 0 0
vt 1 1
vt 0 0
vt 1 0
vt 1 1
vt 0 1
vt 0 0
vt 1 1
vt 0 0
vt 1 0
vt 1 1
vt 0 1
vt 0 0
vt 1 1
vt 0 0
vt 1 0
vt 1 1
vt 0 1
vt 0 0
vt 1 1
vt 0 0
vt 1 0
vt 1 1
vt 0 1
vt 0 0
vt 1 1
vt 0 0
vt 1 0
vt 1 1
vt 0 1
vt 0 0
vt 1 1
vt 0 0
vt 1 0
vt 1 1
vt 0 1
vt 0 0
vt 1 1
vt 0 0
vt 1 0
vt 1 1
vt 0 1
vt 0 0
vt 1 1
vt 0 0
vt 1 0
vt 1 1
vt 0 1
vt 0 0
vt 1 1
vt 0 0
vt 1 0
vt 1 1
vt 0 1
vt 0 0
vt 1 1
vt 0 0
vt 1 0
vt 1 1
vt 0 1
vt 0 0
vt 1 1
vt 0 0
vt 1 0
vt 1 1
vt 0 1
vt 0 0
vt 1 1
vt 0 0
vt 1 0
vt 1 1
vn 1 0 0
vn 1 0 0
vn 1 0 0
vn 1 0 0
vn 1 0 0
vn 1 0 0
vn -1 0 0
vn -1 0 0
vn -1 0 0
vn -1 0 0
vn -1 0 0
vn -1 0 0
vn 0 1 0
vn 0 1 0
vn 0 1 0
vn 0 1 0
vn 0 1 0
vn 0 1 0
vn 0 -1 0
vn 0 -1 0
vn 0 -1 0
vn 0 -1 0
vn 0 -1 0
vn 0 -1 0
vn 0 0 1
vn 0 0 1
vn 0 0 1
vn 0 0 1
vn 0 0 1
vn 0 0 1
vn 0 0 -1
vn 0 0 -1
vn 0 0 -1
vn 0 0 -1
vn 0 0 -1
vn 0 0 -1
vn 1 0 0
vn 1 0 0
vn 1 0 0
vn 1 0 0
vn 1 0 0
vn 1 0 0
vn -1 0 0
vn -1 0 0
vn -1 0 0
vn -1 0 0
vn -1 0 0
vn -1 0 0
vn 0 1 0
vn 0 1 0
vn 0 1 0
vn 0 1 0
vn 0 1 0
vn 0 1 0
vn 0 -1 0
vn 0 -1 0
vn 0 -1 0
vn 0 -1 0
vn 0 -1 0
vn 0 -1 0
vn 0 0 1
vn 0 0 1
vn 0 0 1
vn 0 0 1
vn 0 0 1
vn 0 0 1
vn 0 0 -1
vn 0 0 -1
vn 0 0 -1
vn 0 0 -1
vn 0 0 -1
vn 0 0 -1
f 97/97/97 98/98/98 99/99/99
f 100/100/100 101/101/101 102/102/102
f 103/103/103 104/104/104 105/105/105
f 106/106/106 107/107/107 108/108/108
f 109/109/109 110/110/110 111/111/111
f 112/112/112 113/113/113 114/114/114
f 115/115/115 116/116/116 117/117/117
f 118/118/118 119/119/119 120/120/120
f 121/121/121 122/122/122 123/123/123
f 124/124/124 125/125/125 126/126/126
f 127/127/127 128/128/128 129/129/129
f 130/130/130 131/131/131 132/132/132
f 133/133/133 134/134/134 135/135/135
f 136/136/136 137/137/137 138/138/138
f 139/139/139 140/140/140 141/141/141
f 142/142/142 143/143/143 144/144/144
f 145/145/145 146/146/146 147/147/147
f 148/148/148 149/149/149 150/150/150
f 151/151/151 152/152/152 153/153/153
f 154/154/154 155/155/155 156/156/156
f 157/157/157 158/158/158 159/159/159
f 160/160/160 161/161/161 162/162/162
f 163/163/163 164/164/164 165/165/165
f 166/166/166 167/167/167 168/168/168
o hall-stripe
usemtl trim-concrete
v 3.559999942779541 2.499999997317791 2.859999942779541
v 3.559999942779541 2.499999997317791 0.24000005722045903
v 3.559999942779541 2.260000002682209 2.859999942779541
v 3.559999942779541 2.260000002682209 0.24000005722045903
v -3.559999942779541 2.499999997317791 0.24000005722045903
v -3.559999942779541 2.499999997317791 2.859999942779541
v -3.559999942779541 2.260000002682209 0.24000005722045903
v -3.559999942779541 2.260000002682209 2.859999942779541
v -3.559999942779541 2.499999997317791 0.24000005722045903
v 3.559999942779541 2.499999997317791 0.24000005722045903
v -3.559999942779541 2.499999997317791 2.859999942779541
v 3.559999942779541 2.499999997317791 2.859999942779541
v -3.559999942779541 2.260000002682209 2.859999942779541
v 3.559999942779541 2.260000002682209 2.859999942779541
v -3.559999942779541 2.260000002682209 0.24000005722045903
v 3.559999942779541 2.260000002682209 0.24000005722045903
v -3.559999942779541 2.499999997317791 2.859999942779541
v 3.559999942779541 2.499999997317791 2.859999942779541
v -3.559999942779541 2.260000002682209 2.859999942779541
v 3.559999942779541 2.260000002682209 2.859999942779541
v 3.559999942779541 2.499999997317791 0.24000005722045903
v -3.559999942779541 2.499999997317791 0.24000005722045903
v 3.559999942779541 2.260000002682209 0.24000005722045903
v -3.559999942779541 2.260000002682209 0.24000005722045903
vt 0 1
vt 1 1
vt 0 0
vt 1 0
vt 0 1
vt 1 1
vt 0 0
vt 1 0
vt 0 1
vt 1 1
vt 0 0
vt 1 0
vt 0 1
vt 1 1
vt 0 0
vt 1 0
vt 0 1
vt 1 1
vt 0 0
vt 1 0
vt 0 1
vt 1 1
vt 0 0
vt 1 0
vn 1 0 0
vn 1 0 0
vn 1 0 0
vn 1 0 0
vn -1 0 0
vn -1 0 0
vn -1 0 0
vn -1 0 0
vn 0 1 0
vn 0 1 0
vn 0 1 0
vn 0 1 0
vn 0 -1 0
vn 0 -1 0
vn 0 -1 0
vn 0 -1 0
vn 0 0 1
vn 0 0 1
vn 0 0 1
vn 0 0 1
vn 0 0 -1
vn 0 0 -1
vn 0 0 -1
vn 0 0 -1
f 169/169/169 171/171/171 170/170/170
f 171/171/171 172/172/172 170/170/170
f 173/173/173 175/175/175 174/174/174
f 175/175/175 176/176/176 174/174/174
f 177/177/177 179/179/179 178/178/178
f 179/179/179 180/180/180 178/178/178
f 181/181/181 183/183/183 182/182/182
f 183/183/183 184/184/184 182/182/182
f 185/185/185 187/187/187 186/186/186
f 187/187/187 188/188/188 186/186/186
f 189/189/189 191/191/191 190/190/190
f 191/191/191 192/192/192 190/190/190
o hall-cap
usemtl roof-red
v 3.619999885559082 2.979999997317791 2.9200000047683714
v 3.619999885559082 2.979999997317791 0.17999999523162846
v 3.619999885559082 2.740000002682209 2.9200000047683714
v 3.619999885559082 2.740000002682209 0.17999999523162846
v -3.619999885559082 2.979999997317791 0.17999999523162846
v -3.619999885559082 2.979999997317791 2.9200000047683714
v -3.619999885559082 2.740000002682209 0.17999999523162846
v -3.619999885559082 2.740000002682209 2.9200000047683714
v -3.619999885559082 2.979999997317791 0.17999999523162846
v 3.619999885559082 2.979999997317791 0.17999999523162846
v -3.619999885559082 2.979999997317791 2.9200000047683714
v 3.619999885559082 2.979999997317791 2.9200000047683714
v -3.619999885559082 2.740000002682209 2.9200000047683714
v 3.619999885559082 2.740000002682209 2.9200000047683714
v -3.619999885559082 2.740000002682209 0.17999999523162846
v 3.619999885559082 2.740000002682209 0.17999999523162846
v -3.619999885559082 2.979999997317791 2.9200000047683714
v 3.619999885559082 2.979999997317791 2.9200000047683714
v -3.619999885559082 2.740000002682209 2.9200000047683714
v 3.619999885559082 2.740000002682209 2.9200000047683714
v 3.619999885559082 2.979999997317791 0.17999999523162846
v -3.619999885559082 2.979999997317791 0.17999999523162846
v 3.619999885559082 2.740000002682209 0.17999999523162846
v -3.619999885559082 2.740000002682209 0.17999999523162846
vt 0 1
vt 1 1
vt 0 0
vt 1 0
vt 0 1
vt 1 1
vt 0 0
vt 1 0
vt 0 1
vt 1 1
vt 0 0
vt 1 0
vt 0 1
vt 1 1
vt 0 0
vt 1 0
vt 0 1
vt 1 1
vt 0 0
vt 1 0
vt 0 1
vt 1 1
vt 0 0
vt 1 0
vn 1 0 0
vn 1 0 0
vn 1 0 0
vn 1 0 0
vn -1 0 0
vn -1 0 0
vn -1 0 0
vn -1 0 0
vn 0 1 0
vn 0 1 0
vn 0 1 0
vn 0 1 0
vn 0 -1 0
vn 0 -1 0
vn 0 -1 0
vn 0 -1 0
vn 0 0 1
vn 0 0 1
vn 0 0 1
vn 0 0 1
vn 0 0 -1
vn 0 0 -1
vn 0 0 -1
vn 0 0 -1
f 193/193/193 195/195/195 194/194/194
f 195/195/195 196/196/196 194/194/194
f 197/197/197 199/199/199 198/198/198
f 199/199/199 200/200/200 198/198/198
f 201/201/201 203/203/203 202/202/202
f 203/203/203 204/204/204 202/202/202
f 205/205/205 207/207/207 206/206/206
f 207/207/207 208/208/208 206/206/206
f 209/209/209 211/211/211 210/210/210
f 211/211/211 212/212/212 210/210/210
f 213/213/213 215/215/215 214/214/214
f 215/215/215 216/216/216 214/214/214
o dorm
usemtl engine-brick
v 2.400000047683716 3.049999976158142 0.200000023841858
v 2.400000047683716 3.049999976158142 -3.500000023841858
v 2.400000047683716 2.3841857821338408e-8 0.200000023841858
v 2.400000047683716 2.3841857821338408e-8 -3.500000023841858
v -3.5000000476837156 3.049999976158142 -3.500000023841858
v -3.5000000476837156 3.049999976158142 0.200000023841858
v -3.5000000476837156 2.3841857821338408e-8 -3.500000023841858
v -3.5000000476837156 2.3841857821338408e-8 0.200000023841858
v -3.5000000476837156 3.049999976158142 -3.500000023841858
v 2.400000047683716 3.049999976158142 -3.500000023841858
v -3.5000000476837156 3.049999976158142 0.200000023841858
v 2.400000047683716 3.049999976158142 0.200000023841858
v -3.5000000476837156 2.3841857821338408e-8 0.200000023841858
v 2.400000047683716 2.3841857821338408e-8 0.200000023841858
v -3.5000000476837156 2.3841857821338408e-8 -3.500000023841858
v 2.400000047683716 2.3841857821338408e-8 -3.500000023841858
v -3.5000000476837156 3.049999976158142 0.200000023841858
v 2.400000047683716 3.049999976158142 0.200000023841858
v -3.5000000476837156 2.3841857821338408e-8 0.200000023841858
v 2.400000047683716 2.3841857821338408e-8 0.200000023841858
v 2.400000047683716 3.049999976158142 -3.500000023841858
v -3.5000000476837156 3.049999976158142 -3.500000023841858
v 2.400000047683716 2.3841857821338408e-8 -3.500000023841858
v -3.5000000476837156 2.3841857821338408e-8 -3.500000023841858
vt 0 1
vt 1 1
vt 0 0
vt 1 0
vt 0 1
vt 1 1
vt 0 0
vt 1 0
vt 0 1
vt 1 1
vt 0 0
vt 1 0
vt 0 1
vt 1 1
vt 0 0
vt 1 0
vt 0 1
vt 1 1
vt 0 0
vt 1 0
vt 0 1
vt 1 1
vt 0 0
vt 1 0
vn 1 0 0
vn 1 0 0
vn 1 0 0
vn 1 0 0
vn -1 0 0
vn -1 0 0
vn -1 0 0
vn -1 0 0
vn 0 1 0
vn 0 1 0
vn 0 1 0
vn 0 1 0
vn 0 -1 0
vn 0 -1 0
vn 0 -1 0
vn 0 -1 0
vn 0 0 1
vn 0 0 1
vn 0 0 1
vn 0 0 1
vn 0 0 -1
vn 0 0 -1
vn 0 0 -1
vn 0 0 -1
f 217/217/217 219/219/219 218/218/218
f 219/219/219 220/220/220 218/218/218
f 221/221/221 223/223/223 222/222/222
f 223/223/223 224/224/224 222/222/222
f 225/225/225 227/227/227 226/226/226
f 227/227/227 228/228/228 226/226/226
f 229/229/229 231/231/231 230/230/230
f 231/231/231 232/232/232 230/230/230
f 233/233/233 235/235/235 234/234/234
f 235/235/235 236/236/236 234/234/234
f 237/237/237 239/239/239 238/238/238
f 239/239/239 240/240/240 238/238/238
o dorm-glazing
usemtl glazing
v 2.4300000190734865 1.1699999570846558 0.2299999952316285
v 2.4300000190734865 0.8299999833106995 0.2299999952316285
v 2.4300000190734865 1.1699999570846558 -3.5299999952316283
v 2.4300000190734865 0.8299999833106995 0.2299999952316285
v 2.4300000190734865 0.8299999833106995 -3.5299999952316283
v 2.4300000190734865 1.1699999570846558 -3.5299999952316283
v -3.530000019073486 1.1699999570846558 -3.5299999952316283
v -3.530000019073486 0.8299999833106995 -3.5299999952316283
v -3.530000019073486 1.1699999570846558 0.2299999952316285
v -3.530000019073486 0.8299999833106995 -3.5299999952316283
v -3.530000019073486 0.8299999833106995 0.2299999952316285
v -3.530000019073486 1.1699999570846558 0.2299999952316285
v -3.530000019073486 1.1699999570846558 -3.5299999952316283
v -3.530000019073486 1.1699999570846558 0.2299999952316285
v 2.4300000190734865 1.1699999570846558 -3.5299999952316283
v -3.530000019073486 1.1699999570846558 0.2299999952316285
v 2.4300000190734865 1.1699999570846558 0.2299999952316285
v 2.4300000190734865 1.1699999570846558 -3.5299999952316283
v -3.530000019073486 0.8299999833106995 0.2299999952316285
v -3.530000019073486 0.8299999833106995 -3.5299999952316283
v 2.4300000190734865 0.8299999833106995 0.2299999952316285
v -3.530000019073486 0.8299999833106995 -3.5299999952316283
v 2.4300000190734865 0.8299999833106995 -3.5299999952316283
v 2.4300000190734865 0.8299999833106995 0.2299999952316285
v -3.530000019073486 1.1699999570846558 0.2299999952316285
v -3.530000019073486 0.8299999833106995 0.2299999952316285
v 2.4300000190734865 1.1699999570846558 0.2299999952316285
v -3.530000019073486 0.8299999833106995 0.2299999952316285
v 2.4300000190734865 0.8299999833106995 0.2299999952316285
v 2.4300000190734865 1.1699999570846558 0.2299999952316285
v 2.4300000190734865 1.1699999570846558 -3.5299999952316283
v 2.4300000190734865 0.8299999833106995 -3.5299999952316283
v -3.530000019073486 1.1699999570846558 -3.5299999952316283
v 2.4300000190734865 0.8299999833106995 -3.5299999952316283
v -3.530000019073486 0.8299999833106995 -3.5299999952316283
v -3.530000019073486 1.1699999570846558 -3.5299999952316283
v 2.4300000190734865 2.2699999809265137 0.2299999952316285
v 2.4300000190734865 1.9299999475479126 0.2299999952316285
v 2.4300000190734865 2.2699999809265137 -3.5299999952316283
v 2.4300000190734865 1.9299999475479126 0.2299999952316285
v 2.4300000190734865 1.9299999475479126 -3.5299999952316283
v 2.4300000190734865 2.2699999809265137 -3.5299999952316283
v -3.530000019073486 2.2699999809265137 -3.5299999952316283
v -3.530000019073486 1.9299999475479126 -3.5299999952316283
v -3.530000019073486 2.2699999809265137 0.2299999952316285
v -3.530000019073486 1.9299999475479126 -3.5299999952316283
v -3.530000019073486 1.9299999475479126 0.2299999952316285
v -3.530000019073486 2.2699999809265137 0.2299999952316285
v -3.530000019073486 2.2699999809265137 -3.5299999952316283
v -3.530000019073486 2.2699999809265137 0.2299999952316285
v 2.4300000190734865 2.2699999809265137 -3.5299999952316283
v -3.530000019073486 2.2699999809265137 0.2299999952316285
v 2.4300000190734865 2.2699999809265137 0.2299999952316285
v 2.4300000190734865 2.2699999809265137 -3.5299999952316283
v -3.530000019073486 1.9299999475479126 0.2299999952316285
v -3.530000019073486 1.9299999475479126 -3.5299999952316283
v 2.4300000190734865 1.9299999475479126 0.2299999952316285
v -3.530000019073486 1.9299999475479126 -3.5299999952316283
v 2.4300000190734865 1.9299999475479126 -3.5299999952316283
v 2.4300000190734865 1.9299999475479126 0.2299999952316285
v -3.530000019073486 2.2699999809265137 0.2299999952316285
v -3.530000019073486 1.9299999475479126 0.2299999952316285
v 2.4300000190734865 2.2699999809265137 0.2299999952316285
v -3.530000019073486 1.9299999475479126 0.2299999952316285
v 2.4300000190734865 1.9299999475479126 0.2299999952316285
v 2.4300000190734865 2.2699999809265137 0.2299999952316285
v 2.4300000190734865 2.2699999809265137 -3.5299999952316283
v 2.4300000190734865 1.9299999475479126 -3.5299999952316283
v -3.530000019073486 2.2699999809265137 -3.5299999952316283
v 2.4300000190734865 1.9299999475479126 -3.5299999952316283
v -3.530000019073486 1.9299999475479126 -3.5299999952316283
v -3.530000019073486 2.2699999809265137 -3.5299999952316283
vt 0 1
vt 0 0
vt 1 1
vt 0 0
vt 1 0
vt 1 1
vt 0 1
vt 0 0
vt 1 1
vt 0 0
vt 1 0
vt 1 1
vt 0 1
vt 0 0
vt 1 1
vt 0 0
vt 1 0
vt 1 1
vt 0 1
vt 0 0
vt 1 1
vt 0 0
vt 1 0
vt 1 1
vt 0 1
vt 0 0
vt 1 1
vt 0 0
vt 1 0
vt 1 1
vt 0 1
vt 0 0
vt 1 1
vt 0 0
vt 1 0
vt 1 1
vt 0 1
vt 0 0
vt 1 1
vt 0 0
vt 1 0
vt 1 1
vt 0 1
vt 0 0
vt 1 1
vt 0 0
vt 1 0
vt 1 1
vt 0 1
vt 0 0
vt 1 1
vt 0 0
vt 1 0
vt 1 1
vt 0 1
vt 0 0
vt 1 1
vt 0 0
vt 1 0
vt 1 1
vt 0 1
vt 0 0
vt 1 1
vt 0 0
vt 1 0
vt 1 1
vt 0 1
vt 0 0
vt 1 1
vt 0 0
vt 1 0
vt 1 1
vn 1 0 0
vn 1 0 0
vn 1 0 0
vn 1 0 0
vn 1 0 0
vn 1 0 0
vn -1 0 0
vn -1 0 0
vn -1 0 0
vn -1 0 0
vn -1 0 0
vn -1 0 0
vn 0 1 0
vn 0 1 0
vn 0 1 0
vn 0 1 0
vn 0 1 0
vn 0 1 0
vn 0 -1 0
vn 0 -1 0
vn 0 -1 0
vn 0 -1 0
vn 0 -1 0
vn 0 -1 0
vn 0 0 1
vn 0 0 1
vn 0 0 1
vn 0 0 1
vn 0 0 1
vn 0 0 1
vn 0 0 -1
vn 0 0 -1
vn 0 0 -1
vn 0 0 -1
vn 0 0 -1
vn 0 0 -1
vn 1 0 0
vn 1 0 0
vn 1 0 0
vn 1 0 0
vn 1 0 0
vn 1 0 0
vn -1 0 0
vn -1 0 0
vn -1 0 0
vn -1 0 0
vn -1 0 0
vn -1 0 0
vn 0 1 0
vn 0 1 0
vn 0 1 0
vn 0 1 0
vn 0 1 0
vn 0 1 0
vn 0 -1 0
vn 0 -1 0
vn 0 -1 0
vn 0 -1 0
vn 0 -1 0
vn 0 -1 0
vn 0 0 1
vn 0 0 1
vn 0 0 1
vn 0 0 1
vn 0 0 1
vn 0 0 1
vn 0 0 -1
vn 0 0 -1
vn 0 0 -1
vn 0 0 -1
vn 0 0 -1
vn 0 0 -1
f 241/241/241 242/242/242 243/243/243
f 244/244/244 245/245/245 246/246/246
f 247/247/247 248/248/248 249/249/249
f 250/250/250 251/251/251 252/252/252
f 253/253/253 254/254/254 255/255/255
f 256/256/256 257/257/257 258/258/258
f 259/259/259 260/260/260 261/261/261
f 262/262/262 263/263/263 264/264/264
f 265/265/265 266/266/266 267/267/267
f 268/268/268 269/269/269 270/270/270
f 271/271/271 272/272/272 273/273/273
f 274/274/274 275/275/275 276/276/276
f 277/277/277 278/278/278 279/279/279
f 280/280/280 281/281/281 282/282/282
f 283/283/283 284/284/284 285/285/285
f 286/286/286 287/287/287 288/288/288
f 289/289/289 290/290/290 291/291/291
f 292/292/292 293/293/293 294/294/294
f 295/295/295 296/296/296 297/297/297
f 298/298/298 299/299/299 300/300/300
f 301/301/301 302/302/302 303/303/303
f 304/304/304 305/305/305 306/306/306
f 307/307/307 308/308/308 309/309/309
f 310/310/310 311/311/311 312/312/312
o dorm-cap
usemtl roof-red
v 2.509999942779541 3.2599999994039535 0.31000003814697275
v 2.509999942779541 3.2599999994039535 -3.6100000381469726
v 2.509999942779541 3.0400000005960464 0.31000003814697275
v 2.509999942779541 3.0400000005960464 -3.6100000381469726
v -3.609999942779541 3.2599999994039535 -3.6100000381469726
v -3.609999942779541 3.2599999994039535 0.31000003814697275
v -3.609999942779541 3.0400000005960464 -3.6100000381469726
v -3.609999942779541 3.0400000005960464 0.31000003814697275
v -3.609999942779541 3.2599999994039535 -3.6100000381469726
v 2.509999942779541 3.2599999994039535 -3.6100000381469726
v -3.609999942779541 3.2599999994039535 0.31000003814697275
v 2.509999942779541 3.2599999994039535 0.31000003814697275
v -3.609999942779541 3.0400000005960464 0.31000003814697275
v 2.509999942779541 3.0400000005960464 0.31000003814697275
v -3.609999942779541 3.0400000005960464 -3.6100000381469726
v 2.509999942779541 3.0400000005960464 -3.6100000381469726
v -3.609999942779541 3.2599999994039535 0.31000003814697275
v 2.509999942779541 3.2599999994039535 0.31000003814697275
v -3.609999942779541 3.0400000005960464 0.31000003814697275
v 2.509999942779541 3.0400000005960464 0.31000003814697275
v 2.509999942779541 3.2599999994039535 -3.6100000381469726
v -3.609999942779541 3.2599999994039535 -3.6100000381469726
v 2.509999942779541 3.0400000005960464 -3.6100000381469726
v -3.609999942779541 3.0400000005960464 -3.6100000381469726
vt 0 1
vt 1 1
vt 0 0
vt 1 0
vt 0 1
vt 1 1
vt 0 0
vt 1 0
vt 0 1
vt 1 1
vt 0 0
vt 1 0
vt 0 1
vt 1 1
vt 0 0
vt 1 0
vt 0 1
vt 1 1
vt 0 0
vt 1 0
vt 0 1
vt 1 1
vt 0 0
vt 1 0
vn 1 0 0
vn 1 0 0
vn 1 0 0
vn 1 0 0
vn -1 0 0
vn -1 0 0
vn -1 0 0
vn -1 0 0
vn 0 1 0
vn 0 1 0
vn 0 1 0
vn 0 1 0
vn 0 -1 0
vn 0 -1 0
vn 0 -1 0
vn 0 -1 0
vn 0 0 1
vn 0 0 1
vn 0 0 1
vn 0 0 1
vn 0 0 -1
vn 0 0 -1
vn 0 0 -1
vn 0 0 -1
f 313/313/313 315/315/315 314/314/314
f 315/315/315 316/316/316 314/314/314
f 317/317/317 319/319/319 318/318/318
f 319/319/319 320/320/320 318/318/318
f 321/321/321 323/323/323 322/322/322
f 323/323/323 324/324/324 322/322/322
f 325/325/325 327/327/327 326/326/326
f 327/327/327 328/328/328 326/326/326
f 329/329/329 331/331/331 330/330/330
f 331/331/331 332/332/332 330/330/330
f 333/333/333 335/335/335 334/334/334
f 335/335/335 336/336/336 334/334/334
o hose-tower
usemtl engine-brick
v 3.399999976158142 5.300000095367432 -1.850000023841858
v 3.399999976158142 5.300000095367432 -3.149999976158142
v 3.399999976158142 -9.536743172944284e-8 -1.850000023841858
v 3.399999976158142 -9.536743172944284e-8 -3.149999976158142
v 2.100000023841858 5.300000095367432 -3.149999976158142
v 2.100000023841858 5.300000095367432 -1.850000023841858
v 2.100000023841858 -9.536743172944284e-8 -3.149999976158142
v 2.100000023841858 -9.536743172944284e-8 -1.850000023841858
v 2.100000023841858 5.300000095367432 -3.149999976158142
v 3.399999976158142 5.300000095367432 -3.149999976158142
v 2.100000023841858 5.300000095367432 -1.850000023841858
v 3.399999976158142 5.300000095367432 -1.850000023841858
v 2.100000023841858 -9.536743172944284e-8 -1.850000023841858
v 3.399999976158142 -9.536743172944284e-8 -1.850000023841858
v 2.100000023841858 -9.536743172944284e-8 -3.149999976158142
v 3.399999976158142 -9.536743172944284e-8 -3.149999976158142
v 2.100000023841858 5.300000095367432 -1.850000023841858
v 3.399999976158142 5.300000095367432 -1.850000023841858
v 2.100000023841858 -9.536743172944284e-8 -1.850000023841858
v 3.399999976158142 -9.536743172944284e-8 -1.850000023841858
v 3.399999976158142 5.300000095367432 -3.149999976158142
v 2.100000023841858 5.300000095367432 -3.149999976158142
v 3.399999976158142 -9.536743172944284e-8 -3.149999976158142
v 2.100000023841858 -9.536743172944284e-8 -3.149999976158142
vt 0 1
vt 1 1
vt 0 0
vt 1 0
vt 0 1
vt 1 1
vt 0 0
vt 1 0
vt 0 1
vt 1 1
vt 0 0
vt 1 0
vt 0 1
vt 1 1
vt 0 0
vt 1 0
vt 0 1
vt 1 1
vt 0 0
vt 1 0
vt 0 1
vt 1 1
vt 0 0
vt 1 0
vn 1 0 0
vn 1 0 0
vn 1 0 0
vn 1 0 0
vn -1 0 0
vn -1 0 0
vn -1 0 0
vn -1 0 0
vn 0 1 0
vn 0 1 0
vn 0 1 0
vn 0 1 0
vn 0 -1 0
vn 0 -1 0
vn 0 -1 0
vn 0 -1 0
vn 0 0 1
vn 0 0 1
vn 0 0 1
vn 0 0 1
vn 0 0 -1
vn 0 0 -1
vn 0 0 -1
vn 0 0 -1
f 337/337/337 339/339/339 338/338/338
f 339/339/339 340/340/340 338/338/338
f 341/341/341 343/343/343 342/342/342
f 343/343/343 344/344/344 342/342/342
f 345/345/345 347/347/347 346/346/346
f 347/347/347 348/348/348 346/346/346
f 349/349/349 351/351/351 350/350/350
f 351/351/351 352/352/352 350/350/350
f 353/353/353 355/355/355 354/354/354
f 355/355/355 356/356/356 354/354/354
f 357/357/357 359/359/359 358/358/358
f 359/359/359 360/360/360 358/358/358
o tower-glazing
usemtl glazing
v 2.959999993443489 4.400000047683715 -1.8100000023841858
v 2.959999993443489 4.400000047683715 -3.189999997615814
v 2.959999993443489 0.4999999523162839 -1.8100000023841858
v 2.959999993443489 0.4999999523162839 -3.189999997615814
v 2.540000006556511 4.400000047683715 -3.189999997615814
v 2.540000006556511 4.400000047683715 -1.8100000023841858
v 2.540000006556511 0.4999999523162839 -3.189999997615814
v 2.540000006556511 0.4999999523162839 -1.8100000023841858
v 2.540000006556511 4.400000047683715 -3.189999997615814
v 2.959999993443489 4.400000047683715 -3.189999997615814
v 2.540000006556511 4.400000047683715 -1.8100000023841858
v 2.959999993443489 4.400000047683715 -1.8100000023841858
v 2.540000006556511 0.4999999523162839 -1.8100000023841858
v 2.959999993443489 0.4999999523162839 -1.8100000023841858
v 2.540000006556511 0.4999999523162839 -3.189999997615814
v 2.959999993443489 0.4999999523162839 -3.189999997615814
v 2.540000006556511 4.400000047683715 -1.8100000023841858
v 2.959999993443489 4.400000047683715 -1.8100000023841858
v 2.540000006556511 0.4999999523162839 -1.8100000023841858
v 2.959999993443489 0.4999999523162839 -1.8100000023841858
v 2.959999993443489 4.400000047683715 -3.189999997615814
v 2.540000006556511 4.400000047683715 -3.189999997615814
v 2.959999993443489 0.4999999523162839 -3.189999997615814
v 2.540000006556511 0.4999999523162839 -3.189999997615814
vt 0 1
vt 1 1
vt 0 0
vt 1 0
vt 0 1
vt 1 1
vt 0 0
vt 1 0
vt 0 1
vt 1 1
vt 0 0
vt 1 0
vt 0 1
vt 1 1
vt 0 0
vt 1 0
vt 0 1
vt 1 1
vt 0 0
vt 1 0
vt 0 1
vt 1 1
vt 0 0
vt 1 0
vn 1 0 0
vn 1 0 0
vn 1 0 0
vn 1 0 0
vn -1 0 0
vn -1 0 0
vn -1 0 0
vn -1 0 0
vn 0 1 0
vn 0 1 0
vn 0 1 0
vn 0 1 0
vn 0 -1 0
vn 0 -1 0
vn 0 -1 0
vn 0 -1 0
vn 0 0 1
vn 0 0 1
vn 0 0 1
vn 0 0 1
vn 0 0 -1
vn 0 0 -1
vn 0 0 -1
vn 0 0 -1
f 361/361/361 363/363/363 362/362/362
f 363/363/363 364/364/364 362/362/362
f 365/365/365 367/367/367 366/366/366
f 367/367/367 368/368/368 366/366/366
f 369/369/369 371/371/371 370/370/370
f 371/371/371 372/372/372 370/370/370
f 373/373/373 375/375/375 374/374/374
f 375/375/375 376/376/376 374/374/374
f 377/377/377 379/379/379 378/378/378
f 379/379/379 380/380/380 378/378/378
f 381/381/381 383/383/383 382/382/382
f 383/383/383 384/384/384 382/382/382
o tower-cap
usemtl roof-red
v 3.5199999809265137 5.509999999403953 -1.7300000190734863
v 3.5199999809265137 5.509999999403953 -3.2699999809265137
v 3.5199999809265137 5.290000000596046 -1.7300000190734863
v 3.5199999809265137 5.290000000596046 -3.2699999809265137
v 1.9800000190734863 5.509999999403953 -3.2699999809265137
v 1.9800000190734863 5.509999999403953 -1.7300000190734863
v 1.9800000190734863 5.290000000596046 -3.2699999809265137
v 1.9800000190734863 5.290000000596046 -1.7300000190734863
v 1.9800000190734863 5.509999999403953 -3.2699999809265137
v 3.5199999809265137 5.509999999403953 -3.2699999809265137
v 1.9800000190734863 5.509999999403953 -1.7300000190734863
v 3.5199999809265137 5.509999999403953 -1.7300000190734863
v 1.9800000190734863 5.290000000596046 -1.7300000190734863
v 3.5199999809265137 5.290000000596046 -1.7300000190734863
v 1.9800000190734863 5.290000000596046 -3.2699999809265137
v 3.5199999809265137 5.290000000596046 -3.2699999809265137
v 1.9800000190734863 5.509999999403953 -1.7300000190734863
v 3.5199999809265137 5.509999999403953 -1.7300000190734863
v 1.9800000190734863 5.290000000596046 -1.7300000190734863
v 3.5199999809265137 5.290000000596046 -1.7300000190734863
v 3.5199999809265137 5.509999999403953 -3.2699999809265137
v 1.9800000190734863 5.509999999403953 -3.2699999809265137
v 3.5199999809265137 5.290000000596046 -3.2699999809265137
v 1.9800000190734863 5.290000000596046 -3.2699999809265137
vt 0 1
vt 1 1
vt 0 0
vt 1 0
vt 0 1
vt 1 1
vt 0 0
vt 1 0
vt 0 1
vt 1 1
vt 0 0
vt 1 0
vt 0 1
vt 1 1
vt 0 0
vt 1 0
vt 0 1
vt 1 1
vt 0 0
vt 1 0
vt 0 1
vt 1 1
vt 0 0
vt 1 0
vn 1 0 0
vn 1 0 0
vn 1 0 0
vn 1 0 0
vn -1 0 0
vn -1 0 0
vn -1 0 0
vn -1 0 0
vn 0 1 0
vn 0 1 0
vn 0 1 0
vn 0 1 0
vn 0 -1 0
vn 0 -1 0
vn 0 -1 0
vn 0 -1 0
vn 0 0 1
vn 0 0 1
vn 0 0 1
vn 0 0 1
vn 0 0 -1
vn 0 0 -1
vn 0 0 -1
vn 0 0 -1
f 385/385/385 387/387/387 386/386/386
f 387/387/387 388/388/388 386/386/386
f 389/389/389 391/391/391 390/390/390
f 391/391/391 392/392/392 390/390/390
f 393/393/393 395/395/395 394/394/394
f 395/395/395 396/396/396 394/394/394
f 397/397/397 399/399/399 398/398/398
f 399/399/399 400/400/400 398/398/398
f 401/401/401 403/403/403 402/402/402
f 403/403/403 404/404/404 402/402/402
f 405/405/405 407/407/407 406/406/406
f 407/407/407 408/408/408 406/406/406
o beacon
usemtl beacon-red
v 2.969999998807907 5.850000001788139 -2.280000001192093
v 2.969999998807907 5.850000001788139 -2.719999998807907
v 2.969999998807907 5.50999999821186 -2.280000001192093
v 2.969999998807907 5.50999999821186 -2.719999998807907
v 2.530000001192093 5.850000001788139 -2.719999998807907
v 2.530000001192093 5.850000001788139 -2.280000001192093
v 2.530000001192093 5.50999999821186 -2.719999998807907
v 2.530000001192093 5.50999999821186 -2.280000001192093
v 2.530000001192093 5.850000001788139 -2.719999998807907
v 2.969999998807907 5.850000001788139 -2.719999998807907
v 2.530000001192093 5.850000001788139 -2.280000001192093
v 2.969999998807907 5.850000001788139 -2.280000001192093
v 2.530000001192093 5.50999999821186 -2.280000001192093
v 2.969999998807907 5.50999999821186 -2.280000001192093
v 2.530000001192093 5.50999999821186 -2.719999998807907
v 2.969999998807907 5.50999999821186 -2.719999998807907
v 2.530000001192093 5.850000001788139 -2.280000001192093
v 2.969999998807907 5.850000001788139 -2.280000001192093
v 2.530000001192093 5.50999999821186 -2.280000001192093
v 2.969999998807907 5.50999999821186 -2.280000001192093
v 2.969999998807907 5.850000001788139 -2.719999998807907
v 2.530000001192093 5.850000001788139 -2.719999998807907
v 2.969999998807907 5.50999999821186 -2.719999998807907
v 2.530000001192093 5.50999999821186 -2.719999998807907
vt 0 1
vt 1 1
vt 0 0
vt 1 0
vt 0 1
vt 1 1
vt 0 0
vt 1 0
vt 0 1
vt 1 1
vt 0 0
vt 1 0
vt 0 1
vt 1 1
vt 0 0
vt 1 0
vt 0 1
vt 1 1
vt 0 0
vt 1 0
vt 0 1
vt 1 1
vt 0 0
vt 1 0
vn 1 0 0
vn 1 0 0
vn 1 0 0
vn 1 0 0
vn -1 0 0
vn -1 0 0
vn -1 0 0
vn -1 0 0
vn 0 1 0
vn 0 1 0
vn 0 1 0
vn 0 1 0
vn 0 -1 0
vn 0 -1 0
vn 0 -1 0
vn 0 -1 0
vn 0 0 1
vn 0 0 1
vn 0 0 1
vn 0 0 1
vn 0 0 -1
vn 0 0 -1
vn 0 0 -1
vn 0 0 -1
f 409/409/409 411/411/411 410/410/410
f 411/411/411 412/412/412 410/410/410
f 413/413/413 415/415/415 414/414/414
f 415/415/415 416/416/416 414/414/414
f 417/417/417 419/419/419 418/418/418
f 419/419/419 420/420/420 418/418/418
f 421/421/421 423/423/423 422/422/422
f 423/423/423 424/424/424 422/422/422
f 425/425/425 427/427/427 426/426/426
f 427/427/427 428/428/428 426/426/426
f 429/429/429 431/431/431 430/430/430
f 431/431/431 432/432/432 430/430/430
o apron
usemtl apron-asphalt
v 3.5 0.07999999910593034 3.500000014305115
v 3.5 0.07999999910593034 2.7799999856948854
v 3.5 8.940696724635266e-10 3.500000014305115
v 3.5 8.940696724635266e-10 2.7799999856948854
v -3.5 0.07999999910593034 2.7799999856948854
v -3.5 0.07999999910593034 3.500000014305115
v -3.5 8.940696724635266e-10 2.7799999856948854
v -3.5 8.940696724635266e-10 3.500000014305115
v -3.5 0.07999999910593034 2.7799999856948854
v 3.5 0.07999999910593034 2.7799999856948854
v -3.5 0.07999999910593034 3.500000014305115
v 3.5 0.07999999910593034 3.500000014305115
v -3.5 8.940696724635266e-10 3.500000014305115
v 3.5 8.940696724635266e-10 3.500000014305115
v -3.5 8.940696724635266e-10 2.7799999856948854
v 3.5 8.940696724635266e-10 2.7799999856948854
v -3.5 0.07999999910593034 3.500000014305115
v 3.5 0.07999999910593034 3.500000014305115
v -3.5 8.940696724635266e-10 3.500000014305115
v 3.5 8.940696724635266e-10 3.500000014305115
v 3.5 0.07999999910593034 2.7799999856948854
v -3.5 0.07999999910593034 2.7799999856948854
v 3.5 8.940696724635266e-10 2.7799999856948854
v -3.5 8.940696724635266e-10 2.7799999856948854
vt 0 1
vt 1 1
vt 0 0
vt 1 0
vt 0 1
vt 1 1
vt 0 0
vt 1 0
vt 0 1
vt 1 1
vt 0 0
vt 1 0
vt 0 1
vt 1 1
vt 0 0
vt 1 0
vt 0 1
vt 1 1
vt 0 0
vt 1 0
vt 0 1
vt 1 1
vt 0 0
vt 1 0
vn 1 0 0
vn 1 0 0
vn 1 0 0
vn 1 0 0
vn -1 0 0
vn -1 0 0
vn -1 0 0
vn -1 0 0
vn 0 1 0
vn 0 1 0
vn 0 1 0
vn 0 1 0
vn 0 -1 0
vn 0 -1 0
vn 0 -1 0
vn 0 -1 0
vn 0 0 1
vn 0 0 1
vn 0 0 1
vn 0 0 1
vn 0 0 -1
vn 0 0 -1
vn 0 0 -1
vn 0 0 -1
f 433/433/433 435/435/435 434/434/434
f 435/435/435 436/436/436 434/434/434
f 437/437/437 439/439/439 438/438/438
f 439/439/439 440/440/440 438/438/438
f 441/441/441 443/443/443 442/442/442
f 443/443/443 444/444/444 442/442/442
f 445/445/445 447/447/447 446/446/446
f 447/447/447 448/448/448 446/446/446
f 449/449/449 451/451/451 450/450/450
f 451/451/451 452/452/452 450/450/450
f 453/453/453 455/455/455 454/454/454
f 455/455/455 456/456/456 454/454/454
o apron-stripes
usemtl marking-white
v -1.6399999856948853 0.14000000149011613 3.4800000190734863
v -1.6399999856948853 0.03999999925494193 3.4800000190734863
v -1.6399999856948853 0.14000000149011613 2.799999952316284
v -1.6399999856948853 0.03999999925494193 3.4800000190734863
v -1.6399999856948853 0.03999999925494193 2.799999952316284
v -1.6399999856948853 0.14000000149011613 2.799999952316284
v -1.7999999523162842 0.14000000149011613 2.799999952316284
v -1.7999999523162842 0.03999999925494193 2.799999952316284
v -1.7999999523162842 0.14000000149011613 3.4800000190734863
v -1.7999999523162842 0.03999999925494193 2.799999952316284
v -1.7999999523162842 0.03999999925494193 3.4800000190734863
v -1.7999999523162842 0.14000000149011613 3.4800000190734863
v -1.7999999523162842 0.14000000149011613 2.799999952316284
v -1.7999999523162842 0.14000000149011613 3.4800000190734863
v -1.6399999856948853 0.14000000149011613 2.799999952316284
v -1.7999999523162842 0.14000000149011613 3.4800000190734863
v -1.6399999856948853 0.14000000149011613 3.4800000190734863
v -1.6399999856948853 0.14000000149011613 2.799999952316284
v -1.7999999523162842 0.03999999925494193 3.4800000190734863
v -1.7999999523162842 0.03999999925494193 2.799999952316284
v -1.6399999856948853 0.03999999925494193 3.4800000190734863
v -1.7999999523162842 0.03999999925494193 2.799999952316284
v -1.6399999856948853 0.03999999925494193 2.799999952316284
v -1.6399999856948853 0.03999999925494193 3.4800000190734863
v -1.7999999523162842 0.14000000149011613 3.4800000190734863
v -1.7999999523162842 0.03999999925494193 3.4800000190734863
v -1.6399999856948853 0.14000000149011613 3.4800000190734863
v -1.7999999523162842 0.03999999925494193 3.4800000190734863
v -1.6399999856948853 0.03999999925494193 3.4800000190734863
v -1.6399999856948853 0.14000000149011613 3.4800000190734863
v -1.6399999856948853 0.14000000149011613 2.799999952316284
v -1.6399999856948853 0.03999999925494193 2.799999952316284
v -1.7999999523162842 0.14000000149011613 2.799999952316284
v -1.6399999856948853 0.03999999925494193 2.799999952316284
v -1.7999999523162842 0.03999999925494193 2.799999952316284
v -1.7999999523162842 0.14000000149011613 2.799999952316284
v 1.7999999523162842 0.14000000149011613 3.4800000190734863
v 1.7999999523162842 0.03999999925494193 3.4800000190734863
v 1.7999999523162842 0.14000000149011613 2.799999952316284
v 1.7999999523162842 0.03999999925494193 3.4800000190734863
v 1.7999999523162842 0.03999999925494193 2.799999952316284
v 1.7999999523162842 0.14000000149011613 2.799999952316284
v 1.6399999856948853 0.14000000149011613 2.799999952316284
v 1.6399999856948853 0.03999999925494193 2.799999952316284
v 1.6399999856948853 0.14000000149011613 3.4800000190734863
v 1.6399999856948853 0.03999999925494193 2.799999952316284
v 1.6399999856948853 0.03999999925494193 3.4800000190734863
v 1.6399999856948853 0.14000000149011613 3.4800000190734863
v 1.6399999856948853 0.14000000149011613 2.799999952316284
v 1.6399999856948853 0.14000000149011613 3.4800000190734863
v 1.7999999523162842 0.14000000149011613 2.799999952316284
v 1.6399999856948853 0.14000000149011613 3.4800000190734863
v 1.7999999523162842 0.14000000149011613 3.4800000190734863
v 1.7999999523162842 0.14000000149011613 2.799999952316284
v 1.6399999856948853 0.03999999925494193 3.4800000190734863
v 1.6399999856948853 0.03999999925494193 2.799999952316284
v 1.7999999523162842 0.03999999925494193 3.4800000190734863
v 1.6399999856948853 0.03999999925494193 2.799999952316284
v 1.7999999523162842 0.03999999925494193 2.799999952316284
v 1.7999999523162842 0.03999999925494193 3.4800000190734863
v 1.6399999856948853 0.14000000149011613 3.4800000190734863
v 1.6399999856948853 0.03999999925494193 3.4800000190734863
v 1.7999999523162842 0.14000000149011613 3.4800000190734863
v 1.6399999856948853 0.03999999925494193 3.4800000190734863
v 1.7999999523162842 0.03999999925494193 3.4800000190734863
v 1.7999999523162842 0.14000000149011613 3.4800000190734863
v 1.7999999523162842 0.14000000149011613 2.799999952316284
v 1.7999999523162842 0.03999999925494193 2.799999952316284
v 1.6399999856948853 0.14000000149011613 2.799999952316284
v 1.7999999523162842 0.03999999925494193 2.799999952316284
v 1.6399999856948853 0.03999999925494193 2.799999952316284
v 1.6399999856948853 0.14000000149011613 2.799999952316284
vt 0 1
vt 0 0
vt 1 1
vt 0 0
vt 1 0
vt 1 1
vt 0 1
vt 0 0
vt 1 1
vt 0 0
vt 1 0
vt 1 1
vt 0 1
vt 0 0
vt 1 1
vt 0 0
vt 1 0
vt 1 1
vt 0 1
vt 0 0
vt 1 1
vt 0 0
vt 1 0
vt 1 1
vt 0 1
vt 0 0
vt 1 1
vt 0 0
vt 1 0
vt 1 1
vt 0 1
vt 0 0
vt 1 1
vt 0 0
vt 1 0
vt 1 1
vt 0 1
vt 0 0
vt 1 1
vt 0 0
vt 1 0
vt 1 1
vt 0 1
vt 0 0
vt 1 1
vt 0 0
vt 1 0
vt 1 1
vt 0 1
vt 0 0
vt 1 1
vt 0 0
vt 1 0
vt 1 1
vt 0 1
vt 0 0
vt 1 1
vt 0 0
vt 1 0
vt 1 1
vt 0 1
vt 0 0
vt 1 1
vt 0 0
vt 1 0
vt 1 1
vt 0 1
vt 0 0
vt 1 1
vt 0 0
vt 1 0
vt 1 1
vn 1 0 0
vn 1 0 0
vn 1 0 0
vn 1 0 0
vn 1 0 0
vn 1 0 0
vn -1 0 0
vn -1 0 0
vn -1 0 0
vn -1 0 0
vn -1 0 0
vn -1 0 0
vn 0 1 0
vn 0 1 0
vn 0 1 0
vn 0 1 0
vn 0 1 0
vn 0 1 0
vn 0 -1 0
vn 0 -1 0
vn 0 -1 0
vn 0 -1 0
vn 0 -1 0
vn 0 -1 0
vn 0 0 1
vn 0 0 1
vn 0 0 1
vn 0 0 1
vn 0 0 1
vn 0 0 1
vn 0 0 -1
vn 0 0 -1
vn 0 0 -1
vn 0 0 -1
vn 0 0 -1
vn 0 0 -1
vn 1 0 0
vn 1 0 0
vn 1 0 0
vn 1 0 0
vn 1 0 0
vn 1 0 0
vn -1 0 0
vn -1 0 0
vn -1 0 0
vn -1 0 0
vn -1 0 0
vn -1 0 0
vn 0 1 0
vn 0 1 0
vn 0 1 0
vn 0 1 0
vn 0 1 0
vn 0 1 0
vn 0 -1 0
vn 0 -1 0
vn 0 -1 0
vn 0 -1 0
vn 0 -1 0
vn 0 -1 0
vn 0 0 1
vn 0 0 1
vn 0 0 1
vn 0 0 1
vn 0 0 1
vn 0 0 1
vn 0 0 -1
vn 0 0 -1
vn 0 0 -1
vn 0 0 -1
vn 0 0 -1
vn 0 0 -1
f 457/457/457 458/458/458 459/459/459
f 460/460/460 461/461/461 462/462/462
f 463/463/463 464/464/464 465/465/465
f 466/466/466 467/467/467 468/468/468
f 469/469/469 470/470/470 471/471/471
f 472/472/472 473/473/473 474/474/474
f 475/475/475 476/476/476 477/477/477
f 478/478/478 479/479/479 480/480/480
f 481/481/481 482/482/482 483/483/483
f 484/484/484 485/485/485 486/486/486
f 487/487/487 488/488/488 489/489/489
f 490/490/490 491/491/491 492/492/492
f 493/493/493 494/494/494 495/495/495
f 496/496/496 497/497/497 498/498/498
f 499/499/499 500/500/500 501/501/501
f 502/502/502 503/503/503 504/504/504
f 505/505/505 506/506/506 507/507/507
f 508/508/508 509/509/509 510/510/510
f 511/511/511 512/512/512 513/513/513
f 514/514/514 515/515/515 516/516/516
f 517/517/517 518/518/518 519/519/519
f 520/520/520 521/521/521 522/522/522
f 523/523/523 524/524/524 525/525/525
f 526/526/526 527/527/527 528/528/528
o roof-plant
usemtl plant-grey
v -1.75 3.800000011920929 -2.5
v -1.75 3.2499999940395354 -2.5
v -1.75 3.800000011920929 -3.299999952316284
v -1.75 3.2499999940395354 -2.5
v -1.75 3.2499999940395354 -3.299999952316284
v -1.75 3.800000011920929 -3.299999952316284
v -3.049999952316284 3.800000011920929 -3.299999952316284
v -3.049999952316284 3.2499999940395354 -3.299999952316284
v -3.049999952316284 3.800000011920929 -2.5
v -3.049999952316284 3.2499999940395354 -3.299999952316284
v -3.049999952316284 3.2499999940395354 -2.5
v -3.049999952316284 3.800000011920929 -2.5
v -3.049999952316284 3.800000011920929 -3.299999952316284
v -3.049999952316284 3.800000011920929 -2.5
v -1.75 3.800000011920929 -3.299999952316284
v -3.049999952316284 3.800000011920929 -2.5
v -1.75 3.800000011920929 -2.5
v -1.75 3.800000011920929 -3.299999952316284
v -3.049999952316284 3.2499999940395354 -2.5
v -3.049999952316284 3.2499999940395354 -3.299999952316284
v -1.75 3.2499999940395354 -2.5
v -3.049999952316284 3.2499999940395354 -3.299999952316284
v -1.75 3.2499999940395354 -3.299999952316284
v -1.75 3.2499999940395354 -2.5
v -3.049999952316284 3.800000011920929 -2.5
v -3.049999952316284 3.2499999940395354 -2.5
v -1.75 3.800000011920929 -2.5
v -3.049999952316284 3.2499999940395354 -2.5
v -1.75 3.2499999940395354 -2.5
v -1.75 3.800000011920929 -2.5
v -1.75 3.800000011920929 -3.299999952316284
v -1.75 3.2499999940395354 -3.299999952316284
v -3.049999952316284 3.800000011920929 -3.299999952316284
v -1.75 3.2499999940395354 -3.299999952316284
v -3.049999952316284 3.2499999940395354 -3.299999952316284
v -3.049999952316284 3.800000011920929 -3.299999952316284
v -0.550000011920929 3.800000011920929 -2.700000047683716
v -0.550000011920929 3.2499999940395354 -2.700000047683716
v -0.550000011920929 3.800000011920929 -3.299999952316284
v -0.550000011920929 3.2499999940395354 -2.700000047683716
v -0.550000011920929 3.2499999940395354 -3.299999952316284
v -0.550000011920929 3.800000011920929 -3.299999952316284
v -1.25 3.800000011920929 -3.299999952316284
v -1.25 3.2499999940395354 -3.299999952316284
v -1.25 3.800000011920929 -2.700000047683716
v -1.25 3.2499999940395354 -3.299999952316284
v -1.25 3.2499999940395354 -2.700000047683716
v -1.25 3.800000011920929 -2.700000047683716
v -1.25 3.800000011920929 -3.299999952316284
v -1.25 3.800000011920929 -2.700000047683716
v -0.550000011920929 3.800000011920929 -3.299999952316284
v -1.25 3.800000011920929 -2.700000047683716
v -0.550000011920929 3.800000011920929 -2.700000047683716
v -0.550000011920929 3.800000011920929 -3.299999952316284
v -1.25 3.2499999940395354 -2.700000047683716
v -1.25 3.2499999940395354 -3.299999952316284
v -0.550000011920929 3.2499999940395354 -2.700000047683716
v -1.25 3.2499999940395354 -3.299999952316284
v -0.550000011920929 3.2499999940395354 -3.299999952316284
v -0.550000011920929 3.2499999940395354 -2.700000047683716
v -1.25 3.800000011920929 -2.700000047683716
v -1.25 3.2499999940395354 -2.700000047683716
v -0.550000011920929 3.800000011920929 -2.700000047683716
v -1.25 3.2499999940395354 -2.700000047683716
v -0.550000011920929 3.2499999940395354 -2.700000047683716
v -0.550000011920929 3.800000011920929 -2.700000047683716
v -0.550000011920929 3.800000011920929 -3.299999952316284
v -0.550000011920929 3.2499999940395354 -3.299999952316284
v -1.25 3.800000011920929 -3.299999952316284
v -0.550000011920929 3.2499999940395354 -3.299999952316284
v -1.25 3.2499999940395354 -3.299999952316284
v -1.25 3.800000011920929 -3.299999952316284
vt 0 1
vt 0 0
vt 1 1
vt 0 0
vt 1 0
vt 1 1
vt 0 1
vt 0 0
vt 1 1
vt 0 0
vt 1 0
vt 1 1
vt 0 1
vt 0 0
vt 1 1
vt 0 0
vt 1 0
vt 1 1
vt 0 1
vt 0 0
vt 1 1
vt 0 0
vt 1 0
vt 1 1
vt 0 1
vt 0 0
vt 1 1
vt 0 0
vt 1 0
vt 1 1
vt 0 1
vt 0 0
vt 1 1
vt 0 0
vt 1 0
vt 1 1
vt 0 1
vt 0 0
vt 1 1
vt 0 0
vt 1 0
vt 1 1
vt 0 1
vt 0 0
vt 1 1
vt 0 0
vt 1 0
vt 1 1
vt 0 1
vt 0 0
vt 1 1
vt 0 0
vt 1 0
vt 1 1
vt 0 1
vt 0 0
vt 1 1
vt 0 0
vt 1 0
vt 1 1
vt 0 1
vt 0 0
vt 1 1
vt 0 0
vt 1 0
vt 1 1
vt 0 1
vt 0 0
vt 1 1
vt 0 0
vt 1 0
vt 1 1
vn 1 0 0
vn 1 0 0
vn 1 0 0
vn 1 0 0
vn 1 0 0
vn 1 0 0
vn -1 0 0
vn -1 0 0
vn -1 0 0
vn -1 0 0
vn -1 0 0
vn -1 0 0
vn 0 1 0
vn 0 1 0
vn 0 1 0
vn 0 1 0
vn 0 1 0
vn 0 1 0
vn 0 -1 0
vn 0 -1 0
vn 0 -1 0
vn 0 -1 0
vn 0 -1 0
vn 0 -1 0
vn 0 0 1
vn 0 0 1
vn 0 0 1
vn 0 0 1
vn 0 0 1
vn 0 0 1
vn 0 0 -1
vn 0 0 -1
vn 0 0 -1
vn 0 0 -1
vn 0 0 -1
vn 0 0 -1
vn 1 0 0
vn 1 0 0
vn 1 0 0
vn 1 0 0
vn 1 0 0
vn 1 0 0
vn -1 0 0
vn -1 0 0
vn -1 0 0
vn -1 0 0
vn -1 0 0
vn -1 0 0
vn 0 1 0
vn 0 1 0
vn 0 1 0
vn 0 1 0
vn 0 1 0
vn 0 1 0
vn 0 -1 0
vn 0 -1 0
vn 0 -1 0
vn 0 -1 0
vn 0 -1 0
vn 0 -1 0
vn 0 0 1
vn 0 0 1
vn 0 0 1
vn 0 0 1
vn 0 0 1
vn 0 0 1
vn 0 0 -1
vn 0 0 -1
vn 0 0 -1
vn 0 0 -1
vn 0 0 -1
vn 0 0 -1
f 529/529/529 530/530/530 531/531/531
f 532/532/532 533/533/533 534/534/534
f 535/535/535 536/536/536 537/537/537
f 538/538/538 539/539/539 540/540/540
f 541/541/541 542/542/542 543/543/543
f 544/544/544 545/545/545 546/546/546
f 547/547/547 548/548/548 549/549/549
f 550/550/550 551/551/551 552/552/552
f 553/553/553 554/554/554 555/555/555
f 556/556/556 557/557/557 558/558/558
f 559/559/559 560/560/560 561/561/561
f 562/562/562 563/563/563 564/564/564
f 565/565/565 566/566/566 567/567/567
f 568/568/568 569/569/569 570/570/570
f 571/571/571 572/572/572 573/573/573
f 574/574/574 575/575/575 576/576/576
f 577/577/577 578/578/578 579/579/579
f 580/580/580 581/581/581 582/582/582
f 583/583/583 584/584/584 585/585/585
f 586/586/586 587/587/587 588/588/588
f 589/589/589 590/590/590 591/591/591
f 592/592/592 593/593/593 594/594/594
f 595/595/595 596/596/596 597/597/597
f 598/598/598 599/599/599 600/600/600
