mtllib hospital.mtl
o ward
usemtl clinic-white
v 3.5 3.299999976158142 -0.5
v 3.5 3.299999976158142 -3.5
v 3.5 2.3841857821338408e-8 -0.5
v 3.5 2.3841857821338408e-8 -3.5
v -3.5 3.299999976158142 -3.5
v -3.5 3.299999976158142 -0.5
v -3.5 2.3841857821338408e-8 -3.5
v -3.5 2.3841857821338408e-8 -0.5
v -3.5 3.299999976158142 -3.5
v 3.5 3.299999976158142 -3.5
v -3.5 3.299999976158142 -0.5
v 3.5 3.299999976158142 -0.5
v -3.5 2.3841857821338408e-8 -0.5
v 3.5 2.3841857821338408e-8 -0.5
v -3.5 2.3841857821338408e-8 -3.5
v 3.5 2.3841857821338408e-8 -3.5
v -3.5 3.299999976158142 -0.5
v 3.5 3.299999976158142 -0.5
v -3.5 2.3841857821338408e-8 -0.5
v 3.5 2.3841857821338408e-8 -0.5
v 3.5 3.299999976158142 -3.5
v -3.5 3.299999976158142 -3.5
v 3.5 2.3841857821338408e-8 -3.5
v -3.5 2.3841857821338408e-8 -3.5
vt 0 1
vt 1 1
vt 0 0
vt 1 0
vt 0 1
vt 1 1
vt 0 0
vt 1 0
vt 0 1
vt 1 1
vt 0 0
vt 1 0
vt 0 1
vt 1 1
vt 0 0
vt 1 0
vt 0 1
vt 1 1
vt 0 0
vt 1 0
vt 0 1
vt 1 1
vt 0 0
vt 1 0
vn 1 0 0
vn 1 0 0
vn 1 0 0
vn 1 0 0
vn -1 0 0
vn -1 0 0
vn -1 0 0
vn -1 0 0
vn 0 1 0
vn 0 1 0
vn 0 1 0
vn 0 1 0
vn 0 -1 0
vn 0 -1 0
vn 0 -1 0
vn 0 -1 0
vn 0 0 1
vn 0 0 1
vn 0 0 1
vn 0 0 1
vn 0 0 -1
vn 0 0 -1
vn 0 0 -1
vn 0 0 -1
f 1/1/1 3/3/3 2/2/2
f 3/3/3 4/4/4 2/2/2
f 5/5/5 7/7/7 6/6/6
f 7/7/7 8/8/8 6/6/6
f 9/9/9 11/11/11 10/10/10
f 11/11/11 12/12/12 10/10/10
f 13/13/13 15/15/15 14/14/14
f 15/15/15 16/16/16 14/14/14
f 17/17/17 19/19/19 18/18/18
f 19/19/19 20/20/20 18/18/18
f 21/21/21 23/23/23 22/22/22
f 23/23/23 24/24/24 22/22/22
o ward-glazing
usemtl glazing
v 3.5299999713897705 1.1800000667572021 -0.4700000286102295
v 3.5299999713897705 0.8199999928474426 -0.4700000286102295
v 3.5299999713897705 1.1800000667572021 -3.5299999713897705
v 3.5299999713897705 0.8199999928474426 -0.4700000286102295
v 3.5299999713897705 0.8199999928474426 -3.5299999713897705
v 3.5299999713897705 1.1800000667572021 -3.5299999713897705
v -3.5299999713897705 1.1800000667572021 -3.5299999713897705
v -3.5299999713897705 0.8199999928474426 -3.5299999713897705
v -3.5299999713897705 1.1800000667572021 -0.4700000286102295
v -3.5299999713897705 0.8199999928474426 -3.5299999713897705
v -3.5299999713897705 0.8199999928474426 -0.4700000286102295
v -3.5299999713897705 1.1800000667572021 -0.4700000286102295
v -3.5299999713897705 1.1800000667572021 -3.5299999713897705
v -3.5299999713897705 1.1800000667572021 -0.4700000286102295
v 3.5299999713897705 1.1800000667572021 -3.5299999713897705
v -3.5299999713897705 1.1800000667572021 -0.4700000286102295
v 3.5299999713897705 1.1800000667572021 -0.4700000286102295
v 3.5299999713897705 1.1800000667572021 -3.5299999713897705
v -3.5299999713897705 0.8199999928474426 -0.4700000286102295
v -3.5299999713897705 0.8199999928474426 -3.5299999713897705
v 3.5299999713897705 0.8199999928474426 -0.4700000286102295
v -3.5299999713897705 0.8199999928474426 -3.5299999713897705
v 3.5299999713897705 0.8199999928474426 -3.5299999713897705
v 3.5299999713897705 0.8199999928474426 -0.4700000286102295
v -3.5299999713897705 1.1800000667572021 -0.4700000286102295
v -3.5299999713897705 0.8199999928474426 -0.4700000286102295
v 3.5299999713897705 1.1800000667572021 -0.4700000286102295
v -3.5299999713897705 0.8199999928474426 -0.4700000286102295
v 3.5299999713897705 0.8199999928474426 -0.4700000286102295
v 3.5299999713897705 1.1800000667572021 -0.4700000286102295
v 3.5299999713897705 1.1800000667572021 -3.5299999713897705
v 3.5299999713897705 0.8199999928474426 -3.5299999713897705
v -3.5299999713897705 1.1800000667572021 -3.5299999713897705
v 3.5299999713897705 0.8199999928474426 -3.5299999713897705
v -3.5299999713897705 0.8199999928474426 -3.5299999713897705
v -3.5299999713897705 1.1800000667572021 -3.5299999713897705
v 3.5299999713897705 2.299999952316284 -0.4700000286102295
v 3.5299999713897705 1.9399999380111694 -0.4700000286102295
v 3.5299999713897705 2.299999952316284 -3.5299999713897705
v 3.5299999713897705 1.9399999380111694 -0.4700000286102295
v 3.5299999713897705 1.9399999380111694 -3.5299999713897705
v 3.5299999713897705 2.299999952316284 -3.5299999713897705
v -3.5299999713897705 2.299999952316284 -3.5299999713897705
v -3.5299999713897705 1.9399999380111694 -3.5299999713897705
v -3.5299999713897705 2.299999952316284 -0.4700000286102295
v -3.5299999713897705 1.9399999380111694 -3.5299999713897705
v -3.5299999713897705 1.9399999380111694 -0.4700000286102295
v -3.5299999713897705 2.299999952316284 -0.4700000286102295
v -3.5299999713897705 2.299999952316284 -3.5299999713897705
v -3.5299999713897705 2.299999952316284 -0.4700000286102295
v 3.5299999713897705 2.299999952316284 -3.5299999713897705
v -3.5299999713897705 2.299999952316284 -0.4700000286102295
v 3.5299999713897705 2.299999952316284 -0.4700000286102295
v 3.5299999713897705 2.299999952316284 -3.5299999713897705
v -3.5299999713897705 1.9399999380111694 -0.4700000286102295
v -3.5299999713897705 1.9399999380111694 -3.5299999713897705
v 3.5299999713897705 1.9399999380111694 -0.4700000286102295
v -3.5299999713897705 1.9399999380111694 -3.5299999713897705
v 3.5299999713897705 1.9399999380111694 -3.5299999713897705
v 3.5299999713897705 1.9399999380111694 -0.4700000286102295
v -3.5299999713897705 2.299999952316284 -0.4700000286102295
v -3.5299999713897705 1.9399999380111694 -0.4700000286102295
v 3.5299999713897705 2.299999952316284 -0.4700000286102295
v -3.5299999713897705 1.9399999380111694 -0.4700000286102295
v 3.5299999713897705 1.9399999380111694 -0.4700000286102295
v 3.5299999713897705 2.299999952316284 -0.4700000286102295
v 3.5299999713897705 2.299999952316284 -3.5299999713897705
v 3.5299999713897705 1.9399999380111694 -3.5299999713897705
v -3.5299999713897705 2.299999952316284 -3.5299999713897705
v 3.5299999713897705 1.9399999380111694 -3.5299999713897705
v -3.5299999713897705 1.9399999380111694 -3.5299999713897705
v -3.5299999713897705 2.299999952316284 -3.5299999713897705
vt 0 1
vt 0 0
vt 1 1
vt 0 0
vt 1 0
vt 1 1
vt 0 1
vt 0 0
vt 1 1
vt 0 0
vt 1 0
vt 1 1
vt 0 1
vt 0 0
vt 1 1
vt 0 0
vt 1 0
vt 1 1
vt 0 1
vt 0 0
vt 1 1
vt 0 0
vt 1 0
vt 1 1
vt 0 1
vt 0 0
vt 1 1
vt 0 0
vt 1 0
vt 1 1
vt 0 1
vt 0 0
vt 1 1
vt 0 0
vt 1 0
vt 1 1
vt 0 1
vt 0 0
vt 1 1
vt 0 0
vt 1 0
vt 1 1
vt 0 1
vt 0 0
vt 1 1
vt 0 0
vt 1 0
vt 1 1
vt 0 1
vt 0 0
vt 1 1
vt 0 0
vt 1 0
vt 1 1
vt 0 1
vt 0 0
vt 1 1
vt 0 0
vt 1 0
vt 1 1
vt 0 1
vt 0 0
vt 1 1
vt 0 0
vt 1 0
vt 1 1
vt 0 1
vt 0 0
vt 1 1
vt 0 0
vt 1 0
vt 1 1
vn 1 0 0
vn 1 0 0
vn 1 0 0
vn 1 0 0
vn 1 0 0
vn 1 0 0
vn -1 0 0
vn -1 0 0
vn -1 0 0
vn -1 0 0
vn -1 0 0
vn -1 0 0
vn 0 1 0
vn 0 1 0
vn 0 1 0
vn 0 1 0
vn 0 1 0
vn 0 1 0
vn 0 -1 0
vn 0 -1 0
vn 0 -1 0
vn 0 -1 0
vn 0 -1 0
vn 0 -1 0
vn 0 0 1
vn 0 0 1
vn 0 0 1
vn 0 0 1
vn 0 0 1
vn 0 0 1
vn 0 0 -1
vn 0 0 -1
vn 0 0 -1
vn 0 0 -1
vn 0 0 -1
vn 0 0 -1
vn 1 0 0
vn 1 0 0
vn 1 0 0
vn 1 0 0
vn 1 0 0
vn 1 0 0
vn -1 0 0
vn -1 0 0
vn -1 0 0
vn -1 0 0
vn -1 0 0
vn -1 0 0
vn 0 1 0
vn 0 1 0
vn 0 1 0
vn 0 1 0
vn 0 1 0
vn 0 1 0
vn 0 -1 0
vn 0 -1 0
vn 0 -1 0
vn 0 -1 0
vn 0 -1 0
vn 0 -1 0
vn 0 0 1
vn 0 0 1
vn 0 0 1
vn 0 0 1
vn 0 0 1
vn 0 0 1
vn 0 0 -1
vn 0 0 -1
vn 0 0 -1
vn 0 0 -1
vn 0 0 -1
vn 0 0 -1
f 25/25/25 26/26/26 27/27/27
f 28/28/28 29/29/29 30/30/30
f 31/31/31 32/32/32 33/33/33
f 34/34/34 35/35/35 36/36/36
f 37/37/37 38/38/38 39/39/39
f 40/40/40 41/41/41 42/42/42
f 43/43/43 44/44/44 45/45/45
f 46/46/46 47/47/47 48/48/48
f 49/49/49 50/50/50 51/51/51
f 52/52/52 53/53/53 54/54/54
f 55/55/55 56/56/56 57/57/57
f 58/58/58 59/59/59 60/60/60
f 61/61/61 62/62/62 63/63/63
f 64/64/64 65/65/65 66/66/66
f 67/67/67 68/68/68 69/69/69
f 70/70/70 71/71/71 72/72/72
f 73/73/73 74/74/74 75/75/75
f 76/76/76 77/77/77 78/78/78
f 79/79/79 80/80/80 81/81/81
f 82/82/82 83/83/83 84/84/84
f 85/85/85 86/86/86 87/87/87
f 88/88/88 89/89/89 90/90/90
f 91/91/91 92/92/92 93/93/93
f 94/94/94 95/95/95 96/96/96
o ward-cap
usemtl mint-roof
v 3.609999895095825 3.5099999994039535 -0.38999998569488525
v 3.609999895095825 3.5099999994039535 -3.6100000143051147
v 3.609999895095825 3.2900000005960464 -0.38999998569488525
v 3.609999895095825 3.2900000005960464 -3.6100000143051147
v -3.609999895095825 3.5099999994039535 -3.6100000143051147
v -3.609999895095825 3.5099999994039535 -0.38999998569488525
v -3.609999895095825 3.2900000005960464 -3.6100000143051147
v -3.609999895095825 3.2900000005960464 -0.38999998569488525
v -3.609999895095825 3.5099999994039535 -3.6100000143051147
v 3.609999895095825 3.5099999994039535 -3.6100000143051147
v -3.609999895095825 3.5099999994039535 -0.38999998569488525
v 3.609999895095825 3.5099999994039535 -0.38999998569488525
v -3.609999895095825 3.2900000005960464 -0.38999998569488525
v 3.609999895095825 3.2900000005960464 -0.38999998569488525
v -3.609999895095825 3.2900000005960464 -3.6100000143051147
v 3.609999895095825 3.2900000005960464 -3.6100000143051147
v -3.609999895095825 3.5099999994039535 -0.38999998569488525
v 3.609999895095825 3.5099999994039535 -0.38999998569488525
v -3.609999895095825 3.2900000005960464 -0.38999998569488525
v 3.609999895095825 3.2900000005960464 -0.38999998569488525
v 3.609999895095825 3.5099999994039535 -3.6100000143051147
v -3.609999895095825 3.5099999994039535 -3.6100000143051147
v 3.609999895095825 3.2900000005960464 -3.6100000143051147
v -3.609999895095825 3.2900000005960464 -3.6100000143051147
vt 0 1
vt 1 1
vt 0 0
vt 1 0
vt 0 1
vt 1 1
vt 0 0
vt 1 0
vt 0 1
vt 1 1
vt 0 0
vt 1 0
vt 0 1
vt 1 1
vt 0 0
vt 1 0
vt 0 1
vt 1 1
vt 0 0
vt 1 0
vt 0 1
vt 1 1
vt 0 0
vt 1 0
vn 1 0 0
vn 1 0 0
vn 1 0 0
vn 1 0 0
vn -1 0 0
vn -1 0 0
vn -1 0 0
vn -1 0 0
vn 0 1 0
vn 0 1 0
vn 0 1 0
vn 0 1 0
vn 0 -1 0
vn 0 -1 0
vn 0 -1 0
vn 0 -1 0
vn 0 0 1
vn 0 0 1
vn 0 0 1
vn 0 0 1
vn 0 0 -1
vn 0 0 -1
vn 0 0 -1
vn 0 0 -1
f 97/97/97 99/99/99 98/98/98
f 99/99/99 100/100/100 98/98/98
f 101/101/101 103/103/103 102/102/102
f 103/103/103 104/104/104 102/102/102
f 105/105/105 107/107/107 106/106/106
f 107/107/107 108/108/108 106/106/106
f 109/109/109 111/111/111 110/110/110
f 111/111/111 112/112/112 110/110/110
f 113/113/113 115/115/115 114/114/114
f 115/115/115 116/116/116 114/114/114
f 117/117/117 119/119/119 118/118/118
f 119/119/119 120/120/120 118/118/118
o wing
usemtl clinic-white
v 1.5 1.649999988079071 3.5
v 1.5 1.649999988079071 -0.5
v 1.5 1.1920928910669204e-8 3.5
v 1.5 1.1920928910669204e-8 -0.5
v -3.5 1.649999988079071 -0.5
v -3.5 1.649999988079071 3.5
v -3.5 1.1920928910669204e-8 -0.5
v -3.5 1.1920928910669204e-8 3.5
v -3.5 1.649999988079071 -0.5
v 1.5 1.649999988079071 -0.5
v -3.5 1.649999988079071 3.5
v 1.5 1.649999988079071 3.5
v -3.5 1.1920928910669204e-8 3.5
v 1.5 1.1920928910669204e-8 3.5
v -3.5 1.1920928910669204e-8 -0.5
v 1.5 1.1920928910669204e-8 -0.5
v -3.5 1.649999988079071 3.5
v 1.5 1.649999988079071 3.5
v -3.5 1.1920928910669204e-8 3.5
v 1.5 1.1920928910669204e-8 3.5
v 1.5 1.649999988079071 -0.5
v -3.5 1.649999988079071 -0.5
v 1.5 1.1920928910669204e-8 -0.5
v -3.5 1.1920928910669204e-8 -0.5
vt 0 1
vt 1 1
vt 0 0
vt 1 0
vt 0 1
vt 1 1
vt 0 0
vt 1 0
vt 0 1
vt 1 1
vt 0 0
vt 1 0
vt 0 1
vt 1 1
vt 0 0
vt 1 0
vt 0 1
vt 1 1
vt 0 0
vt 1 0
vt 0 1
vt 1 1
vt 0 0
vt 1 0
vn 1 0 0
vn 1 0 0
vn 1 0 0
vn 1 0 0
vn -1 0 0
vn -1 0 0
vn -1 0 0
vn -1 0 0
vn 0 1 0
vn 0 1 0
vn 0 1 0
vn 0 1 0
vn 0 -1 0
vn 0 -1 0
vn 0 -1 0
vn 0 -1 0
vn 0 0 1
vn 0 0 1
vn 0 0 1
vn 0 0 1
vn 0 0 -1
vn 0 0 -1
vn 0 0 -1
vn 0 0 -1
f 121/121/121 123/123/123 122/122/122
f 123/123/123 124/124/124 122/122/122
f 125/125/125 127/127/127 126/126/126
f 127/127/127 128/128/128 126/126/126
f 129/129/129 131/131/131 130/130/130
f 131/131/131 132/132/132 130/130/130
f 133/133/133 135/135/135 134/134/134
f 135/135/135 136/136/136 134/134/134
f 137/137/137 139/139/139 138/138/138
f 139/139/139 140/140/140 138/138/138
f 141/141/141 143/143/143 142/142/142
f 143/143/143 144/144/144 142/142/142
o wing-glazing
usemtl glazing
v 1.5299999713897705 1.0699999999999998 3.5299999713897705
v 1.5299999713897705 1.0699999999999998 -0.5299999713897705
v 1.5299999713897705 0.57 3.5299999713897705
v 1.5299999713897705 0.57 -0.5299999713897705
v -3.5299999713897705 1.0699999999999998 -0.5299999713897705
v -3.5299999713897705 1.0699999999999998 3.5299999713897705
v -3.5299999713897705 0.57 -0.5299999713897705
v -3.5299999713897705 0.57 3.5299999713897705
v -3.5299999713897705 1.0699999999999998 -0.5299999713897705
v 1.5299999713897705 1.0699999999999998 -0.5299999713897705
v -3.5299999713897705 1.0699999999999998 3.5299999713897705
v 1.5299999713897705 1.0699999999999998 3.5299999713897705
v -3.5299999713897705 0.57 3.5299999713897705
v 1.5299999713897705 0.57 3.5299999713897705
v -3.5299999713897705 0.57 -0.5299999713897705
v 1.5299999713897705 0.57 -0.5299999713897705
v -3.5299999713897705 1.0699999999999998 3.5299999713897705
v 1.5299999713897705 1.0699999999999998 3.5299999713897705
v -3.5299999713897705 0.57 3.5299999713897705
v 1.5299999713897705 0.57 3.5299999713897705
v 1.5299999713897705 1.0699999999999998 -0.5299999713897705
v -3.5299999713897705 1.0699999999999998 -0.5299999713897705
v 1.5299999713897705 0.57 -0.5299999713897705
v -3.5299999713897705 0.57 -0.5299999713897705
vt 0 1
vt 1 1
vt 0 0
vt 1 0
vt 0 1
vt 1 1
vt 0 0
vt 1 0
vt 0 1
vt 1 1
vt 0 0
vt 1 0
vt 0 1
vt 1 1
vt 0 0
vt 1 0
vt 0 1
vt 1 1
vt 0 0
vt 1 0
vt 0 1
vt 1 1
vt 0 0
vt 1 0
vn 1 0 0
vn 1 0 0
vn 1 0 0
vn 1 0 0
vn -1 0 0
vn -1 0 0
vn -1 0 0
vn -1 0 0
vn 0 1 0
vn 0 1 0
vn 0 1 0
vn 0 1 0
vn 0 -1 0
vn 0 -1 0
vn 0 -1 0
vn 0 -1 0
vn 0 0 1
vn 0 0 1
vn 0 0 1
vn 0 0 1
vn 0 0 -1
vn 0 0 -1
vn 0 0 -1
vn 0 0 -1
f 145/145/145 147/147/147 146/146/146
f 147/147/147 148/148/148 146/146/146
f 149/149/149 151/151/151 150/150/150
f 151/151/151 152/152/152 150/150/150
f 153/153/153 155/155/155 154/154/154
f 155/155/155 156/156/156 154/154/154
f 157/157/157 159/159/159 158/158/158
f 159/159/159 160/160/160 158/158/158
f 161/161/161 163/163/163 162/162/162
f 163/163/163 164/164/164 162/162/162
f 165/165/165 167/167/167 166/166/166
f 167/167/167 168/168/168 166/166/166
o wing-cap
usemtl mint-roof
v 1.5999999046325684 1.840000001490116 3.5999999046325684
v 1.5999999046325684 1.840000001490116 -0.5999999046325684
v 1.5999999046325684 1.6399999985098839 3.5999999046325684
v 1.5999999046325684 1.6399999985098839 -0.5999999046325684
v -3.5999999046325684 1.840000001490116 -0.5999999046325684
v -3.5999999046325684 1.840000001490116 3.5999999046325684
v -3.5999999046325684 1.6399999985098839 -0.5999999046325684
v -3.5999999046325684 1.6399999985098839 3.5999999046325684
v -3.5999999046325684 1.840000001490116 -0.5999999046325684
v 1.5999999046325684 1.840000001490116 -0.5999999046325684
v -3.5999999046325684 1.840000001490116 3.5999999046325684
v 1.5999999046325684 1.840000001490116 3.5999999046325684
v -3.5999999046325684 1.6399999985098839 3.5999999046325684
v 1.5999999046325684 1.6399999985098839 3.5999999046325684
v -3.5999999046325684 1.6399999985098839 -0.5999999046325684
v 1.5999999046325684 1.6399999985098839 -0.5999999046325684
v -3.5999999046325684 1.840000001490116 3.5999999046325684
v 1.5999999046325684 1.840000001490116 3.5999999046325684
v -3.5999999046325684 1.6399999985098839 3.5999999046325684
v 1.5999999046325684 1.6399999985098839 3.5999999046325684
v 1.5999999046325684 1.840000001490116 -0.5999999046325684
v -3.5999999046325684 1.840000001490116 -0.5999999046325684
v 1.5999999046325684 1.6399999985098839 -0.5999999046325684
v -3.5999999046325684 1.6399999985098839 -0.5999999046325684
vt 0 1
vt 1 1
vt 0 0
vt 1 0
vt 0 1
vt 1 1
vt 0 0
vt 1 0
vt 0 1
vt 1 1
vt 0 0
vt 1 0
vt 0 1
vt 1 1
vt 0 0
vt 1 0
vt 0 1
vt 1 1
vt 0 0
vt 1 0
vt 0 1
vt 1 1
vt 0 0
vt 1 0
vn 1 0 0
vn 1 0 0
vn 1 0 0
vn 1 0 0
vn -1 0 0
vn -1 0 0
vn -1 0 0
vn -1 0 0
vn 0 1 0
vn 0 1 0
vn 0 1 0
vn 0 1 0
vn 0 -1 0
vn 0 -1 0
vn 0 -1 0
vn 0 -1 0
vn 0 0 1
vn 0 0 1
vn 0 0 1
vn 0 0 1
vn 0 0 -1
vn 0 0 -1
vn 0 0 -1
vn 0 0 -1
f 169/169/169 171/171/171 170/170/170
f 171/171/171 172/172/172 170/170/170
f 173/173/173 175/175/175 174/174/174
f 175/175/175 176/176/176 174/174/174
f 177/177/177 179/179/179 178/178/178
f 179/179/179 180/180/180 178/178/178
f 181/181/181 183/183/183 182/182/182
f 183/183/183 184/184/184 182/182/182
f 185/185/185 187/187/187 186/186/186
f 187/187/187 188/188/188 186/186/186
f 189/189/189 191/191/191 190/190/190
f 191/191/191 192/192/192 190/190/190
o entrance-canopy
usemtl glazing
v -0.09999997615814205 1.3800000014901161 3.95
v -0.09999997615814205 1.3800000014901161 2.45
v -0.09999997615814205 1.179999998509884 3.95
v -0.09999997615814205 1.179999998509884 2.45
v -3.300000023841858 1.3800000014901161 2.45
v -3.300000023841858 1.3800000014901161 3.95
v -3.300000023841858 1.179999998509884 2.45
v -3.300000023841858 1.179999998509884 3.95
v -3.300000023841858 1.3800000014901161 2.45
v -0.09999997615814205 1.3800000014901161 2.45
v -3.300000023841858 1.3800000014901161 3.95
v -0.09999997615814205 1.3800000014901161 3.95
v -3.300000023841858 1.179999998509884 3.95
v -0.09999997615814205 1.179999998509884 3.95
v -3.300000023841858 1.179999998509884 2.45
v -0.09999997615814205 1.179999998509884 2.45
v -3.300000023841858 1.3800000014901161 3.95
v -0.09999997615814205 1.3800000014901161 3.95
v -3.300000023841858 1.179999998509884 3.95
v -0.09999997615814205 1.179999998509884 3.95
v -0.09999997615814205 1.3800000014901161 2.45
v -3.300000023841858 1.3800000014901161 2.45
v -0.09999997615814205 1.179999998509884 2.45
v -3.300000023841858 1.179999998509884 2.45
vt 0 1
vt 1 1
vt 0 0
vt 1 0
vt 0 1
vt 1 1
vt 0 0
vt 1 0
vt 0 1
vt 1 1
vt 0 0
vt 1 0
vt 0 1
vt 1 1
vt 0 0
vt 1 0
vt 0 1
vt 1 1
vt 0 0
vt 1 0
vt 0 1
vt 1 1
vt 0 0
vt 1 0
vn 1 0 0
vn 1 0 0
vn 1 0 0
vn 1 0 0
vn -1 0 0
vn -1 0 0
vn -1 0 0
vn -1 0 0
vn 0 1 0
vn 0 1 0
vn 0 1 0
vn 0 1 0
vn 0 -1 0
vn 0 -1 0
vn 0 -1 0
vn 0 -1 0
vn 0 0 1
vn 0 0 1
vn 0 0 1
vn 0 0 1
vn 0 0 -1
vn 0 0 -1
vn 0 0 -1
vn 0 0 -1
f 193/193/193 195/195/195 194/194/194
f 195/195/195 196/196/196 194/194/194
f 197/197/197 199/199/199 198/198/198
f 199/199/199 200/200/200 198/198/198
f 201/201/201 203/203/203 202/202/202
f 203/203/203 204/204/204 202/202/202
f 205/205/205 207/207/207 206/206/206
f 207/207/207 208/208/208 206/206/206
f 209/209/209 211/211/211 210/210/210
f 211/211/211 212/212/212 210/210/210
f 213/213/213 215/215/215 214/214/214
f 215/215/215 216/216/216 214/214/214
o entrance-columns
usemtl clinic-white
v -2.940000057220459 1.2799999713897705 3.859999895095825
v -2.940000057220459 1.4305114426349519e-8 3.859999895095825
v -2.940000057220459 1.2799999713897705 3.640000104904175
v -2.940000057220459 1.4305114426349519e-8 3.859999895095825
v -2.940000057220459 1.4305114426349519e-8 3.640000104904175
v -2.940000057220459 1.2799999713897705 3.640000104904175
v -3.1600000858306885 1.2799999713897705 3.640000104904175
v -3.1600000858306885 1.4305114426349519e-8 3.640000104904175
v -3.1600000858306885 1.2799999713897705 3.859999895095825
v -3.1600000858306885 1.4305114426349519e-8 3.640000104904175
v -3.1600000858306885 1.4305114426349519e-8 3.859999895095825
v -3.1600000858306885 1.2799999713897705 3.859999895095825
v -3.1600000858306885 1.2799999713897705 3.640000104904175
v -3.1600000858306885 1.2799999713897705 3.859999895095825
v -2.940000057220459 1.2799999713897705 3.640000104904175
v -3.1600000858306885 1.2799999713897705 3.859999895095825
v -2.940000057220459 1.2799999713897705 3.859999895095825
v -2.940000057220459 1.2799999713897705 3.640000104904175
v -3.1600000858306885 1.4305114426349519e-8 3.859999895095825
v -3.1600000858306885 1.4305114426349519e-8 3.640000104904175
v -2.940000057220459 1.4305114426349519e-8 3.859999895095825
v -3.1600000858306885 1.4305114426349519e-8 3.640000104904175
v -2.940000057220459 1.4305114426349519e-8 3.640000104904175
v -2.940000057220459 1.4305114426349519e-8 3.859999895095825
v -3.1600000858306885 1.2799999713897705 3.859999895095825
v -3.1600000858306885 1.4305114426349519e-8 3.859999895095825
v -2.940000057220459 1.2799999713897705 3.859999895095825
v -3.1600000858306885 1.4305114426349519e-8 3.859999895095825
v -2.940000057220459 1.4305114426349519e-8 3.859999895095825
v -2.940000057220459 1.2799999713897705 3.859999895095825
v -2.940000057220459 1.2799999713897705 3.640000104904175
v -2.940000057220459 1.4305114426349519e-8 3.640000104904175
v -3.1600000858306885 1.2799999713897705 3.640000104904175
v -2.940000057220459 1.4305114426349519e-8 3.640000104904175
v -3.1600000858306885 1.4305114426349519e-8 3.640000104904175
v -3.1600000858306885 1.2799999713897705 3.640000104904175
v -0.23999999463558197 1.2799999713897705 3.859999895095825
v -0.23999999463558197 1.4305114426349519e-8 3.859999895095825
v -0.23999999463558197 1.2799999713897705 3.640000104904175
v -0.23999999463558197 1.4305114426349519e-8 3.859999895095825
v -0.23999999463558197 1.4305114426349519e-8 3.640000104904175
v -0.23999999463558197 1.2799999713897705 3.640000104904175
v -0.46000000834465027 1.2799999713897705 3.640000104904175
v -0.46000000834465027 1.4305114426349519e-8 3.640000104904175
v -0.46000000834465027 1.2799999713897705 3.859999895095825
v -0.46000000834465027 1.4305114426349519e-8 3.640000104904175
v -0.46000000834465027 1.4305114426349519e-8 3.859999895095825
v -0.46000000834465027 1.2799999713897705 3.859999895095825
v -0.46000000834465027 1.2799999713897705 3.640000104904175
v -0.46000000834465027 1.2799999713897705 3.859999895095825
v -0.23999999463558197 1.2799999713897705 3.640000104904175
v -0.46000000834465027 1.2799999713897705 3.859999895095825
v -0.23999999463558197 1.2799999713897705 3.859999895095825
v -0.23999999463558197 1.2799999713897705 3.640000104904175
v -0.46000000834465027 1.4305114426349519e-8 3.859999895095825
v -0.46000000834465027 1.4305114426349519e-8 3.640000104904175
v -0.23999999463558197 1.4305114426349519e-8 3.859999895095825
v -0.46000000834465027 1.4305114426349519e-8 3.640000104904175
v -0.23999999463558197 1.4305114426349519e-8 3.640000104904175
v -0.23999999463558197 1.4305114426349519e-8 3.859999895095825
v -0.46000000834465027 1.2799999713897705 3.859999895095825
v -0.46000000834465027 1.4305114426349519e-8 3.859999895095825
v -0.23999999463558197 1.2799999713897705 3.859999895095825
v -0.46000000834465027 1.4305114426349519e-8 3.859999895095825
v -0.23999999463558197 1.4305114426349519e-8 3.859999895095825
v -0.23999999463558197 1.2799999713897705 3.859999895095825
v -0.23999999463558197 1.2799999713897705 3.640000104904175
v -0.23999999463558197 1.4305114426349519e-8 3.640000104904175
v -0.46000000834465027 1.2799999713897705 3.640000104904175
v -0.23999999463558197 1.4305114426349519e-8 3.640000104904175
v -0.46000000834465027 1.4305114426349519e-8 3.640000104904175
v -0.46000000834465027 1.2799999713897705 3.640000104904175
vt 0 1
vt 0 0
vt 1 1
vt 0 0
vt 1 0
vt 1 1
vt 0 1
vt 0 0
vt 1 1
vt 0 0
vt 1 0
vt 1 1
vt 0 1
vt 0 0
vt 1 1
vt 0 0
vt 1 0
vt 1 1
vt 0 1
vt 0 0
vt 1 1
vt 0 0
vt 1 0
vt 1 1
vt 0 1
vt 0 0
vt 1 1
vt 0 0
vt 1 0
vt 1 1
vt 0 1
vt 0 0
vt 1 1
vt 0 0
vt 1 0
vt 1 1
vt 0 1
vt 0 0
vt 1 1
vt 0 0
vt 1 0
vt 1 1
vt 0 1
vt 0 0
vt 1 1
vt 0 0
vt 1 0
vt 1 1
vt 0 1
vt 0 0
vt 1 1
vt 0 0
vt 1 0
vt 1 1
vt 0 1
vt 0 0
vt 1 1
vt 0 0
vt 1 0
vt 1 1
vt 0 1
vt 0 0
vt 1 1
vt 0 0
vt 1 0
vt 1 1
vt 0 1
vt 0 0
vt 1 1
vt 0 0
vt 1 0
vt 1 1
vn 1 0 0
vn 1 0 0
vn 1 0 0
vn 1 0 0
vn 1 0 0
vn 1 0 0
vn -1 0 0
vn -1 0 0
vn -1 0 0
vn -1 0 0
vn -1 0 0
vn -1 0 0
vn 0 1 0
vn 0 1 0
vn 0 1 0
vn 0 1 0
vn 0 1 0
vn 0 1 0
vn 0 -1 0
vn 0 -1 0
vn 0 -1 0
vn 0 -1 0
vn 0 -1 0
vn 0 -1 0
vn 0 0 1
vn 0 0 1
vn 0 0 1
vn 0 0 1
vn 0 0 1
vn 0 0 1
vn 0 0 -1
vn 0 0 -1
vn 0 0 -1
vn 0 0 -1
vn 0 0 -1
vn 0 0 -1
vn 1 0 0
vn 1 0 0
vn 1 0 0
vn 1 0 0
vn 1 0 0
vn 1 0 0
vn -1 0 0
vn -1 0 0
vn -1 0 0
vn -1 0 0
vn -1 0 0
vn -1 0 0
vn 0 1 0
vn 0 1 0
vn 0 1 0
vn 0 1 0
vn 0 1 0
vn 0 1 0
vn 0 -1 0
vn 0 -1 0
vn 0 -1 0
vn 0 -1 0
vn 0 -1 0
vn 0 -1 0
vn 0 0 1
vn 0 0 1
vn 0 0 1
vn 0 0 1
vn 0 0 1
vn 0 0 1
vn 0 0 -1
vn 0 0 -1
vn 0 0 -1
vn 0 0 -1
vn 0 0 -1
vn 0 0 -1
f 217/217/217 218/218/218 219/219/219
f 220/220/220 221/221/221 222/222/222
f 223/223/223 224/224/224 225/225/225
f 226/226/226 227/227/227 228/228/228
f 229/229/229 230/230/230 231/231/231
f 232/232/232 233/233/233 234/234/234
f 235/235/235 236/236/236 237/237/237
f 238/238/238 239/239/239 240/240/240
f 241/241/241 242/242/242 243/243/243
f 244/244/244 245/245/245 246/246/246
f 247/247/247 248/248/248 249/249/249
f 250/250/250 251/251/251 252/252/252
f 253/253/253 254/254/254 255/255/255
f 256/256/256 257/257/257 258/258/258
f 259/259/259 260/260/260 261/261/261
f 262/262/262 263/263/263 264/264/264
f 265/265/265 266/266/266 267/267/267
f 268/268/268 269/269/269 270/270/270
f 271/271/271 272/272/272 273/273/273
f 274/274/274 275/275/275 276/276/276
f 277/277/277 278/278/278 279/279/279
f 280/280/280 281/281/281 282/282/282
f 283/283/283 284/284/284 285/285/285
f 286/286/286 287/287/287 288/288/288
o bay-canopy
usemtl plant-grey
v 3.449999952316284 2.029999998211861 3.200000023841858
v 3.449999952316284 2.029999998211861 -0.5000000238418578
v 3.449999952316284 1.8700000017881393 3.200000023841858
v 3.449999952316284 1.8700000017881393 -0.5000000238418578
v 1.3500000476837157 2.029999998211861 -0.5000000238418578
v 1.3500000476837157 2.029999998211861 3.200000023841858
v 1.3500000476837157 1.8700000017881393 -0.5000000238418578
v 1.3500000476837157 1.8700000017881393 3.200000023841858
v 1.3500000476837157 2.029999998211861 -0.5000000238418578
v 3.449999952316284 2.029999998211861 -0.5000000238418578
v 1.3500000476837157 2.029999998211861 3.200000023841858
v 3.449999952316284 2.029999998211861 3.200000023841858
v 1.3500000476837157 1.8700000017881393 3.200000023841858
v 3.449999952316284 1.8700000017881393 3.200000023841858
v 1.3500000476837157 1.8700000017881393 -0.5000000238418578
v 3.449999952316284 1.8700000017881393 -0.5000000238418578
v 1.3500000476837157 2.029999998211861 3.200000023841858
v 3.449999952316284 2.029999998211861 3.200000023841858
v 1.3500000476837157 1.8700000017881393 3.200000023841858
v 3.449999952316284 1.8700000017881393 3.200000023841858
v 3.449999952316284 2.029999998211861 -0.5000000238418578
v 1.3500000476837157 2.029999998211861 -0.5000000238418578
v 3.449999952316284 1.8700000017881393 -0.5000000238418578
v 1.3500000476837157 1.8700000017881393 -0.5000000238418578
vt 0 1
vt 1 1
vt 0 0
vt 1 0
vt 0 1
vt 1 1
vt 0 0
vt 1 0
vt 0 1
vt 1 1
vt 0 0
vt 1 0
vt 0 1
vt 1 1
vt 0 0
vt 1 0
vt 0 1
vt 1 1
vt 0 0
vt 1 0
vt 0 1
vt 1 1
vt 0 0
vt 1 0
vn 1 0 0
vn 1 0 0
vn 1 0 0
vn 1 0 0
vn -1 0 0
vn -1 0 0
vn -1 0 0
vn -1 0 0
vn 0 1 0
vn 0 1 0
vn 0 1 0
vn 0 1 0
vn 0 -1 0
vn 0 -1 0
vn 0 -1 0
vn 0 -1 0
vn 0 0 1
vn 0 0 1
vn 0 0 1
vn 0 0 1
vn 0 0 -1
vn 0 0 -1
vn 0 0 -1
vn 0 0 -1
f 289/289/289 291/291/291 290/290/290
f 291/291/291 292/292/292 290/290/290
f 293/293/293 295/295/295 294/294/294
f 295/295/295 296/296/296 294/294/294
f 297/297/297 299/299/299 298/298/298
f 299/299/299 300/300/300 298/298/298
f 301/301/301 303/303/303 302/302/302
f 303/303/303 304/304/304 302/302/302
f 305/305/305 307/307/307 306/306/306
f 307/307/307 308/308/308 306/306/306
f 309/309/309 311/311/311 310/310/310
f 311/311/311 312/312/312 310/310/310
o bay-doors
usemtl sodium-glow
v 3.349999988079071 1.1749999880790711 -0.3699999997019768
v 3.349999988079071 1.1749999880790711 -0.5100000002980232
v 3.349999988079071 0.025000011920928933 -0.3699999997019768
v 3.349999988079071 0.025000011920928933 -0.5100000002980232
v 1.4500000119209289 1.1749999880790711 -0.5100000002980232
v 1.4500000119209289 1.1749999880790711 -0.3699999997019768
v 1.4500000119209289 0.025000011920928933 -0.5100000002980232
v 1.4500000119209289 0.025000011920928933 -0.3699999997019768
v 1.4500000119209289 1.1749999880790711 -0.5100000002980232
v 3.349999988079071 1.1749999880790711 -0.5100000002980232
v 1.4500000119209289 1.1749999880790711 -0.3699999997019768
v 3.349999988079071 1.1749999880790711 -0.3699999997019768
v 1.4500000119209289 0.025000011920928933 -0.3699999997019768
v 3.349999988079071 0.025000011920928933 -0.3699999997019768
v 1.4500000119209289 0.025000011920928933 -0.5100000002980232
v 3.349999988079071 0.025000011920928933 -0.5100000002980232
v 1.4500000119209289 1.1749999880790711 -0.3699999997019768
v 3.349999988079071 1.1749999880790711 -0.3699999997019768
v 1.4500000119209289 0.025000011920928933 -0.3699999997019768
v 3.349999988079071 0.025000011920928933 -0.3699999997019768
v 3.349999988079071 1.1749999880790711 -0.5100000002980232
v 1.4500000119209289 1.1749999880790711 -0.5100000002980232
v 3.349999988079071 0.025000011920928933 -0.5100000002980232
v 1.4500000119209289 0.025000011920928933 -0.5100000002980232
vt 0 1
vt 1 1
vt 0 0
vt 1 0
vt 0 1
vt 1 1
vt 0 0
vt 1 0
vt 0 1
vt 1 1
vt 0 0
vt 1 0
vt 0 1
vt 1 1
vt 0 0
vt 1 0
vt 0 1
vt 1 1
vt 0 0
vt 1 0
vt 0 1
vt 1 1
vt 0 0
vt 1 0
vn 1 0 0
vn 1 0 0
vn 1 0 0
vn 1 0 0
vn -1 0 0
vn -1 0 0
vn -1 0 0
vn -1 0 0
vn 0 1 0
vn 0 1 0
vn 0 1 0
vn 0 1 0
vn 0 -1 0
vn 0 -1 0
vn 0 -1 0
vn 0 -1 0
vn 0 0 1
vn 0 0 1
vn 0 0 1
vn 0 0 1
vn 0 0 -1
vn 0 0 -1
vn 0 0 -1
vn 0 0 -1
f 313/313/313 315/315/315 314/314/314
f 315/315/315 316/316/316 314/314/314
f 317/317/317 319/319/319 318/318/318
f 319/319/319 320/320/320 318/318/318
f 321/321/321 323/323/323 322/322/322
f 323/323/323 324/324/324 322/322/322
f 325/325/325 327/327/327 326/326/326
f 327/327/327 328/328/328 326/326/326
f 329/329/329 331/331/331 330/330/330
f 331/331/331 332/332/332 330/330/330
f 333/333/333 335/335/335 334/334/334
f 335/335/335 336/336/336 334/334/334
o helipad
usemtl deck-asphalt
v 2.8500000476837157 3.679999998658895 -0.5499999523162842
v 2.8500000476837157 3.679999998658895 -3.450000047683716
v 2.8500000476837157 3.560000001341104 -0.5499999523162842
v 2.8500000476837157 3.560000001341104 -3.450000047683716
v -0.05000004768371591 3.679999998658895 -3.450000047683716
v -0.05000004768371591 3.679999998658895 -0.5499999523162842
v -0.05000004768371591 3.560000001341104 -3.450000047683716
v -0.05000004768371591 3.560000001341104 -0.5499999523162842
v -0.05000004768371591 3.679999998658895 -3.450000047683716
v 2.8500000476837157 3.679999998658895 -3.450000047683716
v -0.05000004768371591 3.679999998658895 -0.5499999523162842
v 2.8500000476837157 3.679999998658895 -0.5499999523162842
v -0.05000004768371591 3.560000001341104 -0.5499999523162842
v 2.8500000476837157 3.560000001341104 -0.5499999523162842
v -0.05000004768371591 3.560000001341104 -3.450000047683716
v 2.8500000476837157 3.560000001341104 -3.450000047683716
v -0.05000004768371591 3.679999998658895 -0.5499999523162842
v 2.8500000476837157 3.679999998658895 -0.5499999523162842
v -0.05000004768371591 3.560000001341104 -0.5499999523162842
v 2.8500000476837157 3.560000001341104 -0.5499999523162842
v 2.8500000476837157 3.679999998658895 -3.450000047683716
v -0.05000004768371591 3.679999998658895 -3.450000047683716
v 2.8500000476837157 3.560000001341104 -3.450000047683716
v -0.05000004768371591 3.560000001341104 -3.450000047683716
vt 0 1
vt 1 1
vt 0 0
vt 1 0
vt 0 1
vt 1 1
vt 0 0
vt 1 0
vt 0 1
vt 1 1
vt 0 0
vt 1 0
vt 0 1
vt 1 1
vt 0 0
vt 1 0
vt 0 1
vt 1 1
vt 0 0
vt 1 0
vt 0 1
vt 1 1
vt 0 0
vt 1 0
vn 1 0 0
vn 1 0 0
vn 1 0 0
vn 1 0 0
vn -1 0 0
vn -1 0 0
vn -1 0 0
vn -1 0 0
vn 0 1 0
vn 0 1 0
vn 0 1 0
vn 0 1 0
vn 0 -1 0
vn 0 -1 0
vn 0 -1 0
vn 0 -1 0
vn 0 0 1
vn 0 0 1
vn 0 0 1
vn 0 0 1
vn 0 0 -1
vn 0 0 -1
vn 0 0 -1
vn 0 0 -1
f 337/337/337 339/339/339 338/338/338
f 339/339/339 340/340/340 338/338/338
f 341/341/341 343/343/343 342/342/342
f 343/343/343 344/344/344 342/342/342
f 345/345/345 347/347/347 346/346/346
f 347/347/347 348/348/348 346/346/346
f 349/349/349 351/351/351 350/350/350
f 351/351/351 352/352/352 350/350/350
f 353/353/353 355/355/355 354/354/354
f 355/355/355 356/356/356 354/354/354
f 357/357/357 359/359/359 358/358/358
f 359/359/359 360/360/360 358/358/358
o helipad-mark
usemtl marking-white
v 0.9900000035762786 3.7199999993294477 -1.25
v 0.9900000035762786 3.660000000670552 -1.25
v 0.9900000035762786 3.7199999993294477 -2.75
v 0.9900000035762786 3.660000000670552 -1.25
v 0.9900000035762786 3.660000000670552 -2.75
v 0.9900000035762786 3.7199999993294477 -2.75
v 0.6499999999999999 3.7199999993294477 -2.75
v 0.6499999999999999 3.660000000670552 -2.75
v 0.6499999999999999 3.7199999993294477 -1.25
v 0.6499999999999999 3.660000000670552 -2.75
v 0.6499999999999999 3.660000000670552 -1.25
v 0.6499999999999999 3.7199999993294477 -1.25
v 0.6499999999999999 3.7199999993294477 -2.75
v 0.6499999999999999 3.7199999993294477 -1.25
v 0.9900000035762786 3.7199999993294477 -2.75
v 0.6499999999999999 3.7199999993294477 -1.25
v 0.9900000035762786 3.7199999993294477 -1.25
v 0.9900000035762786 3.7199999993294477 -2.75
v 0.6499999999999999 3.660000000670552 -1.25
v 0.6499999999999999 3.660000000670552 -2.75
v 0.9900000035762786 3.660000000670552 -1.25
v 0.6499999999999999 3.660000000670552 -2.75
v 0.9900000035762786 3.660000000670552 -2.75
v 0.9900000035762786 3.660000000670552 -1.25
v 0.6499999999999999 3.7199999993294477 -1.25
v 0.6499999999999999 3.660000000670552 -1.25
v 0.9900000035762786 3.7199999993294477 -1.25
v 0.6499999999999999 3.660000000670552 -1.25
v 0.9900000035762786 3.660000000670552 -1.25
v 0.9900000035762786 3.7199999993294477 -1.25
v 0.9900000035762786 3.7199999993294477 -2.75
v 0.9900000035762786 3.660000000670552 -2.75
v 0.6499999999999999 3.7199999993294477 -2.75
v 0.9900000035762786 3.660000000670552 -2.75
v 0.6499999999999999 3.660000000670552 -2.75
v 0.6499999999999999 3.7199999993294477 -2.75
v 2.15 3.7199999993294477 -1.25
v 2.15 3.660000000670552 -1.25
v 2.15 3.7199999993294477 -2.75
v 2.15 3.660000000670552 -1.25
v 2.15 3.660000000670552 -2.75
v 2.15 3.7199999993294477 -2.75
v 1.8099999964237212 3.7199999993294477 -2.75
v 1.8099999964237212 3.660000000670552 -2.75
v 1.8099999964237212 3.7199999993294477 -1.25
v 1.8099999964237212 3.660000000670552 -2.75
v 1.8099999964237212 3.660000000670552 -1.25
v 1.8099999964237212 3.7199999993294477 -1.25
v 1.8099999964237212 3.7199999993294477 -2.75
v 1.8099999964237212 3.7199999993294477 -1.25
v 2.15 3.7199999993294477 -2.75
v 1.8099999964237212 3.7199999993294477 -1.25
v 2.15 3.7199999993294477 -1.25
v 2.15 3.7199999993294477 -2.75
v 1.8099999964237212 3.660000000670552 -1.25
v 1.8099999964237212 3.660000000670552 -2.75
v 2.15 3.660000000670552 -1.25
v 1.8099999964237212 3.660000000670552 -2.75
v 2.15 3.660000000670552 -2.75
v 2.15 3.660000000670552 -1.25
v 1.8099999964237212 3.7199999993294477 -1.25
v 1.8099999964237212 3.660000000670552 -1.25
v 2.15 3.7199999993294477 -1.25
v 1.8099999964237212 3.660000000670552 -1.25
v 2.15 3.660000000670552 -1.25
v 2.15 3.7199999993294477 -1.25
v 2.15 3.7199999993294477 -2.75
v 2.15 3.660000000670552 -2.75
v 1.8099999964237212 3.7199999993294477 -2.75
v 2.15 3.660000000670552 -2.75
v 1.8099999964237212 3.660000000670552 -2.75
v 1.8099999964237212 3.7199999993294477 -2.75
v 1.8099999964237212 3.7199999993294477 -1.8299999982118607
v 1.8099999964237212 3.660000000670552 -1.8299999982118607
v 1.8099999964237212 3.7199999993294477 -2.1700000017881393
v 1.8099999964237212 3.660000000670552 -1.8299999982118607
v 1.8099999964237212 3.660000000670552 -2.1700000017881393
v 1.8099999964237212 3.7199999993294477 -2.1700000017881393
v 0.9900000035762786 3.7199999993294477 -2.1700000017881393
v 0.9900000035762786 3.660000000670552 -2.1700000017881393
v 0.9900000035762786 3.7199999993294477 -1.8299999982118607
v 0.9900000035762786 3.660000000670552 -2.1700000017881393
v 0.9900000035762786 3.660000000670552 -1.8299999982118607
v 0.9900000035762786 3.7199999993294477 -1.8299999982118607
v 0.9900000035762786 3.7199999993294477 -2.1700000017881393
v 0.9900000035762786 3.7199999993294477 -1.8299999982118607
v 1.8099999964237212 3.7199999993294477 -2.1700000017881393
v 0.9900000035762786 3.7199999993294477 -1.8299999982118607
v 1.8099999964237212 3.7199999993294477 -1.8299999982118607
v 1.8099999964237212 3.7199999993294477 -2.1700000017881393
v 0.9900000035762786 3.660000000670552 -1.8299999982118607
v 0.9900000035762786 3.660000000670552 -2.1700000017881393
v 1.8099999964237212 3.660000000670552 -1.8299999982118607
v 0.9900000035762786 3.660000000670552 -2.1700000017881393
v 1.8099999964237212 3.660000000670552 -2.1700000017881393
v 1.8099999964237212 3.660000000670552 -1.8299999982118607
v 0.9900000035762786 3.7199999993294477 -1.8299999982118607
v 0.9900000035762786 3.660000000670552 -1.8299999982118607
v 1.8099999964237212 3.7199999993294477 -1.8299999982118607
v 0.9900000035762786 3.660000000670552 -1.8299999982118607
v 1.8099999964237212 3.660000000670552 -1.8299999982118607
v 1.8099999964237212 3.7199999993294477 -1.8299999982118607
v 1.8099999964237212 3.7199999993294477 -2.1700000017881393
v 1.8099999964237212 3.660000000670552 -2.1700000017881393
v 0.9900000035762786 3.7199999993294477 -2.1700000017881393
v 1.8099999964237212 3.660000000670552 -2.1700000017881393
v 0.9900000035762786 3.660000000670552 -2.1700000017881393
v 0.9900000035762786 3.7199999993294477 -2.1700000017881393
vt 0 1
vt 0 0
vt 1 1
vt 0 0
vt 1 0
vt 1 1
vt 0 1
vt 0 0
vt 1 1
vt 0 0
vt 1 0
vt 1 1
vt 0 1
vt 0 0
vt 1 1
vt 0 0
vt 1 0
vt 1 1
vt 0 1
vt 0 0
vt 1 1
vt 0 0
vt 1 0
vt 1 1
vt 0 1
vt 0 0
vt 1 1
vt 0 0
vt 1 0
vt 1 1
vt 0 1
vt 0 0
vt 1 1
vt 0 0
vt 1 0
vt 1 1
vt 0 1
vt 0 0
vt 1 1
vt 0 0
vt 1 0
vt 1 1
vt 0 1
vt 0 0
vt 1 1
vt 0 0
vt 1 0
vt 1 1
vt 0 1
vt 0 0
vt 1 1
vt 0 0
vt 1 0
vt 1 1
vt 0 1
vt 0 0
vt 1 1
vt 0 0
vt 1 0
vt 1 1
vt 0 1
vt 0 0
vt 1 1
vt 0 0
vt 1 0
vt 1 1
vt 0 1
vt 0 0
vt 1 1
vt 0 0
vt 1 0
vt 1 1
vt 0 1
vt 0 0
vt 1 1
vt 0 0
vt 1 0
vt 1 1
vt 0 1
vt 0 0
vt 1 1
vt 0 0
vt 1 0
vt 1 1
vt 0 1
vt 0 0
vt 1 1
vt 0 0
vt 1 0
vt 1 1
vt 0 1
vt 0 0
vt 1 1
vt 0 0
vt 1 0
vt 1 1
vt 0 1
vt 0 0
vt 1 1
vt 0 0
vt 1 0
vt 1 1
vt 0 1
vt 0 0
vt 1 1
vt 0 0
vt 1 0
vt 1 1
vn 1 0 0
vn 1 0 0
vn 1 0 0
vn 1 0 0
vn 1 0 0
vn 1 0 0
vn -1 0 0
vn -1 0 0
vn -1 0 0
vn -1 0 0
vn -1 0 0
vn -1 0 0
vn 0 1 0
vn 0 1 0
vn 0 1 0
vn 0 1 0
vn 0 1 0
vn 0 1 0
vn 0 -1 0
vn 0 -1 0
vn 0 -1 0
vn 0 -1 0
vn 0 -1 0
vn 0 -1 0
vn 0 0 1
vn 0 0 1
vn 0 0 1
vn 0 0 1
vn 0 0 1
vn 0 0 1
vn 0 0 -1
vn 0 0 -1
vn 0 0 -1
vn 0 0 -1
vn 0 0 -1
vn 0 0 -1
vn 1 0 0
vn 1 0 0
vn 1 0 0
vn 1 0 0
vn 1 0 0
vn 1 0 0
vn -1 0 0
vn -1 0 0
vn -1 0 0
vn -1 0 0
vn -1 0 0
vn -1 0 0
vn 0 1 0
vn 0 1 0
vn 0 1 0
vn 0 1 0
vn 0 1 0
vn 0 1 0
vn 0 -1 0
vn 0 -1 0
vn 0 -1 0
vn 0 -1 0
vn 0 -1 0
vn 0 -1 0
vn 0 0 1
vn 0 0 1
vn 0 0 1
vn 0 0 1
vn 0 0 1
vn 0 0 1
vn 0 0 -1
vn 0 0 -1
vn 0 0 -1
vn 0 0 -1
vn 0 0 -1
vn 0 0 -1
vn 1 0 0
vn 1 0 0
vn 1 0 0
vn 1 0 0
vn 1 0 0
vn 1 0 0
vn -1 0 0
vn -1 0 0
vn -1 0 0
vn -1 0 0
vn -1 0 0
vn -1 0 0
vn 0 1 0
vn 0 1 0
vn 0 1 0
vn 0 1 0
vn 0 1 0
vn 0 1 0
vn 0 -1 0
vn 0 -1 0
vn 0 -1 0
vn 0 -1 0
vn 0 -1 0
vn 0 -1 0
vn 0 0 1
vn 0 0 1
vn 0 0 1
vn 0 0 1
vn 0 0 1
vn 0 0 1
vn 0 0 -1
vn 0 0 -1
vn 0 0 -1
vn 0 0 -1
vn 0 0 -1
vn 0 0 -1
f 361/361/361 362/362/362 363/363/363
f 364/364/364 365/365/365 366/366/366
f 367/367/367 368/368/368 369/369/369
f 370/370/370 371/371/371 372/372/372
f 373/373/373 374/374/374 375/375/375
f 376/376/376 377/377/377 378/378/378
f 379/379/379 380/380/380 381/381/381
f 382/382/382 383/383/383 384/384/384
f 385/385/385 386/386/386 387/387/387
f 388/388/388 389/389/389 390/390/390
f 391/391/391 392/392/392 393/393/393
f 394/394/394 395/395/395 396/396/396
f 397/397/397 398/398/398 399/399/399
f 400/400/400 401/401/401 402/402/402
f 403/403/403 404/404/404 405/405/405
f 406/406/406 407/407/407 408/408/408
f 409/409/409 410/410/410 411/411/411
f 412/412/412 413/413/413 414/414/414
f 415/415/415 416/416/416 417/417/417
f 418/418/418 419/419/419 420/420/420
f 421/421/421 422/422/422 423/423/423
f 424/424/424 425/425/425 426/426/426
f 427/427/427 428/428/428 429/429/429
f 430/430/430 431/431/431 432/432/432
f 433/433/433 434/434/434 435/435/435
f 436/436/436 437/437/437 438/438/438
f 439/439/439 440/440/440 441/441/441
f 442/442/442 443/443/443 444/444/444
f 445/445/445 446/446/446 447/447/447
f 448/448/448 449/449/449 450/450/450
f 451/451/451 452/452/452 453/453/453
f 454/454/454 455/455/455 456/456/456
f 457/457/457 458/458/458 459/459/459
f 460/460/460 461/461/461 462/462/462
f 463/463/463 464/464/464 465/465/465
f 466/466/466 467/467/467 468/468/468
o roof-plant
usemtl plant-grey
v -1.75 4.210000004768371 -2.450000047683716
v -1.75 3.589999997615814 -2.450000047683716
v -1.75 4.210000004768371 -3.3499999046325684
v -1.75 3.589999997615814 -2.450000047683716
v -1.75 3.589999997615814 -3.3499999046325684
v -1.75 4.210000004768371 -3.3499999046325684
v -3.25 4.210000004768371 -3.3499999046325684
v -3.25 3.589999997615814 -3.3499999046325684
v -3.25 4.210000004768371 -2.450000047683716
v -3.25 3.589999997615814 -3.3499999046325684
v -3.25 3.589999997615814 -2.450000047683716
v -3.25 4.210000004768371 -2.450000047683716
v -3.25 4.210000004768371 -3.3499999046325684
v -3.25 4.210000004768371 -2.450000047683716
v -1.75 4.210000004768371 -3.3499999046325684
v -3.25 4.210000004768371 -2.450000047683716
v -1.75 4.210000004768371 -2.450000047683716
v -1.75 4.210000004768371 -3.3499999046325684
v -3.25 3.589999997615814 -2.450000047683716
v -3.25 3.589999997615814 -3.3499999046325684
v -1.75 3.589999997615814 -2.450000047683716
v -3.25 3.589999997615814 -3.3499999046325684
v -1.75 3.589999997615814 -3.3499999046325684
v -1.75 3.589999997615814 -2.450000047683716
v -3.25 4.210000004768371 -2.450000047683716
v -3.25 3.589999997615814 -2.450000047683716
v -1.75 4.210000004768371 -2.450000047683716
v -3.25 3.589999997615814 -2.450000047683716
v -1.75 3.589999997615814 -2.450000047683716
v -1.75 4.210000004768371 -2.450000047683716
v -1.75 4.210000004768371 -3.3499999046325684
v -1.75 3.589999997615814 -3.3499999046325684
v -3.25 4.210000004768371 -3.3499999046325684
v -1.75 3.589999997615814 -3.3499999046325684
v -3.25 3.589999997615814 -3.3499999046325684
v -3.25 4.210000004768371 -3.3499999046325684
v -2.049999952316284 4.210000004768371 -1.149999976158142
v -2.049999952316284 3.589999997615814 -1.149999976158142
v -2.049999952316284 4.210000004768371 -1.850000023841858
v -2.049999952316284 3.589999997615814 -1.149999976158142
v -2.049999952316284 3.589999997615814 -1.850000023841858
v -2.049999952316284 4.210000004768371 -1.850000023841858
v -2.950000047683716 4.210000004768371 -1.850000023841858
v -2.950000047683716 3.589999997615814 -1.850000023841858
v -2.950000047683716 4.210000004768371 -1.149999976158142
v -2.950000047683716 3.589999997615814 -1.850000023841858
v -2.950000047683716 3.589999997615814 -1.149999976158142
v -2.950000047683716 4.210000004768371 -1.149999976158142
v -2.950000047683716 4.210000004768371 -1.850000023841858
v -2.950000047683716 4.210000004768371 -1.149999976158142
v -2.049999952316284 4.210000004768371 -1.850000023841858
v -2.950000047683716 4.210000004768371 -1.149999976158142
v -2.049999952316284 4.210000004768371 -1.149999976158142
v -2.049999952316284 4.210000004768371 -1.850000023841858
v -2.950000047683716 3.589999997615814 -1.149999976158142
v -2.950000047683716 3.589999997615814 -1.850000023841858
v -2.049999952316284 3.589999997615814 -1.149999976158142
v -2.950000047683716 3.589999997615814 -1.850000023841858
v -2.049999952316284 3.589999997615814 -1.850000023841858
v -2.049999952316284 3.589999997615814 -1.149999976158142
v -2.950000047683716 4.210000004768371 -1.149999976158142
v -2.950000047683716 3.589999997615814 -1.149999976158142
v -2.049999952316284 4.210000004768371 -1.149999976158142
v -2.950000047683716 3.589999997615814 -1.149999976158142
v -2.049999952316284 3.589999997615814 -1.149999976158142
v -2.049999952316284 4.210000004768371 -1.149999976158142
v -2.049999952316284 4.210000004768371 -1.850000023841858
v -2.049999952316284 3.589999997615814 -1.850000023841858
v -2.950000047683716 4.210000004768371 -1.850000023841858
v -2.049999952316284 3.589999997615814 -1.850000023841858
v -2.950000047683716 3.589999997615814 -1.850000023841858
v -2.950000047683716 4.210000004768371 -1.850000023841858
v -0.3499999940395355 4.210000004768371 -1.899999976158142
v -0.3499999940395355 3.589999997615814 -1.899999976158142
v -0.3499999940395355 4.210000004768371 -3.299999952316284
v -0.3499999940395355 3.589999997615814 -1.899999976158142
v -0.3499999940395355 3.589999997615814 -3.299999952316284
v -0.3499999940395355 4.210000004768371 -3.299999952316284
v -1.0499999523162842 4.210000004768371 -3.299999952316284
v -1.0499999523162842 3.589999997615814 -3.299999952316284
v -1.0499999523162842 4.210000004768371 -1.899999976158142
v -1.0499999523162842 3.589999997615814 -3.299999952316284
v -1.0499999523162842 3.589999997615814 -1.899999976158142
v -1.0499999523162842 4.210000004768371 -1.899999976158142
v -1.0499999523162842 4.210000004768371 -3.299999952316284
v -1.0499999523162842 4.210000004768371 -1.899999976158142
v -0.3499999940395355 4.210000004768371 -3.299999952316284
v -1.0499999523162842 4.210000004768371 -1.899999976158142
v -0.3499999940395355 4.210000004768371 -1.899999976158142
v -0.3499999940395355 4.210000004768371 -3.299999952316284
v -1.0499999523162842 3.589999997615814 -1.899999976158142
v -1.0499999523162842 3.589999997615814 -3.299999952316284
v -0.3499999940395355 3.589999997615814 -1.899999976158142
v -1.0499999523162842 3.589999997615814 -3.299999952316284
v -0.3499999940395355 3.589999997615814 -3.299999952316284
v -0.3499999940395355 3.589999997615814 -1.899999976158142
v -1.0499999523162842 4.210000004768371 -1.899999976158142
v -1.0499999523162842 3.589999997615814 -1.899999976158142
v -0.3499999940395355 4.210000004768371 -1.899999976158142
v -1.0499999523162842 3.589999997615814 -1.899999976158142
v -0.3499999940395355 3.589999997615814 -1.899999976158142
v -0.3499999940395355 4.210000004768371 -1.899999976158142
v -0.3499999940395355 4.210000004768371 -3.299999952316284
v -0.3499999940395355 3.589999997615814 -3.299999952316284
v -1.0499999523162842 4.210000004768371 -3.299999952316284
v -0.3499999940395355 3.589999997615814 -3.299999952316284
v -1.0499999523162842 3.589999997615814 -3.299999952316284
v -1.0499999523162842 4.210000004768371 -3.299999952316284
vt 0 1
vt 0 0
vt 1 1
vt 0 0
vt 1 0
vt 1 1
vt 0 1
vt 0 0
vt 1 1
vt 0 0
vt 1 0
vt 1 1
vt 0 1
vt 0 0
vt 1 1
vt 0 0
vt 1 0
vt 1 1
vt 0 1
vt 0 0
vt 1 1
vt 0 0
vt 1 0
vt 1 1
vt 0 1
vt 0 0
vt 1 1
vt 0 0
vt 1 0
vt 1 1
vt 0 1
vt 0 0
vt 1 1
vt 0 0
vt 1 0
vt 1 1
vt 0 1
vt 0 0
vt 1 1
vt 0 0
vt 1 0
vt 1 1
vt 0 1
vt 0 0
vt 1 1
vt 0 0
vt 1 0
vt 1 1
vt 0 1
vt 0 0
vt 1 1
vt 0 0
vt 1 0
vt 1 1
vt 0 1
vt 0 0
vt 1 1
vt 0 0
vt 1 0
vt 1 1
vt 0 1
vt 0 0
vt 1 1
vt 0 0
vt 1 0
vt 1 1
vt 0 1
vt 0 0
vt 1 1
vt 0 0
vt 1 0
vt 1 1
vt 0 1
vt 0 0
vt 1 1
vt 0 0
vt 1 0
vt 1 1
vt 0 1
vt 0 0
vt 1 1
vt 0 0
vt 1 0
vt 1 1
vt 0 1
vt 0 0
vt 1 1
vt 0 0
vt 1 0
vt 1 1
vt 0 1
vt 0 0
vt 1 1
vt 0 0
vt 1 0
vt 1 1
vt 0 1
vt 0 0
vt 1 1
vt 0 0
vt 1 0
vt 1 1
vt 0 1
vt 0 0
vt 1 1
vt 0 0
vt 1 0
vt 1 1
vn 1 0 0
vn 1 0 0
vn 1 0 0
vn 1 0 0
vn 1 0 0
vn 1 0 0
vn -1 0 0
vn -1 0 0
vn -1 0 0
vn -1 0 0
vn -1 0 0
vn -1 0 0
vn 0 1 0
vn 0 1 0
vn 0 1 0
vn 0 1 0
vn 0 1 0
vn 0 1 0
vn 0 -1 0
vn 0 -1 0
vn 0 -1 0
vn 0 -1 0
vn 0 -1 0
vn 0 -1 0
vn 0 0 1
vn 0 0 1
vn 0 0 1
vn 0 0 1
vn 0 0 1
vn 0 0 1
vn 0 0 -1
vn 0 0 -1
vn 0 0 -1
vn 0 0 -1
vn 0 0 -1
vn 0 0 -1
vn 1 0 0
vn 1 0 0
vn 1 0 0
vn 1 0 0
vn 1 0 0
vn 1 0 0
vn -1 0 0
vn -1 0 0
vn -1 0 0
vn -1 0 0
vn -1 0 0
vn -1 0 0
vn 0 1 0
vn 0 1 0
vn 0 1 0
vn 0 1 0
vn 0 1 0
vn 0 1 0
vn 0 -1 0
vn 0 -1 0
vn 0 -1 0
vn 0 -1 0
vn 0 -1 0
vn 0 -1 0
vn 0 0 1
vn 0 0 1
vn 0 0 1
vn 0 0 1
vn 0 0 1
vn 0 0 1
vn 0 0 -1
vn 0 0 -1
vn 0 0 -1
vn 0 0 -1
vn 0 0 -1
vn 0 0 -1
vn 1 0 0
vn 1 0 0
vn 1 0 0
vn 1 0 0
vn 1 0 0
vn 1 0 0
vn -1 0 0
vn -1 0 0
vn -1 0 0
vn -1 0 0
vn -1 0 0
vn -1 0 0
vn 0 1 0
vn 0 1 0
vn 0 1 0
vn 0 1 0
vn 0 1 0
vn 0 1 0
vn 0 -1 0
vn 0 -1 0
vn 0 -1 0
vn 0 -1 0
vn 0 -1 0
vn 0 -1 0
vn 0 0 1
vn 0 0 1
vn 0 0 1
vn 0 0 1
vn 0 0 1
vn 0 0 1
vn 0 0 -1
vn 0 0 -1
vn 0 0 -1
vn 0 0 -1
vn 0 0 -1
vn 0 0 -1
f 469/469/469 470/470/470 471/471/471
f 472/472/472 473/473/473 474/474/474
f 475/475/475 476/476/476 477/477/477
f 478/478/478 479/479/479 480/480/480
f 481/481/481 482/482/482 483/483/483
f 484/484/484 485/485/485 486/486/486
f 487/487/487 488/488/488 489/489/489
f 490/490/490 491/491/491 492/492/492
f 493/493/493 494/494/494 495/495/495
f 496/496/496 497/497/497 498/498/498
f 499/499/499 500/500/500 501/501/501
f 502/502/502 503/503/503 504/504/504
f 505/505/505 506/506/506 507/507/507
f 508/508/508 509/509/509 510/510/510
f 511/511/511 512/512/512 513/513/513
f 514/514/514 515/515/515 516/516/516
f 517/517/517 518/518/518 519/519/519
f 520/520/520 521/521/521 522/522/522
f 523/523/523 524/524/524 525/525/525
f 526/526/526 527/527/527 528/528/528
f 529/529/529 530/530/530 531/531/531
f 532/532/532 533/533/533 534/534/534
f 535/535/535 536/536/536 537/537/537
f 538/538/538 539/539/539 540/540/540
f 541/541/541 542/542/542 543/543/543
f 544/544/544 545/545/545 546/546/546
f 547/547/547 548/548/548 549/549/549
f 550/550/550 551/551/551 552/552/552
f 553/553/553 554/554/554 555/555/555
f 556/556/556 557/557/557 558/558/558
f 559/559/559 560/560/560 561/561/561
f 562/562/562 563/563/563 564/564/564
f 565/565/565 566/566/566 567/567/567
f 568/568/568 569/569/569 570/570/570
f 571/571/571 572/572/572 573/573/573
f 574/574/574 575/575/575 576/576/576
o cross
usemtl emergency-red
v 0.09999995231628422 1.9450000001490115 1.8300000071525573
v 0.09999995231628422 1.8749999998509883 1.8300000071525573
v 0.09999995231628422 1.9450000001490115 0.9699999928474425
v 0.09999995231628422 1.8749999998509883 1.8300000071525573
v 0.09999995231628422 1.8749999998509883 0.9699999928474425
v 0.09999995231628422 1.9450000001490115 0.9699999928474425
v -2.4999999523162844 1.9450000001490115 0.9699999928474425
v -2.4999999523162844 1.8749999998509883 0.9699999928474425
v -2.4999999523162844 1.9450000001490115 1.8300000071525573
v -2.4999999523162844 1.8749999998509883 0.9699999928474425
v -2.4999999523162844 1.8749999998509883 1.8300000071525573
v -2.4999999523162844 1.9450000001490115 1.8300000071525573
v -2.4999999523162844 1.9450000001490115 0.9699999928474425
v -2.4999999523162844 1.9450000001490115 1.8300000071525573
v 0.09999995231628422 1.9450000001490115 0.9699999928474425
v -2.4999999523162844 1.9450000001490115 1.8300000071525573
v 0.09999995231628422 1.9450000001490115 1.8300000071525573
v 0.09999995231628422 1.9450000001490115 0.9699999928474425
v -2.4999999523162844 1.8749999998509883 1.8300000071525573
v -2.4999999523162844 1.8749999998509883 0.9699999928474425
v 0.09999995231628422 1.8749999998509883 1.8300000071525573
v -2.4999999523162844 1.8749999998509883 0.9699999928474425
v 0.09999995231628422 1.8749999998509883 0.9699999928474425
v 0.09999995231628422 1.8749999998509883 1.8300000071525573
v -2.4999999523162844 1.9450000001490115 1.8300000071525573
v -2.4999999523162844 1.8749999998509883 1.8300000071525573
v 0.09999995231628422 1.9450000001490115 1.8300000071525573
v -2.4999999523162844 1.8749999998509883 1.8300000071525573
v 0.09999995231628422 1.8749999998509883 1.8300000071525573
v 0.09999995231628422 1.9450000001490115 1.8300000071525573
v 0.09999995231628422 1.9450000001490115 0.9699999928474425
v 0.09999995231628422 1.8749999998509883 0.9699999928474425
v -2.4999999523162844 1.9450000001490115 0.9699999928474425
v 0.09999995231628422 1.8749999998509883 0.9699999928474425
v -2.4999999523162844 1.8749999998509883 0.9699999928474425
v -2.4999999523162844 1.9450000001490115 0.9699999928474425
v -0.7699999928474426 1.9450000001490115 2.699999952316284
v -0.7699999928474426 1.8749999998509883 2.699999952316284
v -0.7699999928474426 1.9450000001490115 0.10000004768371573
v -0.7699999928474426 1.8749999998509883 2.699999952316284
v -0.7699999928474426 1.8749999998509883 0.10000004768371573
v -0.7699999928474426 1.9450000001490115 0.10000004768371573
v -1.6300000071525573 1.9450000001490115 0.10000004768371573
v -1.6300000071525573 1.8749999998509883 0.10000004768371573
v -1.6300000071525573 1.9450000001490115 2.699999952316284
v -1.6300000071525573 1.8749999998509883 0.10000004768371573
v -1.6300000071525573 1.8749999998509883 2.699999952316284
v -1.6300000071525573 1.9450000001490115 2.699999952316284
v -1.6300000071525573 1.9450000001490115 0.10000004768371573
v -1.6300000071525573 1.9450000001490115 2.699999952316284
v -0.7699999928474426 1.9450000001490115 0.10000004768371573
v -1.6300000071525573 1.9450000001490115 2.699999952316284
v -0.7699999928474426 1.9450000001490115 2.699999952316284
v -0.7699999928474426 1.9450000001490115 0.10000004768371573
v -1.6300000071525573 1.8749999998509883 2.699999952316284
v -1.6300000071525573 1.8749999998509883 0.10000004768371573
v -0.7699999928474426 1.8749999998509883 2.699999952316284
v -1.6300000071525573 1.8749999998509883 0.10000004768371573
v -0.7699999928474426 1.8749999998509883 0.10000004768371573
v -0.7699999928474426 1.8749999998509883 2.699999952316284
v -1.6300000071525573 1.9450000001490115 2.699999952316284
v -1.6300000071525573 1.8749999998509883 2.699999952316284
v -0.7699999928474426 1.9450000001490115 2.699999952316284
v -1.6300000071525573 1.8749999998509883 2.699999952316284
v -0.7699999928474426 1.8749999998509883 2.699999952316284
v -0.7699999928474426 1.9450000001490115 2.699999952316284
v -0.7699999928474426 1.9450000001490115 0.10000004768371573
v -0.7699999928474426 1.8749999998509883 0.10000004768371573
v -1.6300000071525573 1.9450000001490115 0.10000004768371573
v -0.7699999928474426 1.8749999998509883 0.10000004768371573
v -1.6300000071525573 1.8749999998509883 0.10000004768371573
v -1.6300000071525573 1.9450000001490115 0.10000004768371573
vt 0 1
vt 0 0
vt 1 1
vt 0 0
vt 1 0
vt 1 1
vt 0 1
vt 0 0
vt 1 1
vt 0 0
vt 1 0
vt 1 1
vt 0 1
vt 0 0
vt 1 1
vt 0 0
vt 1 0
vt 1 1
vt 0 1
vt 0 0
vt 1 1
vt 0 0
vt 1 0
vt 1 1
vt 0 1
vt 0 0
vt 1 1
vt 0 0
vt 1 0
vt 1 1
vt 0 1
vt 0 0
vt 1 1
vt 0 0
vt 1 0
vt 1 1
vt 0 1
vt 0 0
vt 1 1
vt 0 0
vt 1 0
vt 1 1
vt 0 1
vt 0 0
vt 1 1
vt 0 0
vt 1 0
vt 1 1
vt 0 1
vt 0 0
vt 1 1
vt 0 0
vt 1 0
vt 1 1
vt 0 1
vt 0 0
vt 1 1
vt 0 0
vt 1 0
vt 1 1
vt 0 1
vt 0 0
vt 1 1
vt 0 0
vt 1 0
vt 1 1
vt 0 1
vt 0 0
vt 1 1
vt 0 0
vt 1 0
vt 1 1
vn 1 0 0
vn 1 0 0
vn 1 0 0
vn 1 0 0
vn 1 0 0
vn 1 0 0
vn -1 0 0
vn -1 0 0
vn -1 0 0
vn -1 0 0
vn -1 0 0
vn -1 0 0
vn 0 1 0
vn 0 1 0
vn 0 1 0
vn 0 1 0
vn 0 1 0
vn 0 1 0
vn 0 -1 0
vn 0 -1 0
vn 0 -1 0
vn 0 -1 0
vn 0 -1 0
vn 0 -1 0
vn 0 0 1
vn 0 0 1
vn 0 0 1
vn 0 0 1
vn 0 0 1
vn 0 0 1
vn 0 0 -1
vn 0 0 -1
vn 0 0 -1
vn 0 0 -1
vn 0 0 -1
vn 0 0 -1
vn 1 0 0
vn 1 0 0
vn 1 0 0
vn 1 0 0
vn 1 0 0
vn 1 0 0
vn -1 0 0
vn -1 0 0
vn -1 0 0
vn -1 0 0
vn -1 0 0
vn -1 0 0
vn 0 1 0
vn 0 1 0
vn 0 1 0
vn 0 1 0
vn 0 1 0
vn 0 1 0
vn 0 -1 0
vn 0 -1 0
vn 0 -1 0
vn 0 -1 0
vn 0 -1 0
vn 0 -1 0
vn 0 0 1
vn 0 0 1
vn 0 0 1
vn 0 0 1
vn 0 0 1
vn 0 0 1
vn 0 0 -1
vn 0 0 -1
vn 0 0 -1
vn 0 0 -1
vn 0 0 -1
vn 0 0 -1
f 577/577/577 578/578/578 579/579/579
f 580/580/580 581/581/581 582/582/582
f 583/583/583 584/584/584 585/585/585
f 586/586/586 587/587/587 588/588/588
f 589/589/589 590/590/590 591/591/591
f 592/592/592 593/593/593 594/594/594
f 595/595/595 596/596/596 597/597/597
f 598/598/598 599/599/599 600/600/600
f 601/601/601 602/602/602 603/603/603
f 604/604/604 605/605/605 606/606/606
f 607/607/607 608/608/608 609/609/609
f 610/610/610 611/611/611 612/612/612
f 613/613/613 614/614/614 615/615/615
f 616/616/616 617/617/617 618/618/618
f 619/619/619 620/620/620 621/621/621
f 622/622/622 623/623/623 624/624/624
f 625/625/625 626/626/626 627/627/627
f 628/628/628 629/629/629 630/630/630
f 631/631/631 632/632/632 633/633/633
f 634/634/634 635/635/635 636/636/636
f 637/637/637 638/638/638 639/639/639
f 640/640/640 641/641/641 642/642/642
f 643/643/643 644/644/644 645/645/645
f 646/646/646 647/647/647 648/648/648
