mtllib policestation.mtl
o station
usemtl station-navy
v 1.5999999523162842 2.599999952316284 3.5
v 1.5999999523162842 2.599999952316284 -0.5
v 1.5999999523162842 4.768371586472142e-8 3.5
v 1.5999999523162842 4.768371586472142e-8 -0.5
v -3.4999999523162844 2.599999952316284 -0.5
v -3.4999999523162844 2.599999952316284 3.5
v -3.4999999523162844 4.768371586472142e-8 -0.5
v -3.4999999523162844 4.768371586472142e-8 3.5
v -3.4999999523162844 2.599999952316284 -0.5
v 1.5999999523162842 2.599999952316284 -0.5
v -3.4999999523162844 2.599999952316284 3.5
v 1.5999999523162842 2.599999952316284 3.5
v -3.4999999523162844 4.768371586472142e-8 3.5
v 1.5999999523162842 4.768371586472142e-8 3.5
v -3.4999999523162844 4.768371586472142e-8 -0.5
v 1.5999999523162842 4.768371586472142e-8 -0.5
v -3.4999999523162844 2.599999952316284 3.5
v 1.5999999523162842 2.599999952316284 3.5
v -3.4999999523162844 4.768371586472142e-8 3.5
v 1.5999999523162842 4.768371586472142e-8 3.5
v 1.5999999523162842 2.599999952316284 -0.5
v -3.4999999523162844 2.599999952316284 -0.5
v 1.5999999523162842 4.768371586472142e-8 -0.5
v -3.4999999523162844 4.768371586472142e-8 -0.5
vt 0 1
vt 1 1
vt 0 0
vt 1 0
vt 0 1
vt 1 1
vt 0 0
vt 1 0
vt 0 1
vt 1 1
vt 0 0
vt 1 0
vt 0 1
vt 1 1
vt 0 0
vt 1 0
vt 0 1
vt 1 1
vt 0 0
vt 1 0
vt 0 1
vt 1 1
vt 0 0
vt 1 0
vn 1 0 0
vn 1 0 0
vn 1 0 0
vn 1 0 0
vn -1 0 0
vn -1 0 0
vn -1 0 0
vn -1 0 0
vn 0 1 0
vn 0 1 0
vn 0 1 0
vn 0 1 0
vn 0 -1 0
vn 0 -1 0
vn 0 -1 0
vn 0 -1 0
vn 0 0 1
vn 0 0 1
vn 0 0 1
vn 0 0 1
vn 0 0 -1
vn 0 0 -1
vn 0 0 -1
vn 0 0 -1
f 1/1/1 3/3/3 2/2/2
f 3/3/3 4/4/4 2/2/2
f 5/5/5 7/7/7 6/6/6
f 7/7/7 8/8/8 6/6/6
f 9/9/9 11/11/11 10/10/10
f 11/11/11 12/12/12 10/10/10
f 13/13/13 15/15/15 14/14/14
f 15/15/15 16/16/16 14/14/14
f 17/17/17 19/19/19 18/18/18
f 19/19/19 20/20/20 18/18/18
f 21/21/21 23/23/23 22/22/22
f 23/23/23 24/24/24 22/22/22
o station-banding
usemtl band-stone
v 1.6299999237060547 1.0800000429153442 3.5299999713897705
v 1.6299999237060547 0.9200000166893005 3.5299999713897705
v 1.6299999237060547 1.0800000429153442 -0.5299999713897705
v 1.6299999237060547 0.9200000166893005 3.5299999713897705
v 1.6299999237060547 0.9200000166893005 -0.5299999713897705
v 1.6299999237060547 1.0800000429153442 -0.5299999713897705
v -3.529999923706055 1.0800000429153442 -0.5299999713897705
v -3.529999923706055 0.9200000166893005 -0.5299999713897705
v -3.529999923706055 1.0800000429153442 3.5299999713897705
v -3.529999923706055 0.9200000166893005 -0.5299999713897705
v -3.529999923706055 0.9200000166893005 3.5299999713897705
v -3.529999923706055 1.0800000429153442 3.5299999713897705
v -3.529999923706055 1.0800000429153442 -0.5299999713897705
v -3.529999923706055 1.0800000429153442 3.5299999713897705
v 1.6299999237060547 1.0800000429153442 -0.5299999713897705
v -3.529999923706055 1.0800000429153442 3.5299999713897705
v 1.6299999237060547 1.0800000429153442 3.5299999713897705
v 1.6299999237060547 1.0800000429153442 -0.5299999713897705
v -3.529999923706055 0.9200000166893005 3.5299999713897705
v -3.529999923706055 0.9200000166893005 -0.5299999713897705
v 1.6299999237060547 0.9200000166893005 3.5299999713897705
v -3.529999923706055 0.9200000166893005 -0.5299999713897705
v 1.6299999237060547 0.9200000166893005 -0.5299999713897705
v 1.6299999237060547 0.9200000166893005 3.5299999713897705
v -3.529999923706055 1.0800000429153442 3.5299999713897705
v -3.529999923706055 0.9200000166893005 3.5299999713897705
v 1.6299999237060547 1.0800000429153442 3.5299999713897705
v -3.529999923706055 0.9200000166893005 3.5299999713897705
v 1.6299999237060547 0.9200000166893005 3.5299999713897705
v 1.6299999237060547 1.0800000429153442 3.5299999713897705
v 1.6299999237060547 1.0800000429153442 -0.5299999713897705
v 1.6299999237060547 0.9200000166893005 -0.5299999713897705
v -3.529999923706055 1.0800000429153442 -0.5299999713897705
v 1.6299999237060547 0.9200000166893005 -0.5299999713897705
v -3.529999923706055 0.9200000166893005 -0.5299999713897705
v -3.529999923706055 1.0800000429153442 -0.5299999713897705
v 1.6299999237060547 2.0799999237060547 3.5299999713897705
v 1.6299999237060547 1.9199999570846558 3.5299999713897705
v 1.6299999237060547 2.0799999237060547 -0.5299999713897705
v 1.6299999237060547 1.9199999570846558 3.5299999713897705
v 1.6299999237060547 1.9199999570846558 -0.5299999713897705
v 1.6299999237060547 2.0799999237060547 -0.5299999713897705
v -3.529999923706055 2.0799999237060547 -0.5299999713897705
v -3.529999923706055 1.9199999570846558 -0.5299999713897705
v -3.529999923706055 2.0799999237060547 3.5299999713897705
v -3.529999923706055 1.9199999570846558 -0.5299999713897705
v -3.529999923706055 1.9199999570846558 3.5299999713897705
v -3.529999923706055 2.0799999237060547 3.5299999713897705
v -3.529999923706055 2.0799999237060547 -0.5299999713897705
v -3.529999923706055 2.0799999237060547 3.5299999713897705
v 1.6299999237060547 2.0799999237060547 -0.5299999713897705
v -3.529999923706055 2.0799999237060547 3.5299999713897705
v 1.6299999237060547 2.0799999237060547 3.5299999713897705
v 1.6299999237060547 2.0799999237060547 -0.5299999713897705
v -3.529999923706055 1.9199999570846558 3.5299999713897705
v -3.529999923706055 1.9199999570846558 -0.5299999713897705
v 1.6299999237060547 1.9199999570846558 3.5299999713897705
v -3.529999923706055 1.9199999570846558 -0.5299999713897705
v 1.6299999237060547 1.9199999570846558 -0.5299999713897705
v 1.6299999237060547 1.9199999570846558 3.5299999713897705
v -3.529999923706055 2.0799999237060547 3.5299999713897705
v -3.529999923706055 1.9199999570846558 3.5299999713897705
v 1.6299999237060547 2.0799999237060547 3.5299999713897705
v -3.529999923706055 1.9199999570846558 3.5299999713897705
v 1.6299999237060547 1.9199999570846558 3.5299999713897705
v 1.6299999237060547 2.0799999237060547 3.5299999713897705
v 1.6299999237060547 2.0799999237060547 -0.5299999713897705
v 1.6299999237060547 1.9199999570846558 -0.5299999713897705
v -3.529999923706055 2.0799999237060547 -0.5299999713897705
v 1.6299999237060547 1.9199999570846558 -0.5299999713897705
v -3.529999923706055 1.9199999570846558 -0.5299999713897705
v -3.529999923706055 2.0799999237060547 -0.5299999713897705
vt 0 1
vt 0 0
vt 1 1
vt 0 0
vt 1 0
vt 1 1
vt 0 1
vt 0 0
vt 1 1
vt 0 0
vt 1 0
vt 1 1
vt 0 1
vt 0 0
vt 1 1
vt 0 0
vt 1 0
vt 1 1
vt 0 1
vt 0 0
vt 1 1
vt 0 0
vt 1 0
vt 1 1
vt 0 1
vt 0 0
vt 1 1
vt 0 0
vt 1 0
vt 1 1
vt 0 1
vt 0 0
vt 1 1
vt 0 0
vt 1 0
vt 1 1
vt 0 1
vt 0 0
vt 1 1
vt 0 0
vt 1 0
vt 1 1
vt 0 1
vt 0 0
vt 1 1
vt 0 0
vt 1 0
vt 1 1
vt 0 1
vt 0 0
vt 1 1
vt 0 0
vt 1 0
vt 1 1
vt 0 1
vt 0 0
vt 1 1
vt 0 0
vt 1 0
vt 1 1
vt 0 1
vt 0 0
vt 1 1
vt 0 0
vt 1 0
vt 1 1
vt 0 1
vt 0 0
vt 1 1
vt 0 0
vt 1 0
vt 1 1
vn 1 0 0
vn 1 0 0
vn 1 0 0
vn 1 0 0
vn 1 0 0
vn 1 0 0
vn -1 0 0
vn -1 0 0
vn -1 0 0
vn -1 0 0
vn -1 0 0
vn -1 0 0
vn 0 1 0
vn 0 1 0
vn 0 1 0
vn 0 1 0
vn 0 1 0
vn 0 1 0
vn 0 -1 0
vn 0 -1 0
vn 0 -1 0
vn 0 -1 0
vn 0 -1 0
vn 0 -1 0
vn 0 0 1
vn 0 0 1
vn 0 0 1
vn 0 0 1
vn 0 0 1
vn 0 0 1
vn 0 0 -1
vn 0 0 -1
vn 0 0 -1
vn 0 0 -1
vn 0 0 -1
vn 0 0 -1
vn 1 0 0
vn 1 0 0
vn 1 0 0
vn 1 0 0
vn 1 0 0
vn 1 0 0
vn -1 0 0
vn -1 0 0
vn -1 0 0
vn -1 0 0
vn -1 0 0
vn -1 0 0
vn 0 1 0
vn 0 1 0
vn 0 1 0
vn 0 1 0
vn 0 1 0
vn 0 1 0
vn 0 -1 0
vn 0 -1 0
vn 0 -1 0
vn 0 -1 0
vn 0 -1 0
vn 0 -1 0
vn 0 0 1
vn 0 0 1
vn 0 0 1
vn 0 0 1
vn 0 0 1
vn 0 0 1
vn 0 0 -1
vn 0 0 -1
vn 0 0 -1
vn 0 0 -1
vn 0 0 -1
vn 0 0 -1
f 25/25/25 26/26/26 27/27/27
f 28/28/28 29/29/29 30/30/30
f 31/31/31 32/32/32 33/33/33
f 34/34/34 35/35/35 36/36/36
f 37/37/37 38/38/38 39/39/39
f 40/40/40 41/41/41 42/42/42
f 43/43/43 44/44/44 45/45/45
f 46/46/46 47/47/47 48/48/48
f 49/49/49 50/50/50 51/51/51
f 52/52/52 53/53/53 54/54/54
f 55/55/55 56/56/56 57/57/57
f 58/58/58 59/59/59 60/60/60
f 61/61/61 62/62/62 63/63/63
f 64/64/64 65/65/65 66/66/66
f 67/67/67 68/68/68 69/69/69
f 70/70/70 71/71/71 72/72/72
f 73/73/73 74/74/74 75/75/75
f 76/76/76 77/77/77 78/78/78
f 79/79/79 80/80/80 81/81/81
f 82/82/82 83/83/83 84/84/84
f 85/85/85 86/86/86 87/87/87
f 88/88/88 89/89/89 90/90/90
f 91/91/91 92/92/92 93/93/93
f 94/94/94 95/95/95 96/96/96
o head-band
usemtl police-blue
v 1.619999933242798 2.6000000071525573 3.5199999809265137
v 1.619999933242798 2.6000000071525573 -0.5199999809265137
v 1.619999933242798 2.2399999928474426 3.5199999809265137
v 1.619999933242798 2.2399999928474426 -0.5199999809265137
v -3.519999933242798 2.6000000071525573 -0.5199999809265137
v -3.519999933242798 2.6000000071525573 3.5199999809265137
v -3.519999933242798 2.2399999928474426 -0.5199999809265137
v -3.519999933242798 2.2399999928474426 3.5199999809265137
v -3.519999933242798 2.6000000071525573 -0.5199999809265137
v 1.619999933242798 2.6000000071525573 -0.5199999809265137
v -3.519999933242798 2.6000000071525573 3.5199999809265137
v 1.619999933242798 2.6000000071525573 3.5199999809265137
v -3.519999933242798 2.2399999928474426 3.5199999809265137
v 1.619999933242798 2.2399999928474426 3.5199999809265137
v -3.519999933242798 2.2399999928474426 -0.5199999809265137
v 1.619999933242798 2.2399999928474426 -0.5199999809265137
v -3.519999933242798 2.6000000071525573 3.5199999809265137
v 1.619999933242798 2.6000000071525573 3.5199999809265137
v -3.519999933242798 2.2399999928474426 3.5199999809265137
v 1.619999933242798 2.2399999928474426 3.5199999809265137
v 1.619999933242798 2.6000000071525573 -0.5199999809265137
v -3.519999933242798 2.6000000071525573 -0.5199999809265137
v 1.619999933242798 2.2399999928474426 -0.5199999809265137
v -3.519999933242798 2.2399999928474426 -0.5199999809265137
vt 0 1
vt 1 1
vt 0 0
vt 1 0
vt 0 1
vt 1 1
vt 0 0
vt 1 0
vt 0 1
vt 1 1
vt 0 0
vt 1 0
vt 0 1
vt 1 1
vt 0 0
vt 1 0
vt 0 1
vt 1 1
vt 0 0
vt 1 0
vt 0 1
vt 1 1
vt 0 0
vt 1 0
vn 1 0 0
vn 1 0 0
vn 1 0 0
vn 1 0 0
vn -1 0 0
vn -1 0 0
vn -1 0 0
vn -1 0 0
vn 0 1 0
vn 0 1 0
vn 0 1 0
vn 0 1 0
vn 0 -1 0
vn 0 -1 0
vn 0 -1 0
vn 0 -1 0
vn 0 0 1
vn 0 0 1
vn 0 0 1
vn 0 0 1
vn 0 0 -1
vn 0 0 -1
vn 0 0 -1
vn 0 0 -1
f 97/97/97 99/99/99 98/98/98
f 99/99/99 100/100/100 98/98/98
f 101/101/101 103/103/103 102/102/102
f 103/103/103 104/104/104 102/102/102
f 105/105/105 107/107/107 106/106/106
f 107/107/107 108/108/108 106/106/106
f 109/109/109 111/111/111 110/110/110
f 111/111/111 112/112/112 110/110/110
f 113/113/113 115/115/115 114/114/114
f 115/115/115 116/116/116 114/114/114
f 117/117/117 119/119/119 118/118/118
f 119/119/119 120/120/120 118/118/118
o roof-slab
usemtl mast-grey
v 1.5999999523162842 2.759999998211861 3.5
v 1.5999999523162842 2.759999998211861 -0.5
v 1.5999999523162842 2.6000000017881395 3.5
v 1.5999999523162842 2.6000000017881395 -0.5
v -3.4999999523162844 2.759999998211861 -0.5
v -3.4999999523162844 2.759999998211861 3.5
v -3.4999999523162844 2.6000000017881395 -0.5
v -3.4999999523162844 2.6000000017881395 3.5
v -3.4999999523162844 2.759999998211861 -0.5
v 1.5999999523162842 2.759999998211861 -0.5
v -3.4999999523162844 2.759999998211861 3.5
v 1.5999999523162842 2.759999998211861 3.5
v -3.4999999523162844 2.6000000017881395 3.5
v 1.5999999523162842 2.6000000017881395 3.5
v -3.4999999523162844 2.6000000017881395 -0.5
v 1.5999999523162842 2.6000000017881395 -0.5
v -3.4999999523162844 2.759999998211861 3.5
v 1.5999999523162842 2.759999998211861 3.5
v -3.4999999523162844 2.6000000017881395 3.5
v 1.5999999523162842 2.6000000017881395 3.5
v 1.5999999523162842 2.759999998211861 -0.5
v -3.4999999523162844 2.759999998211861 -0.5
v 1.5999999523162842 2.6000000017881395 -0.5
v -3.4999999523162844 2.6000000017881395 -0.5
vt 0 1
vt 1 1
vt 0 0
vt 1 0
vt 0 1
vt 1 1
vt 0 0
vt 1 0
vt 0 1
vt 1 1
vt 0 0
vt 1 0
vt 0 1
vt 1 1
vt 0 0
vt 1 0
vt 0 1
vt 1 1
vt 0 0
vt 1 0
vt 0 1
vt 1 1
vt 0 0
vt 1 0
vn 1 0 0
vn 1 0 0
vn 1 0 0
vn 1 0 0
vn -1 0 0
vn -1 0 0
vn -1 0 0
vn -1 0 0
vn 0 1 0
vn 0 1 0
vn 0 1 0
vn 0 1 0
vn 0 -1 0
vn 0 -1 0
vn 0 -1 0
vn 0 -1 0
vn 0 0 1
vn 0 0 1
vn 0 0 1
vn 0 0 1
vn 0 0 -1
vn 0 0 -1
vn 0 0 -1
vn 0 0 -1
f 121/121/121 123/123/123 122/122/122
f 123/123/123 124/124/124 122/122/122
f 125/125/125 127/127/127 126/126/126
f 127/127/127 128/128/128 126/126/126
f 129/129/129 131/131/131 130/130/130
f 131/131/131 132/132/132 130/130/130
f 133/133/133 135/135/135 134/134/134
f 135/135/135 136/136/136 134/134/134
f 137/137/137 139/139/139 138/138/138
f 139/139/139 140/140/140 138/138/138
f 141/141/141 143/143/143 142/142/142
f 143/143/143 144/144/144 142/142/142
o entrance-steps
usemtl trim-concrete
v 0.2500000596046448 0.14000000059604645 3.9200000762939453
v 0.2500000596046448 -2.98023217215615e-10 3.9200000762939453
v 0.2500000596046448 0.14000000059604645 3.5199999809265137
v 0.2500000596046448 -2.98023217215615e-10 3.9200000762939453
v 0.2500000596046448 -2.98023217215615e-10 3.5199999809265137
v 0.2500000596046448 0.14000000059604645 3.5199999809265137
v -2.1500000953674316 0.14000000059604645 3.5199999809265137
v -2.1500000953674316 -2.98023217215615e-10 3.5199999809265137
v -2.1500000953674316 0.14000000059604645 3.9200000762939453
v -2.1500000953674316 -2.98023217215615e-10 3.5199999809265137
v -2.1500000953674316 -2.98023217215615e-10 3.9200000762939453
v -2.1500000953674316 0.14000000059604645 3.9200000762939453
v -2.1500000953674316 0.14000000059604645 3.5199999809265137
v -2.1500000953674316 0.14000000059604645 3.9200000762939453
v 0.2500000596046448 0.14000000059604645 3.5199999809265137
v -2.1500000953674316 0.14000000059604645 3.9200000762939453
v 0.2500000596046448 0.14000000059604645 3.9200000762939453
v 0.2500000596046448 0.14000000059604645 3.5199999809265137
v -2.1500000953674316 -2.98023217215615e-10 3.9200000762939453
v -2.1500000953674316 -2.98023217215615e-10 3.5199999809265137
v 0.2500000596046448 -2.98023217215615e-10 3.9200000762939453
v -2.1500000953674316 -2.98023217215615e-10 3.5199999809265137
v 0.2500000596046448 -2.98023217215615e-10 3.5199999809265137
v 0.2500000596046448 -2.98023217215615e-10 3.9200000762939453
v -2.1500000953674316 0.14000000059604645 3.9200000762939453
v -2.1500000953674316 -2.98023217215615e-10 3.9200000762939453
v 0.2500000596046448 0.14000000059604645 3.9200000762939453
v -2.1500000953674316 -2.98023217215615e-10 3.9200000762939453
v 0.2500000596046448 -2.98023217215615e-10 3.9200000762939453
v 0.2500000596046448 0.14000000059604645 3.9200000762939453
v 0.2500000596046448 0.14000000059604645 3.5199999809265137
v 0.2500000596046448 -2.98023217215615e-10 3.5199999809265137
v -2.1500000953674316 0.14000000059604645 3.5199999809265137
v 0.2500000596046448 -2.98023217215615e-10 3.5199999809265137
v -2.1500000953674316 -2.98023217215615e-10 3.5199999809265137
v -2.1500000953674316 0.14000000059604645 3.5199999809265137
v 0.09999994933605194 0.2800000011920929 3.759999990463257
v 0.09999994933605194 0.14000000059604645 3.759999990463257
v 0.09999994933605194 0.2800000011920929 3.4000000953674316
v 0.09999994933605194 0.14000000059604645 3.759999990463257
v 0.09999994933605194 0.14000000059604645 3.4000000953674316
v 0.09999994933605194 0.2800000011920929 3.4000000953674316
v -2 0.2800000011920929 3.4000000953674316
v -2 0.14000000059604645 3.4000000953674316
v -2 0.2800000011920929 3.759999990463257
v -2 0.14000000059604645 3.4000000953674316
v -2 0.14000000059604645 3.759999990463257
v -2 0.2800000011920929 3.759999990463257
v -2 0.2800000011920929 3.4000000953674316
v -2 0.2800000011920929 3.759999990463257
v 0.09999994933605194 0.2800000011920929 3.4000000953674316
v -2 0.2800000011920929 3.759999990463257
v 0.09999994933605194 0.2800000011920929 3.759999990463257
v 0.09999994933605194 0.2800000011920929 3.4000000953674316
v -2 0.14000000059604645 3.759999990463257
v -2 0.14000000059604645 3.4000000953674316
v 0.09999994933605194 0.14000000059604645 3.759999990463257
v -2 0.14000000059604645 3.4000000953674316
v 0.09999994933605194 0.14000000059604645 3.4000000953674316
v 0.09999994933605194 0.14000000059604645 3.759999990463257
v -2 0.2800000011920929 3.759999990463257
v -2 0.14000000059604645 3.759999990463257
v 0.09999994933605194 0.2800000011920929 3.759999990463257
v -2 0.14000000059604645 3.759999990463257
v 0.09999994933605194 0.14000000059604645 3.759999990463257
v 0.09999994933605194 0.2800000011920929 3.759999990463257
v 0.09999994933605194 0.2800000011920929 3.4000000953674316
v 0.09999994933605194 0.14000000059604645 3.4000000953674316
v -2 0.2800000011920929 3.4000000953674316
v 0.09999994933605194 0.14000000059604645 3.4000000953674316
v -2 0.14000000059604645 3.4000000953674316
v -2 0.2800000011920929 3.4000000953674316
vt 0 1
vt 0 0
vt 1 1
vt 0 0
vt 1 0
vt 1 1
vt 0 1
vt 0 0
vt 1 1
vt 0 0
vt 1 0
vt 1 1
vt 0 1
vt 0 0
vt 1 1
vt 0 0
vt 1 0
vt 1 1
vt 0 1
vt 0 0
vt 1 1
vt 0 0
vt 1 0
vt 1 1
vt 0 1
vt 0 0
vt 1 1
vt 0 0
vt 1 0
vt 1 1
vt 0 1
vt 0 0
vt 1 1
vt 0 0
vt 1 0
vt 1 1
vt 0 1
vt 0 0
vt 1 1
vt 0 0
vt 1 0
vt 1 1
vt 0 1
vt 0 0
vt 1 1
vt 0 0
vt 1 0
vt 1 1
vt 0 1
vt 0 0
vt 1 1
vt 0 0
vt 1 0
vt 1 1
vt 0 1
vt 0 0
vt 1 1
vt 0 0
vt 1 0
vt 1 1
vt 0 1
vt 0 0
vt 1 1
vt 0 0
vt 1 0
vt 1 1
vt 0 1
vt 0 0
vt 1 1
vt 0 0
vt 1 0
vt 1 1
vn 1 0 0
vn 1 0 0
vn 1 0 0
vn 1 0 0
vn 1 0 0
vn 1 0 0
vn -1 0 0
vn -1 0 0
vn -1 0 0
vn -1 0 0
vn -1 0 0
vn -1 0 0
vn 0 1 0
vn 0 1 0
vn 0 1 0
vn 0 1 0
vn 0 1 0
vn 0 1 0
vn 0 -1 0
vn 0 -1 0
vn 0 -1 0
vn 0 -1 0
vn 0 -1 0
vn 0 -1 0
vn 0 0 1
vn 0 0 1
vn 0 0 1
vn 0 0 1
vn 0 0 1
vn 0 0 1
vn 0 0 -1
vn 0 0 -1
vn 0 0 -1
vn 0 0 -1
vn 0 0 -1
vn 0 0 -1
vn 1 0 0
vn 1 0 0
vn 1 0 0
vn 1 0 0
vn 1 0 0
vn 1 0 0
vn -1 0 0
vn -1 0 0
vn -1 0 0
vn -1 0 0
vn -1 0 0
vn -1 0 0
vn 0 1 0
vn 0 1 0
vn 0 1 0
vn 0 1 0
vn 0 1 0
vn 0 1 0
vn 0 -1 0
vn 0 -1 0
vn 0 -1 0
vn 0 -1 0
vn 0 -1 0
vn 0 -1 0
vn 0 0 1
vn 0 0 1
vn 0 0 1
vn 0 0 1
vn 0 0 1
vn 0 0 1
vn 0 0 -1
vn 0 0 -1
vn 0 0 -1
vn 0 0 -1
vn 0 0 -1
vn 0 0 -1
f 145/145/145 146/146/146 147/147/147
f 148/148/148 149/149/149 150/150/150
f 151/151/151 152/152/152 153/153/153
f 154/154/154 155/155/155 156/156/156
f 157/157/157 158/158/158 159/159/159
f 160/160/160 161/161/161 162/162/162
f 163/163/163 164/164/164 165/165/165
f 166/166/166 167/167/167 168/168/168
f 169/169/169 170/170/170 171/171/171
f 172/172/172 173/173/173 174/174/174
f 175/175/175 176/176/176 177/177/177
f 178/178/178 179/179/179 180/180/180
f 181/181/181 182/182/182 183/183/183
f 184/184/184 185/185/185 186/186/186
f 187/187/187 188/188/188 189/189/189
f 190/190/190 191/191/191 192/192/192
f 193/193/193 194/194/194 195/195/195
f 196/196/196 197/197/197 198/198/198
f 199/199/199 200/200/200 201/201/201
f 202/202/202 203/203/203 204/204/204
f 205/205/205 206/206/206 207/207/207
f 208/208/208 209/209/209 210/210/210
f 211/211/211 212/212/212 213/213/213
f 214/214/214 215/215/215 216/216/216
o entrance-door
usemtl glazing
v -0.149999988079071 1.7000000119209289 3.580000000745058
v -0.149999988079071 1.7000000119209289 3.4799999992549417
v -0.149999988079071 0.09999998807907107 3.580000000745058
v -0.149999988079071 0.09999998807907107 3.4799999992549417
v -1.750000011920929 1.7000000119209289 3.4799999992549417
v -1.750000011920929 1.7000000119209289 3.580000000745058
v -1.750000011920929 0.09999998807907107 3.4799999992549417
v -1.750000011920929 0.09999998807907107 3.580000000745058
v -1.750000011920929 1.7000000119209289 3.4799999992549417
v -0.149999988079071 1.7000000119209289 3.4799999992549417
v -1.750000011920929 1.7000000119209289 3.580000000745058
v -0.149999988079071 1.7000000119209289 3.580000000745058
v -1.750000011920929 0.09999998807907107 3.580000000745058
v -0.149999988079071 0.09999998807907107 3.580000000745058
v -1.750000011920929 0.09999998807907107 3.4799999992549417
v -0.149999988079071 0.09999998807907107 3.4799999992549417
v -1.750000011920929 1.7000000119209289 3.580000000745058
v -0.149999988079071 1.7000000119209289 3.580000000745058
v -1.750000011920929 0.09999998807907107 3.580000000745058
v -0.149999988079071 0.09999998807907107 3.580000000745058
v -0.149999988079071 1.7000000119209289 3.4799999992549417
v -1.750000011920929 1.7000000119209289 3.4799999992549417
v -0.149999988079071 0.09999998807907107 3.4799999992549417
v -1.750000011920929 0.09999998807907107 3.4799999992549417
vt 0 1
vt 1 1
vt 0 0
vt 1 0
vt 0 1
vt 1 1
vt 0 0
vt 1 0
vt 0 1
vt 1 1
vt 0 0
vt 1 0
vt 0 1
vt 1 1
vt 0 0
vt 1 0
vt 0 1
vt 1 1
vt 0 0
vt 1 0
vt 0 1
vt 1 1
vt 0 0
vt 1 0
vn 1 0 0
vn 1 0 0
vn 1 0 0
vn 1 0 0
vn -1 0 0
vn -1 0 0
vn -1 0 0
vn -1 0 0
vn 0 1 0
vn 0 1 0
vn 0 1 0
vn 0 1 0
vn 0 -1 0
vn 0 -1 0
vn 0 -1 0
vn 0 -1 0
vn 0 0 1
vn 0 0 1
vn 0 0 1
vn 0 0 1
vn 0 0 -1
vn 0 0 -1
vn 0 0 -1
vn 0 0 -1
f 217/217/217 219/219/219 218/218/218
f 219/219/219 220/220/220 218/218/218
f 221/221/221 223/223/223 222/222/222
f 223/223/223 224/224/224 222/222/222
f 225/225/225 227/227/227 226/226/226
f 227/227/227 228/228/228 226/226/226
f 229/229/229 231/231/231 230/230/230
f 231/231/231 232/232/232 230/230/230
f 233/233/233 235/235/235 234/234/234
f 235/235/235 236/236/236 234/234/234
f 237/237/237 239/239/239 238/238/238
f 239/239/239 240/240/240 238/238/238
o entrance-canopy
usemtl trim-concrete
v 0.19999997615814213 2.1900000035762788 3.9400000059604645
v 0.19999997615814213 2.1900000035762788 3.1399999940395356
v 0.19999997615814213 2.0099999964237214 3.9400000059604645
v 0.19999997615814213 2.0099999964237214 3.1399999940395356
v -2.0999999761581423 2.1900000035762788 3.1399999940395356
v -2.0999999761581423 2.1900000035762788 3.9400000059604645
v -2.0999999761581423 2.0099999964237214 3.1399999940395356
v -2.0999999761581423 2.0099999964237214 3.9400000059604645
v -2.0999999761581423 2.1900000035762788 3.1399999940395356
v 0.19999997615814213 2.1900000035762788 3.1399999940395356
v -2.0999999761581423 2.1900000035762788 3.9400000059604645
v 0.19999997615814213 2.1900000035762788 3.9400000059604645
v -2.0999999761581423 2.0099999964237214 3.9400000059604645
v 0.19999997615814213 2.0099999964237214 3.9400000059604645
v -2.0999999761581423 2.0099999964237214 3.1399999940395356
v 0.19999997615814213 2.0099999964237214 3.1399999940395356
v -2.0999999761581423 2.1900000035762788 3.9400000059604645
v 0.19999997615814213 2.1900000035762788 3.9400000059604645
v -2.0999999761581423 2.0099999964237214 3.9400000059604645
v 0.19999997615814213 2.0099999964237214 3.9400000059604645
v 0.19999997615814213 2.1900000035762788 3.1399999940395356
v -2.0999999761581423 2.1900000035762788 3.1399999940395356
v 0.19999997615814213 2.0099999964237214 3.1399999940395356
v -2.0999999761581423 2.0099999964237214 3.1399999940395356
vt 0 1
vt 1 1
vt 0 0
vt 1 0
vt 0 1
vt 1 1
vt 0 0
vt 1 0
vt 0 1
vt 1 1
vt 0 0
vt 1 0
vt 0 1
vt 1 1
vt 0 0
vt 1 0
vt 0 1
vt 1 1
vt 0 0
vt 1 0
vt 0 1
vt 1 1
vt 0 0
vt 1 0
vn 1 0 0
vn 1 0 0
vn 1 0 0
vn 1 0 0
vn -1 0 0
vn -1 0 0
vn -1 0 0
vn -1 0 0
vn 0 1 0
vn 0 1 0
vn 0 1 0
vn 0 1 0
vn 0 -1 0
vn 0 -1 0
vn 0 -1 0
vn 0 -1 0
vn 0 0 1
vn 0 0 1
vn 0 0 1
vn 0 0 1
vn 0 0 -1
vn 0 0 -1
vn 0 0 -1
vn 0 0 -1
f 241/241/241 243/243/243 242/242/242
f 243/243/243 244/244/244 242/242/242
f 245/245/245 247/247/247 246/246/246
f 247/247/247 248/248/248 246/246/246
f 249/249/249 251/251/251 250/250/250
f 251/251/251 252/252/252 250/250/250
f 253/253/253 255/255/255 254/254/254
f 255/255/255 256/256/256 254/254/254
f 257/257/257 259/259/259 258/258/258
f 259/259/259 260/260/260 258/258/258
f 261/261/261 263/263/263 262/262/262
f 263/263/263 264/264/264 262/262/262
o cells
usemtl station-navy
v 0.200000023841858 1.899999988079071 -0.599999952316284
v 0.200000023841858 1.899999988079071 -3.5000000476837156
v 0.200000023841858 1.1920928910669204e-8 -0.599999952316284
v 0.200000023841858 1.1920928910669204e-8 -3.5000000476837156
v -3.500000023841858 1.899999988079071 -3.5000000476837156
v -3.500000023841858 1.899999988079071 -0.599999952316284
v -3.500000023841858 1.1920928910669204e-8 -3.5000000476837156
v -3.500000023841858 1.1920928910669204e-8 -0.599999952316284
v -3.500000023841858 1.899999988079071 -3.5000000476837156
v 0.200000023841858 1.899999988079071 -3.5000000476837156
v -3.500000023841858 1.899999988079071 -0.599999952316284
v 0.200000023841858 1.899999988079071 -0.599999952316284
v -3.500000023841858 1.1920928910669204e-8 -0.599999952316284
v 0.200000023841858 1.1920928910669204e-8 -0.599999952316284
v -3.500000023841858 1.1920928910669204e-8 -3.5000000476837156
v 0.200000023841858 1.1920928910669204e-8 -3.5000000476837156
v -3.500000023841858 1.899999988079071 -0.599999952316284
v 0.200000023841858 1.899999988079071 -0.599999952316284
v -3.500000023841858 1.1920928910669204e-8 -0.599999952316284
v 0.200000023841858 1.1920928910669204e-8 -0.599999952316284
v 0.200000023841858 1.899999988079071 -3.5000000476837156
v -3.500000023841858 1.899999988079071 -3.5000000476837156
v 0.200000023841858 1.1920928910669204e-8 -3.5000000476837156
v -3.500000023841858 1.1920928910669204e-8 -3.5000000476837156
vt 0 1
vt 1 1
vt 0 0
vt 1 0
vt 0 1
vt 1 1
vt 0 0
vt 1 0
vt 0 1
vt 1 1
vt 0 0
vt 1 0
vt 0 1
vt 1 1
vt 0 0
vt 1 0
vt 0 1
vt 1 1
vt 0 0
vt 1 0
vt 0 1
vt 1 1
vt 0 0
vt 1 0
vn 1 0 0
vn 1 0 0
vn 1 0 0
vn 1 0 0
vn -1 0 0
vn -1 0 0
vn -1 0 0
vn -1 0 0
vn 0 1 0
vn 0 1 0
vn 0 1 0
vn 0 1 0
vn 0 -1 0
vn 0 -1 0
vn 0 -1 0
vn 0 -1 0
vn 0 0 1
vn 0 0 1
vn 0 0 1
vn 0 0 1
vn 0 0 -1
vn 0 0 -1
vn 0 0 -1
vn 0 0 -1
f 265/265/265 267/267/267 266/266/266
f 267/267/267 268/268/268 266/266/266
f 269/269/269 271/271/271 270/270/270
f 271/271/271 272/272/272 270/270/270
f 273/273/273 275/275/275 274/274/274
f 275/275/275 276/276/276 274/274/274
f 277/277/277 279/279/279 278/278/278
f 279/279/279 280/280/280 278/278/278
f 281/281/281 283/283/283 282/282/282
f 283/283/283 284/284/284 282/282/282
f 285/285/285 287/287/287 286/286/286
f 287/287/287 288/288/288 286/286/286
o cells-clerestory
usemtl glazing
v 0.2299999952316285 1.6000000059604644 -0.5699999809265135
v 0.2299999952316285 1.6000000059604644 -3.530000019073486
v 0.2299999952316285 1.2999999940395355 -0.5699999809265135
v 0.2299999952316285 1.2999999940395355 -3.530000019073486
v -3.5299999952316283 1.6000000059604644 -3.530000019073486
v -3.5299999952316283 1.6000000059604644 -0.5699999809265135
v -3.5299999952316283 1.2999999940395355 -3.530000019073486
v -3.5299999952316283 1.2999999940395355 -0.5699999809265135
v -3.5299999952316283 1.6000000059604644 -3.530000019073486
v 0.2299999952316285 1.6000000059604644 -3.530000019073486
v -3.5299999952316283 1.6000000059604644 -0.5699999809265135
v 0.2299999952316285 1.6000000059604644 -0.5699999809265135
v -3.5299999952316283 1.2999999940395355 -0.5699999809265135
v 0.2299999952316285 1.2999999940395355 -0.5699999809265135
v -3.5299999952316283 1.2999999940395355 -3.530000019073486
v 0.2299999952316285 1.2999999940395355 -3.530000019073486
v -3.5299999952316283 1.6000000059604644 -0.5699999809265135
v 0.2299999952316285 1.6000000059604644 -0.5699999809265135
v -3.5299999952316283 1.2999999940395355 -0.5699999809265135
v 0.2299999952316285 1.2999999940395355 -0.5699999809265135
v 0.2299999952316285 1.6000000059604644 -3.530000019073486
v -3.5299999952316283 1.6000000059604644 -3.530000019073486
v 0.2299999952316285 1.2999999940395355 -3.530000019073486
v -3.5299999952316283 1.2999999940395355 -3.530000019073486
vt 0 1
vt 1 1
vt 0 0
vt 1 0
vt 0 1
vt 1 1
vt 0 0
vt 1 0
vt 0 1
vt 1 1
vt 0 0
vt 1 0
vt 0 1
vt 1 1
vt 0 0
vt 1 0
vt 0 1
vt 1 1
vt 0 0
vt 1 0
vt 0 1
vt 1 1
vt 0 0
vt 1 0
vn 1 0 0
vn 1 0 0
vn 1 0 0
vn 1 0 0
vn -1 0 0
vn -1 0 0
vn -1 0 0
vn -1 0 0
vn 0 1 0
vn 0 1 0
vn 0 1 0
vn 0 1 0
vn 0 -1 0
vn 0 -1 0
vn 0 -1 0
vn 0 -1 0
vn 0 0 1
vn 0 0 1
vn 0 0 1
vn 0 0 1
vn 0 0 -1
vn 0 0 -1
vn 0 0 -1
vn 0 0 -1
f 289/289/289 291/291/291 290/290/290
f 291/291/291 292/292/292 290/290/290
f 293/293/293 295/295/295 294/294/294
f 295/295/295 296/296/296 294/294/294
f 297/297/297 299/299/299 298/298/298
f 299/299/299 300/300/300 298/298/298
f 301/301/301 303/303/303 302/302/302
f 303/303/303 304/304/304 302/302/302
f 305/305/305 307/307/307 306/306/306
f 307/307/307 308/308/308 306/306/306
f 309/309/309 311/311/311 310/310/310
f 311/311/311 312/312/312 310/310/310
o cells-cap
usemtl police-blue
v 0.31000003814697275 2.1099999994039536 -0.4900000572204588
v 0.31000003814697275 2.1099999994039536 -3.609999942779541
v 0.31000003814697275 1.8900000005960464 -0.4900000572204588
v 0.31000003814697275 1.8900000005960464 -3.609999942779541
v -3.6100000381469726 2.1099999994039536 -3.609999942779541
v -3.6100000381469726 2.1099999994039536 -0.4900000572204588
v -3.6100000381469726 1.8900000005960464 -3.609999942779541
v -3.6100000381469726 1.8900000005960464 -0.4900000572204588
v -3.6100000381469726 2.1099999994039536 -3.609999942779541
v 0.31000003814697275 2.1099999994039536 -3.609999942779541
v -3.6100000381469726 2.1099999994039536 -0.4900000572204588
v 0.31000003814697275 2.1099999994039536 -0.4900000572204588
v -3.6100000381469726 1.8900000005960464 -0.4900000572204588
v 0.31000003814697275 1.8900000005960464 -0.4900000572204588
v -3.6100000381469726 1.8900000005960464 -3.609999942779541
v 0.31000003814697275 1.8900000005960464 -3.609999942779541
v -3.6100000381469726 2.1099999994039536 -0.4900000572204588
v 0.31000003814697275 2.1099999994039536 -0.4900000572204588
v -3.6100000381469726 1.8900000005960464 -0.4900000572204588
v 0.31000003814697275 1.8900000005960464 -0.4900000572204588
v 0.31000003814697275 2.1099999994039536 -3.609999942779541
v -3.6100000381469726 2.1099999994039536 -3.609999942779541
v 0.31000003814697275 1.8900000005960464 -3.609999942779541
v -3.6100000381469726 1.8900000005960464 -3.609999942779541
vt 0 1
vt 1 1
vt 0 0
vt 1 0
vt 0 1
vt 1 1
vt 0 0
vt 1 0
vt 0 1
vt 1 1
vt 0 0
vt 1 0
vt 0 1
vt 1 1
vt 0 0
vt 1 0
vt 0 1
vt 1 1
vt 0 0
vt 1 0
vt 0 1
vt 1 1
vt 0 0
vt 1 0
vn 1 0 0
vn 1 0 0
vn 1 0 0
vn 1 0 0
vn -1 0 0
vn -1 0 0
vn -1 0 0
vn -1 0 0
vn 0 1 0
vn 0 1 0
vn 0 1 0
vn 0 1 0
vn 0 -1 0
vn 0 -1 0
vn 0 -1 0
vn 0 -1 0
vn 0 0 1
vn 0 0 1
vn 0 0 1
vn 0 0 1
vn 0 0 -1
vn 0 0 -1
vn 0 0 -1
vn 0 0 -1
f 313/313/313 315/315/315 314/314/314
f 315/315/315 316/316/316 314/314/314
f 317/317/317 319/319/319 318/318/318
f 319/319/319 320/320/320 318/318/318
f 321/321/321 323/323/323 322/322/322
f 323/323/323 324/324/324 322/322/322
f 325/325/325 327/327/327 326/326/326
f 327/327/327 328/328/328 326/326/326
f 329/329/329 331/331/331 330/330/330
f 331/331/331 332/332/332 330/330/330
f 333/333/333 335/335/335 334/334/334
f 335/335/335 336/336/336 334/334/334
o yard
usemtl yard-asphalt
v 3.4999999523162844 0.059999999329447745 -0.599999952316284
v 3.4999999523162844 0.059999999329447745 -3.5000000476837156
v 3.4999999523162844 6.705522526129215e-10 -0.599999952316284
v 3.4999999523162844 6.705522526129215e-10 -3.5000000476837156
v 0.4000000476837158 0.059999999329447745 -3.5000000476837156
v 0.4000000476837158 0.059999999329447745 -0.599999952316284
v 0.4000000476837158 6.705522526129215e-10 -3.5000000476837156
v 0.4000000476837158 6.705522526129215e-10 -0.599999952316284
v 0.4000000476837158 0.059999999329447745 -3.5000000476837156
v 3.4999999523162844 0.059999999329447745 -3.5000000476837156
v 0.4000000476837158 0.059999999329447745 -0.599999952316284
v 3.4999999523162844 0.059999999329447745 -0.599999952316284
v 0.4000000476837158 6.705522526129215e-10 -0.599999952316284
v 3.4999999523162844 6.705522526129215e-10 -0.599999952316284
v 0.4000000476837158 6.705522526129215e-10 -3.5000000476837156
v 3.4999999523162844 6.705522526129215e-10 -3.5000000476837156
v 0.4000000476837158 0.059999999329447745 -0.599999952316284
v 3.4999999523162844 0.059999999329447745 -0.599999952316284
v 0.4000000476837158 6.705522526129215e-10 -0.599999952316284
v 3.4999999523162844 6.705522526129215e-10 -0.599999952316284
v 3.4999999523162844 0.059999999329447745 -3.5000000476837156
v 0.4000000476837158 0.059999999329447745 -3.5000000476837156
v 3.4999999523162844 6.705522526129215e-10 -3.5000000476837156
v 0.4000000476837158 6.705522526129215e-10 -3.5000000476837156
vt 0 1
vt 1 1
vt 0 0
vt 1 0
vt 0 1
vt 1 1
vt 0 0
vt 1 0
vt 0 1
vt 1 1
vt 0 0
vt 1 0
vt 0 1
vt 1 1
vt 0 0
vt 1 0
vt 0 1
vt 1 1
vt 0 0
vt 1 0
vt 0 1
vt 1 1
vt 0 0
vt 1 0
vn 1 0 0
vn 1 0 0
vn 1 0 0
vn 1 0 0
vn -1 0 0
vn -1 0 0
vn -1 0 0
vn -1 0 0
vn 0 1 0
vn 0 1 0
vn 0 1 0
vn 0 1 0
vn 0 -1 0
vn 0 -1 0
vn 0 -1 0
vn 0 -1 0
vn 0 0 1
vn 0 0 1
vn 0 0 1
vn 0 0 1
vn 0 0 -1
vn 0 0 -1
vn 0 0 -1
vn 0 0 -1
f 337/337/337 339/339/339 338/338/338
f 339/339/339 340/340/340 338/338/338
f 341/341/341 343/343/343 342/342/342
f 343/343/343 344/344/344 342/342/342
f 345/345/345 347/347/347 346/346/346
f 347/347/347 348/348/348 346/346/346
f 349/349/349 351/351/351 350/350/350
f 351/351/351 352/352/352 350/350/350
f 353/353/353 355/355/355 354/354/354
f 355/355/355 356/356/356 354/354/354
f 357/357/357 359/359/359 358/358/358
f 359/359/359 360/360/360 358/358/358
o yard-wall-back
usemtl trim-concrete
v 3.5 0.699999988079071 -3.3399999141693115
v 3.5 5.9604645663569045e-9 -3.3399999141693115
v 3.5 0.699999988079071 -3.5
v 3.5 5.9604645663569045e-9 -3.3399999141693115
v 3.5 5.9604645663569045e-9 -3.5
v 3.5 0.699999988079071 -3.5
v 0.40000003576278687 0.699999988079071 -3.5
v 0.40000003576278687 5.9604645663569045e-9 -3.5
v 0.40000003576278687 0.699999988079071 -3.3399999141693115
v 0.40000003576278687 5.9604645663569045e-9 -3.5
v 0.40000003576278687 5.9604645663569045e-9 -3.3399999141693115
v 0.40000003576278687 0.699999988079071 -3.3399999141693115
v 0.40000003576278687 0.699999988079071 -3.5
v 0.40000003576278687 0.699999988079071 -3.3399999141693115
v 3.5 0.699999988079071 -3.5
v 0.40000003576278687 0.699999988079071 -3.3399999141693115
v 3.5 0.699999988079071 -3.3399999141693115
v 3.5 0.699999988079071 -3.5
v 0.40000003576278687 5.9604645663569045e-9 -3.3399999141693115
v 0.40000003576278687 5.9604645663569045e-9 -3.5
v 3.5 5.9604645663569045e-9 -3.3399999141693115
v 0.40000003576278687 5.9604645663569045e-9 -3.5
v 3.5 5.9604645663569045e-9 -3.5
v 3.5 5.9604645663569045e-9 -3.3399999141693115
v 0.40000003576278687 0.699999988079071 -3.3399999141693115
v 0.40000003576278687 5.9604645663569045e-9 -3.3399999141693115
v 3.5 0.699999988079071 -3.3399999141693115
v 0.40000003576278687 5.9604645663569045e-9 -3.3399999141693115
v 3.5 5.9604645663569045e-9 -3.3399999141693115
v 3.5 0.699999988079071 -3.3399999141693115
v 3.5 0.699999988079071 -3.5
v 3.5 5.9604645663569045e-9 -3.5
v 0.40000003576278687 0.699999988079071 -3.5
v 3.5 5.9604645663569045e-9 -3.5
v 0.40000003576278687 5.9604645663569045e-9 -3.5
v 0.40000003576278687 0.699999988079071 -3.5
v 3.5 0.699999988079071 -0.5999999642372131
v 3.5 5.9604645663569045e-9 -0.5999999642372131
v 3.5 0.699999988079071 -3.5
v 3.5 5.9604645663569045e-9 -0.5999999642372131
v 3.5 5.9604645663569045e-9 -3.5
v 3.5 0.699999988079071 -3.5
v 3.3399999141693115 0.699999988079071 -3.5
v 3.3399999141693115 5.9604645663569045e-9 -3.5
v 3.3399999141693115 0.699999988079071 -0.5999999642372131
v 3.3399999141693115 5.9604645663569045e-9 -3.5
v 3.3399999141693115 5.9604645663569045e-9 -0.5999999642372131
v 3.3399999141693115 0.699999988079071 -0.5999999642372131
v 3.3399999141693115 0.699999988079071 -3.5
v 3.3399999141693115 0.699999988079071 -0.5999999642372131
v 3.5 0.699999988079071 -3.5
v 3.3399999141693115 0.699999988079071 -0.5999999642372131
v 3.5 0.699999988079071 -0.5999999642372131
v 3.5 0.699999988079071 -3.5
v 3.3399999141693115 5.9604645663569045e-9 -0.5999999642372131
v 3.3399999141693115 5.9604645663569045e-9 -3.5
v 3.5 5.9604645663569045e-9 -0.5999999642372131
v 3.3399999141693115 5.9604645663569045e-9 -3.5
v 3.5 5.9604645663569045e-9 -3.5
v 3.5 5.9604645663569045e-9 -0.5999999642372131
v 3.3399999141693115 0.699999988079071 -0.5999999642372131
v 3.3399999141693115 5.9604645663569045e-9 -0.5999999642372131
v 3.5 0.699999988079071 -0.5999999642372131
v 3.3399999141693115 5.9604645663569045e-9 -0.5999999642372131
v 3.5 5.9604645663569045e-9 -0.5999999642372131
v 3.5 0.699999988079071 -0.5999999642372131
v 3.5 0.699999988079071 -3.5
v 3.5 5.9604645663569045e-9 -3.5
v 3.3399999141693115 0.699999988079071 -3.5
v 3.5 5.9604645663569045e-9 -3.5
v 3.3399999141693115 5.9604645663569045e-9 -3.5
v 3.3399999141693115 0.699999988079071 -3.5
v 0.5600000023841858 0.699999988079071 -2.0999999046325684
v 0.5600000023841858 5.9604645663569045e-9 -2.0999999046325684
v 0.5600000023841858 0.699999988079071 -3.5
v 0.5600000023841858 5.9604645663569045e-9 -2.0999999046325684
v 0.5600000023841858 5.9604645663569045e-9 -3.5
v 0.5600000023841858 0.699999988079071 -3.5
v 0.4000000059604645 0.699999988079071 -3.5
v 0.4000000059604645 5.9604645663569045e-9 -3.5
v 0.4000000059604645 0.699999988079071 -2.0999999046325684
v 0.4000000059604645 5.9604645663569045e-9 -3.5
v 0.4000000059604645 5.9604645663569045e-9 -2.0999999046325684
v 0.4000000059604645 0.699999988079071 -2.0999999046325684
v 0.4000000059604645 0.699999988079071 -3.5
v 0.4000000059604645 0.699999988079071 -2.0999999046325684
v 0.5600000023841858 0.699999988079071 -3.5
v 0.4000000059604645 0.699999988079071 -2.0999999046325684
v 0.5600000023841858 0.699999988079071 -2.0999999046325684
v 0.5600000023841858 0.699999988079071 -3.5
v 0.4000000059604645 5.9604645663569045e-9 -2.0999999046325684
v 0.4000000059604645 5.9604645663569045e-9 -3.5
v 0.5600000023841858 5.9604645663569045e-9 -2.0999999046325684
v 0.4000000059604645 5.9604645663569045e-9 -3.5
v 0.5600000023841858 5.9604645663569045e-9 -3.5
v 0.5600000023841858 5.9604645663569045e-9 -2.0999999046325684
v 0.4000000059604645 0.699999988079071 -2.0999999046325684
v 0.4000000059604645 5.9604645663569045e-9 -2.0999999046325684
v 0.5600000023841858 0.699999988079071 -2.0999999046325684
v 0.4000000059604645 5.9604645663569045e-9 -2.0999999046325684
v 0.5600000023841858 5.9604645663569045e-9 -2.0999999046325684
v 0.5600000023841858 0.699999988079071 -2.0999999046325684
v 0.5600000023841858 0.699999988079071 -3.5
v 0.5600000023841858 5.9604645663569045e-9 -3.5
v 0.4000000059604645 0.699999988079071 -3.5
v 0.5600000023841858 5.9604645663569045e-9 -3.5
v 0.4000000059604645 5.9604645663569045e-9 -3.5
v 0.4000000059604645 0.699999988079071 -3.5
vt 0 1
vt 0 0
vt 1 1
vt 0 0
vt 1 0
vt 1 1
vt 0 1
vt 0 0
vt 1 1
vt 0 0
vt 1 0
vt 1 1
vt 0 1
vt 0 0
vt 1 1
vt 0 0
vt 1 0
vt 1 1
vt 0 1
vt 0 0
vt 1 1
vt 0 0
vt 1 0
vt 1 1
vt 0 1
vt 0 0
vt 1 1
vt 0 0
vt 1 0
vt 1 1
vt 0 1
vt 0 0
vt 1 1
vt 0 0
vt 1 0
vt 1 1
vt 0 1
vt 0 0
vt 1 1
vt 0 0
vt 1 0
vt 1 1
vt 0 1
vt 0 0
vt 1 1
vt 0 0
vt 1 0
vt 1 1
vt 0 1
vt 0 0
vt 1 1
vt 0 0
vt 1 0
vt 1 1
vt 0 1
vt 0 0
vt 1 1
vt 0 0
vt 1 0
vt 1 1
vt 0 1
vt 0 0
vt 1 1
vt 0 0
vt 1 0
vt 1 1
vt 0 1
vt 0 0
vt 1 1
vt 0 0
vt 1 0
vt 1 1
vt 0 1
vt 0 0
vt 1 1
vt 0 0
vt 1 0
vt 1 1
vt 0 1
vt 0 0
vt 1 1
vt 0 0
vt 1 0
vt 1 1
vt 0 1
vt 0 0
vt 1 1
vt 0 0
vt 1 0
vt 1 1
vt 0 1
vt 0 0
vt 1 1
vt 0 0
vt 1 0
vt 1 1
vt 0 1
vt 0 0
vt 1 1
vt 0 0
vt 1 0
vt 1 1
vt 0 1
vt 0 0
vt 1 1
vt 0 0
vt 1 0
vt 1 1
vn 1 0 0
vn 1 0 0
vn 1 0 0
vn 1 0 0
vn 1 0 0
vn 1 0 0
vn -1 0 0
vn -1 0 0
vn -1 0 0
vn -1 0 0
vn -1 0 0
vn -1 0 0
vn 0 1 0
vn 0 1 0
vn 0 1 0
vn 0 1 0
vn 0 1 0
vn 0 1 0
vn 0 -1 0
vn 0 -1 0
vn 0 -1 0
vn 0 -1 0
vn 0 -1 0
vn 0 -1 0
vn 0 0 1
vn 0 0 1
vn 0 0 1
vn 0 0 1
vn 0 0 1
vn 0 0 1
vn 0 0 -1
vn 0 0 -1
vn 0 0 -1
vn 0 0 -1
vn 0 0 -1
vn 0 0 -1
vn 1 0 0
vn 1 0 0
vn 1 0 0
vn 1 0 0
vn 1 0 0
vn 1 0 0
vn -1 0 0
vn -1 0 0
vn -1 0 0
vn -1 0 0
vn -1 0 0
vn -1 0 0
vn 0 1 0
vn 0 1 0
vn 0 1 0
vn 0 1 0
vn 0 1 0
vn 0 1 0
vn 0 -1 0
vn 0 -1 0
vn 0 -1 0
vn 0 -1 0
vn 0 -1 0
vn 0 -1 0
vn 0 0 1
vn 0 0 1
vn 0 0 1
vn 0 0 1
vn 0 0 1
vn 0 0 1
vn 0 0 -1
vn 0 0 -1
vn 0 0 -1
vn 0 0 -1
vn 0 0 -1
vn 0 0 -1
vn 1 0 0
vn 1 0 0
vn 1 0 0
vn 1 0 0
vn 1 0 0
vn 1 0 0
vn -1 0 0
vn -1 0 0
vn -1 0 0
vn -1 0 0
vn -1 0 0
vn -1 0 0
vn 0 1 0
vn 0 1 0
vn 0 1 0
vn 0 1 0
vn 0 1 0
vn 0 1 0
vn 0 -1 0
vn 0 -1 0
vn 0 -1 0
vn 0 -1 0
vn 0 -1 0
vn 0 -1 0
vn 0 0 1
vn 0 0 1
vn 0 0 1
vn 0 0 1
vn 0 0 1
vn 0 0 1
vn 0 0 -1
vn 0 0 -1
vn 0 0 -1
vn 0 0 -1
vn 0 0 -1
vn 0 0 -1
f 361/361/361 362/362/362 363/363/363
f 364/364/364 365/365/365 366/366/366
f 367/367/367 368/368/368 369/369/369
f 370/370/370 371/371/371 372/372/372
f 373/373/373 374/374/374 375/375/375
f 376/376/376 377/377/377 378/378/378
f 379/379/379 380/380/380 381/381/381
f 382/382/382 383/383/383 384/384/384
f 385/385/385 386/386/386 387/387/387
f 388/388/388 389/389/389 390/390/390
f 391/391/391 392/392/392 393/393/393
f 394/394/394 395/395/395 396/396/396
o yard-wall-east
usemtl trim-concrete
f 397/397/397 398/398/398 399/399/399
f 400/400/400 401/401/401 402/402/402
f 403/403/403 404/404/404 405/405/405
f 406/406/406 407/407/407 408/408/408
f 409/409/409 410/410/410 411/411/411
f 412/412/412 413/413/413 414/414/414
f 415/415/415 416/416/416 417/417/417
f 418/418/418 419/419/419 420/420/420
f 421/421/421 422/422/422 423/423/423
f 424/424/424 425/425/425 426/426/426
f 427/427/427 428/428/428 429/429/429
f 430/430/430 431/431/431 432/432/432
o yard-wall-west
usemtl trim-concrete
f 433/433/433 434/434/434 435/435/435
f 436/436/436 437/437/437 438/438/438
f 439/439/439 440/440/440 441/441/441
f 442/442/442 443/443/443 444/444/444
f 445/445/445 446/446/446 447/447/447
f 448/448/448 449/449/449 450/450/450
f 451/451/451 452/452/452 453/453/453
f 454/454/454 455/455/455 456/456/456
f 457/457/457 458/458/458 459/459/459
f 460/460/460 461/461/461 462/462/462
f 463/463/463 464/464/464 465/465/465
f 466/466/466 467/467/467 468/468/468
o patrol-cars
usemtl patrol-white
v 1.8250000476837158 0.6800000071525574 -1.0500000715255737
v 1.8250000476837158 0.05999999865889549 -1.0500000715255737
v 1.8250000476837158 0.6800000071525574 -3.1499998569488525
v 1.8250000476837158 0.05999999865889549 -1.0500000715255737
v 1.8250000476837158 0.05999999865889549 -3.1499998569488525
v 1.8250000476837158 0.6800000071525574 -3.1499998569488525
v 0.875 0.6800000071525574 -3.1499998569488525
v 0.875 0.05999999865889549 -3.1499998569488525
v 0.875 0.6800000071525574 -1.0500000715255737
v 0.875 0.05999999865889549 -3.1499998569488525
v 0.875 0.05999999865889549 -1.0500000715255737
v 0.875 0.6800000071525574 -1.0500000715255737
v 0.875 0.6800000071525574 -3.1499998569488525
v 0.875 0.6800000071525574 -1.0500000715255737
v 1.8250000476837158 0.6800000071525574 -3.1499998569488525
v 0.875 0.6800000071525574 -1.0500000715255737
v 1.8250000476837158 0.6800000071525574 -1.0500000715255737
v 1.8250000476837158 0.6800000071525574 -3.1499998569488525
v 0.875 0.05999999865889549 -1.0500000715255737
v 0.875 0.05999999865889549 -3.1499998569488525
v 1.8250000476837158 0.05999999865889549 -1.0500000715255737
v 0.875 0.05999999865889549 -3.1499998569488525
v 1.8250000476837158 0.05999999865889549 -3.1499998569488525
v 1.8250000476837158 0.05999999865889549 -1.0500000715255737
v 0.875 0.6800000071525574 -1.0500000715255737
v 0.875 0.05999999865889549 -1.0500000715255737
v 1.8250000476837158 0.6800000071525574 -1.0500000715255737
v 0.875 0.05999999865889549 -1.0500000715255737
v 1.8250000476837158 0.05999999865889549 -1.0500000715255737
v 1.8250000476837158 0.6800000071525574 -1.0500000715255737
v 1.8250000476837158 0.6800000071525574 -3.1499998569488525
v 1.8250000476837158 0.05999999865889549 -3.1499998569488525
v 0.875 0.6800000071525574 -3.1499998569488525
v 1.8250000476837158 0.05999999865889549 -3.1499998569488525
v 0.875 0.05999999865889549 -3.1499998569488525
v 0.875 0.6800000071525574 -3.1499998569488525
v 3.2249999046325684 0.6800000071525574 -1.0500000715255737
v 3.2249999046325684 0.05999999865889549 -1.0500000715255737
v 3.2249999046325684 0.6800000071525574 -3.1499998569488525
v 3.2249999046325684 0.05999999865889549 -1.0500000715255737
v 3.2249999046325684 0.05999999865889549 -3.1499998569488525
v 3.2249999046325684 0.6800000071525574 -3.1499998569488525
v 2.2750000953674316 0.6800000071525574 -3.1499998569488525
v 2.2750000953674316 0.05999999865889549 -3.1499998569488525
v 2.2750000953674316 0.6800000071525574 -1.0500000715255737
v 2.2750000953674316 0.05999999865889549 -3.1499998569488525
v 2.2750000953674316 0.05999999865889549 -1.0500000715255737
v 2.2750000953674316 0.6800000071525574 -1.0500000715255737
v 2.2750000953674316 0.6800000071525574 -3.1499998569488525
v 2.2750000953674316 0.6800000071525574 -1.0500000715255737
v 3.2249999046325684 0.6800000071525574 -3.1499998569488525
v 2.2750000953674316 0.6800000071525574 -1.0500000715255737
v 3.2249999046325684 0.6800000071525574 -1.0500000715255737
v 3.2249999046325684 0.6800000071525574 -3.1499998569488525
v 2.2750000953674316 0.05999999865889549 -1.0500000715255737
v 2.2750000953674316 0.05999999865889549 -3.1499998569488525
v 3.2249999046325684 0.05999999865889549 -1.0500000715255737
v 2.2750000953674316 0.05999999865889549 -3.1499998569488525
v 3.2249999046325684 0.05999999865889549 -3.1499998569488525
v 3.2249999046325684 0.05999999865889549 -1.0500000715255737
v 2.2750000953674316 0.6800000071525574 -1.0500000715255737
v 2.2750000953674316 0.05999999865889549 -1.0500000715255737
v 3.2249999046325684 0.6800000071525574 -1.0500000715255737
v 2.2750000953674316 0.05999999865889549 -1.0500000715255737
v 3.2249999046325684 0.05999999865889549 -1.0500000715255737
v 3.2249999046325684 0.6800000071525574 -1.0500000715255737
v 3.2249999046325684 0.6800000071525574 -3.1499998569488525
v 3.2249999046325684 0.05999999865889549 -3.1499998569488525
v 2.2750000953674316 0.6800000071525574 -3.1499998569488525
v 3.2249999046325684 0.05999999865889549 -3.1499998569488525
v 2.2750000953674316 0.05999999865889549 -3.1499998569488525
v 2.2750000953674316 0.6800000071525574 -3.1499998569488525
vt 0 1
vt 0 0
vt 1 1
vt 0 0
vt 1 0
vt 1 1
vt 0 1
vt 0 0
vt 1 1
vt 0 0
vt 1 0
vt 1 1
vt 0 1
vt 0 0
vt 1 1
vt 0 0
vt 1 0
vt 1 1
vt 0 1
vt 0 0
vt 1 1
vt 0 0
vt 1 0
vt 1 1
vt 0 1
vt 0 0
vt 1 1
vt 0 0
vt 1 0
vt 1 1
vt 0 1
vt 0 0
vt 1 1
vt 0 0
vt 1 0
vt 1 1
vt 0 1
vt 0 0
vt 1 1
vt 0 0
vt 1 0
vt 1 1
vt 0 1
vt 0 0
vt 1 1
vt 0 0
vt 1 0
vt 1 1
vt 0 1
vt 0 0
vt 1 1
vt 0 0
vt 1 0
vt 1 1
vt 0 1
vt 0 0
vt 1 1
vt 0 0
vt 1 0
vt 1 1
vt 0 1
vt 0 0
vt 1 1
vt 0 0
vt 1 0
vt 1 1
vt 0 1
vt 0 0
vt 1 1
vt 0 0
vt 1 0
vt 1 1
vn 1 0 0
vn 1 0 0
vn 1 0 0
vn 1 0 0
vn 1 0 0
vn 1 0 0
vn -1 0 0
vn -1 0 0
vn -1 0 0
vn -1 0 0
vn -1 0 0
vn -1 0 0
vn 0 1 0
vn 0 1 0
vn 0 1 0
vn 0 1 0
vn 0 1 0
vn 0 1 0
vn 0 -1 0
vn 0 -1 0
vn 0 -1 0
vn 0 -1 0
vn 0 -1 0
vn 0 -1 0
vn 0 0 1
vn 0 0 1
vn 0 0 1
vn 0 0 1
vn 0 0 1
vn 0 0 1
vn 0 0 -1
vn 0 0 -1
vn 0 0 -1
vn 0 0 -1
vn 0 0 -1
vn 0 0 -1
vn 1 0 0
vn 1 0 0
vn 1 0 0
vn 1 0 0
vn 1 0 0
vn 1 0 0
vn -1 0 0
vn -1 0 0
vn -1 0 0
vn -1 0 0
vn -1 0 0
vn -1 0 0
vn 0 1 0
vn 0 1 0
vn 0 1 0
vn 0 1 0
vn 0 1 0
vn 0 1 0
vn 0 -1 0
vn 0 -1 0
vn 0 -1 0
vn 0 -1 0
vn 0 -1 0
vn 0 -1 0
vn 0 0 1
vn 0 0 1
vn 0 0 1
vn 0 0 1
vn 0 0 1
vn 0 0 1
vn 0 0 -1
vn 0 0 -1
vn 0 0 -1
vn 0 0 -1
vn 0 0 -1
vn 0 0 -1
f 469/469/469 470/470/470 471/471/471
f 472/472/472 473/473/473 474/474/474
f 475/475/475 476/476/476 477/477/477
f 478/478/478 479/479/479 480/480/480
f 481/481/481 482/482/482 483/483/483
f 484/484/484 485/485/485 486/486/486
f 487/487/487 488/488/488 489/489/489
f 490/490/490 491/491/491 492/492/492
f 493/493/493 494/494/494 495/495/495
f 496/496/496 497/497/497 498/498/498
f 499/499/499 500/500/500 501/501/501
f 502/502/502 503/503/503 504/504/504
f 505/505/505 506/506/506 507/507/507
f 508/508/508 509/509/509 510/510/510
f 511/511/511 512/512/512 513/513/513
f 514/514/514 515/515/515 516/516/516
f 517/517/517 518/518/518 519/519/519
f 520/520/520 521/521/521 522/522/522
f 523/523/523 524/524/524 525/525/525
f 526/526/526 527/527/527 528/528/528
f 529/529/529 530/530/530 531/531/531
f 532/532/532 533/533/533 534/534/534
f 535/535/535 536/536/536 537/537/537
f 538/538/538 539/539/539 540/540/540
o car-glazing
usemtl glazing
v 1.8450000286102295 0.7300000190734863 -1.8250000476837158
v 1.8450000286102295 0.4699999988079071 -1.8250000476837158
v 1.8450000286102295 0.7300000190734863 -2.875
v 1.8450000286102295 0.4699999988079071 -1.8250000476837158
v 1.8450000286102295 0.4699999988079071 -2.875
v 1.8450000286102295 0.7300000190734863 -2.875
v 0.8550000190734863 0.7300000190734863 -2.875
v 0.8550000190734863 0.4699999988079071 -2.875
v 0.8550000190734863 0.7300000190734863 -1.8250000476837158
v 0.8550000190734863 0.4699999988079071 -2.875
v 0.8550000190734863 0.4699999988079071 -1.8250000476837158
v 0.8550000190734863 0.7300000190734863 -1.8250000476837158
v 0.8550000190734863 0.7300000190734863 -2.875
v 0.8550000190734863 0.7300000190734863 -1.8250000476837158
v 1.8450000286102295 0.7300000190734863 -2.875
v 0.8550000190734863 0.7300000190734863 -1.8250000476837158
v 1.8450000286102295 0.7300000190734863 -1.8250000476837158
v 1.8450000286102295 0.7300000190734863 -2.875
v 0.8550000190734863 0.4699999988079071 -1.8250000476837158
v 0.8550000190734863 0.4699999988079071 -2.875
v 1.8450000286102295 0.4699999988079071 -1.8250000476837158
v 0.8550000190734863 0.4699999988079071 -2.875
v 1.8450000286102295 0.4699999988079071 -2.875
v 1.8450000286102295 0.4699999988079071 -1.8250000476837158
v 0.8550000190734863 0.7300000190734863 -1.8250000476837158
v 0.8550000190734863 0.4699999988079071 -1.8250000476837158
v 1.8450000286102295 0.7300000190734863 -1.8250000476837158
v 0.8550000190734863 0.4699999988079071 -1.8250000476837158
v 1.8450000286102295 0.4699999988079071 -1.8250000476837158
v 1.8450000286102295 0.7300000190734863 -1.8250000476837158
v 1.8450000286102295 0.7300000190734863 -2.875
v 1.8450000286102295 0.4699999988079071 -2.875
v 0.8550000190734863 0.7300000190734863 -2.875
v 1.8450000286102295 0.4699999988079071 -2.875
v 0.8550000190734863 0.4699999988079071 -2.875
v 0.8550000190734863 0.7300000190734863 -2.875
v 3.244999885559082 0.7300000190734863 -1.8250000476837158
v 3.244999885559082 0.4699999988079071 -1.8250000476837158
v 3.244999885559082 0.7300000190734863 -2.875
v 3.244999885559082 0.4699999988079071 -1.8250000476837158
v 3.244999885559082 0.4699999988079071 -2.875
v 3.244999885559082 0.7300000190734863 -2.875
v 2.255000114440918 0.7300000190734863 -2.875
v 2.255000114440918 0.4699999988079071 -2.875
v 2.255000114440918 0.7300000190734863 -1.8250000476837158
v 2.255000114440918 0.4699999988079071 -2.875
v 2.255000114440918 0.4699999988079071 -1.8250000476837158
v 2.255000114440918 0.7300000190734863 -1.8250000476837158
v 2.255000114440918 0.7300000190734863 -2.875
v 2.255000114440918 0.7300000190734863 -1.8250000476837158
v 3.244999885559082 0.7300000190734863 -2.875
v 2.255000114440918 0.7300000190734863 -1.8250000476837158
v 3.244999885559082 0.7300000190734863 -1.8250000476837158
v 3.244999885559082 0.7300000190734863 -2.875
v 2.255000114440918 0.4699999988079071 -1.8250000476837158
v 2.255000114440918 0.4699999988079071 -2.875
v 3.244999885559082 0.4699999988079071 -1.8250000476837158
v 2.255000114440918 0.4699999988079071 -2.875
v 3.244999885559082 0.4699999988079071 -2.875
v 3.244999885559082 0.4699999988079071 -1.8250000476837158
v 2.255000114440918 0.7300000190734863 -1.8250000476837158
v 2.255000114440918 0.4699999988079071 -1.8250000476837158
v 3.244999885559082 0.7300000190734863 -1.8250000476837158
v 2.255000114440918 0.4699999988079071 -1.8250000476837158
v 3.244999885559082 0.4699999988079071 -1.8250000476837158
v 3.244999885559082 0.7300000190734863 -1.8250000476837158
v 3.244999885559082 0.7300000190734863 -2.875
v 3.244999885559082 0.4699999988079071 -2.875
v 2.255000114440918 0.7300000190734863 -2.875
v 3.244999885559082 0.4699999988079071 -2.875
v 2.255000114440918 0.4699999988079071 -2.875
v 2.255000114440918 0.7300000190734863 -2.875
vt 0 1
vt 0 0
vt 1 1
vt 0 0
vt 1 0
vt 1 1
vt 0 1
vt 0 0
vt 1 1
vt 0 0
vt 1 0
vt 1 1
vt 0 1
vt 0 0
vt 1 1
vt 0 0
vt 1 0
vt 1 1
vt 0 1
vt 0 0
vt 1 1
vt 0 0
vt 1 0
vt 1 1
vt 0 1
vt 0 0
vt 1 1
vt 0 0
vt 1 0
vt 1 1
vt 0 1
vt 0 0
vt 1 1
vt 0 0
vt 1 0
vt 1 1
vt 0 1
vt 0 0
vt 1 1
vt 0 0
vt 1 0
vt 1 1
vt 0 1
vt 0 0
vt 1 1
vt 0 0
vt 1 0
vt 1 1
vt 0 1
vt 0 0
vt 1 1
vt 0 0
vt 1 0
vt 1 1
vt 0 1
vt 0 0
vt 1 1
vt 0 0
vt 1 0
vt 1 1
vt 0 1
vt 0 0
vt 1 1
vt 0 0
vt 1 0
vt 1 1
vt 0 1
vt 0 0
vt 1 1
vt 0 0
vt 1 0
vt 1 1
vn 1 0 0
vn 1 0 0
vn 1 0 0
vn 1 0 0
vn 1 0 0
vn 1 0 0
vn -1 0 0
vn -1 0 0
vn -1 0 0
vn -1 0 0
vn -1 0 0
vn -1 0 0
vn 0 1 0
vn 0 1 0
vn 0 1 0
vn 0 1 0
vn 0 1 0
vn 0 1 0
vn 0 -1 0
vn 0 -1 0
vn 0 -1 0
vn 0 -1 0
vn 0 -1 0
vn 0 -1 0
vn 0 0 1
vn 0 0 1
vn 0 0 1
vn 0 0 1
vn 0 0 1
vn 0 0 1
vn 0 0 -1
vn 0 0 -1
vn 0 0 -1
vn 0 0 -1
vn 0 0 -1
vn 0 0 -1
vn 1 0 0
vn 1 0 0
vn 1 0 0
vn 1 0 0
vn 1 0 0
vn 1 0 0
vn -1 0 0
vn -1 0 0
vn -1 0 0
vn -1 0 0
vn -1 0 0
vn -1 0 0
vn 0 1 0
vn 0 1 0
vn 0 1 0
vn 0 1 0
vn 0 1 0
vn 0 1 0
vn 0 -1 0
vn 0 -1 0
vn 0 -1 0
vn 0 -1 0
vn 0 -1 0
vn 0 -1 0
vn 0 0 1
vn 0 0 1
vn 0 0 1
vn 0 0 1
vn 0 0 1
vn 0 0 1
vn 0 0 -1
vn 0 0 -1
vn 0 0 -1
vn 0 0 -1
vn 0 0 -1
vn 0 0 -1
f 541/541/541 542/542/542 543/543/543
f 544/544/544 545/545/545 546/546/546
f 547/547/547 548/548/548 549/549/549
f 550/550/550 551/551/551 552/552/552
f 553/553/553 554/554/554 555/555/555
f 556/556/556 557/557/557 558/558/558
f 559/559/559 560/560/560 561/561/561
f 562/562/562 563/563/563 564/564/564
f 565/565/565 566/566/566 567/567/567
f 568/568/568 569/569/569 570/570/570
f 571/571/571 572/572/572 573/573/573
f 574/574/574 575/575/575 576/576/576
f 577/577/577 578/578/578 579/579/579
f 580/580/580 581/581/581 582/582/582
f 583/583/583 584/584/584 585/585/585
f 586/586/586 587/587/587 588/588/588
f 589/589/589 590/590/590 591/591/591
f 592/592/592 593/593/593 594/594/594
f 595/595/595 596/596/596 597/597/597
f 598/598/598 599/599/599 600/600/600
f 601/601/601 602/602/602 603/603/603
f 604/604/604 605/605/605 606/606/606
f 607/607/607 608/608/608 609/609/609
f 610/610/610 611/611/611 612/612/612
o mast
usemtl mast-grey
v 0.9800000190734863 6.159999847412109 2.680000066757202
v 0.9800000190734863 2.759999990463257 2.680000066757202
v 0.9800000190734863 6.159999847412109 2.5199999809265137
v 0.9800000190734863 2.759999990463257 2.680000066757202
v 0.9800000190734863 2.759999990463257 2.5199999809265137
v 0.9800000190734863 6.159999847412109 2.5199999809265137
v 0.8199999928474426 6.159999847412109 2.5199999809265137
v 0.8199999928474426 2.759999990463257 2.5199999809265137
v 0.8199999928474426 6.159999847412109 2.680000066757202
v 0.8199999928474426 2.759999990463257 2.5199999809265137
v 0.8199999928474426 2.759999990463257 2.680000066757202
v 0.8199999928474426 6.159999847412109 2.680000066757202
v 0.8199999928474426 6.159999847412109 2.5199999809265137
v 0.8199999928474426 6.159999847412109 2.680000066757202
v 0.9800000190734863 6.159999847412109 2.5199999809265137
v 0.8199999928474426 6.159999847412109 2.680000066757202
v 0.9800000190734863 6.159999847412109 2.680000066757202
v 0.9800000190734863 6.159999847412109 2.5199999809265137
v 0.8199999928474426 2.759999990463257 2.680000066757202
v 0.8199999928474426 2.759999990463257 2.5199999809265137
v 0.9800000190734863 2.759999990463257 2.680000066757202
v 0.8199999928474426 2.759999990463257 2.5199999809265137
v 0.9800000190734863 2.759999990463257 2.5199999809265137
v 0.9800000190734863 2.759999990463257 2.680000066757202
v 0.8199999928474426 6.159999847412109 2.680000066757202
v 0.8199999928474426 2.759999990463257 2.680000066757202
v 0.9800000190734863 6.159999847412109 2.680000066757202
v 0.8199999928474426 2.759999990463257 2.680000066757202
v 0.9800000190734863 2.759999990463257 2.680000066757202
v 0.9800000190734863 6.159999847412109 2.680000066757202
v 0.9800000190734863 6.159999847412109 2.5199999809265137
v 0.9800000190734863 2.759999990463257 2.5199999809265137
v 0.8199999928474426 6.159999847412109 2.5199999809265137
v 0.9800000190734863 2.759999990463257 2.5199999809265137
v 0.8199999928474426 2.759999990463257 2.5199999809265137
v 0.8199999928474426 6.159999847412109 2.5199999809265137
v 1.5499999523162842 5.610000133514404 2.6500000953674316
v 1.5499999523162842 5.510000228881836 2.6500000953674316
v 1.5499999523162842 5.610000133514404 2.549999952316284
v 1.5499999523162842 5.510000228881836 2.6500000953674316
v 1.5499999523162842 5.510000228881836 2.549999952316284
v 1.5499999523162842 5.610000133514404 2.549999952316284
v 0.2500000298023224 5.610000133514404 2.549999952316284
v 0.2500000298023224 5.510000228881836 2.549999952316284
v 0.2500000298023224 5.610000133514404 2.6500000953674316
v 0.2500000298023224 5.510000228881836 2.549999952316284
v 0.2500000298023224 5.510000228881836 2.6500000953674316
v 0.2500000298023224 5.610000133514404 2.6500000953674316
v 0.2500000298023224 5.610000133514404 2.549999952316284
v 0.2500000298023224 5.610000133514404 2.6500000953674316
v 1.5499999523162842 5.610000133514404 2.549999952316284
v 0.2500000298023224 5.610000133514404 2.6500000953674316
v 1.5499999523162842 5.610000133514404 2.6500000953674316
v 1.5499999523162842 5.610000133514404 2.549999952316284
v 0.2500000298023224 5.510000228881836 2.6500000953674316
v 0.2500000298023224 5.510000228881836 2.549999952316284
v 1.5499999523162842 5.510000228881836 2.6500000953674316
v 0.2500000298023224 5.510000228881836 2.549999952316284
v 1.5499999523162842 5.510000228881836 2.549999952316284
v 1.5499999523162842 5.510000228881836 2.6500000953674316
v 0.2500000298023224 5.610000133514404 2.6500000953674316
v 0.2500000298023224 5.510000228881836 2.6500000953674316
v 1.5499999523162842 5.610000133514404 2.6500000953674316
v 0.2500000298023224 5.510000228881836 2.6500000953674316
v 1.5499999523162842 5.510000228881836 2.6500000953674316
v 1.5499999523162842 5.610000133514404 2.6500000953674316
v 1.5499999523162842 5.610000133514404 2.549999952316284
v 1.5499999523162842 5.510000228881836 2.549999952316284
v 0.2500000298023224 5.610000133514404 2.549999952316284
v 1.5499999523162842 5.510000228881836 2.549999952316284
v 0.2500000298023224 5.510000228881836 2.549999952316284
v 0.2500000298023224 5.610000133514404 2.549999952316284
v 0.949999988079071 5.110000133514404 3.0999999046325684
v 0.949999988079071 5.010000228881836 3.0999999046325684
v 0.949999988079071 5.110000133514404 2.0999999046325684
v 0.949999988079071 5.010000228881836 3.0999999046325684
v 0.949999988079071 5.010000228881836 2.0999999046325684
v 0.949999988079071 5.110000133514404 2.0999999046325684
v 0.8500000238418579 5.110000133514404 2.0999999046325684
v 0.8500000238418579 5.010000228881836 2.0999999046325684
v 0.8500000238418579 5.110000133514404 3.0999999046325684
v 0.8500000238418579 5.010000228881836 2.0999999046325684
v 0.8500000238418579 5.010000228881836 3.0999999046325684
v 0.8500000238418579 5.110000133514404 3.0999999046325684
v 0.8500000238418579 5.110000133514404 2.0999999046325684
v 0.8500000238418579 5.110000133514404 3.0999999046325684
v 0.949999988079071 5.110000133514404 2.0999999046325684
v 0.8500000238418579 5.110000133514404 3.0999999046325684
v 0.949999988079071 5.110000133514404 3.0999999046325684
v 0.949999988079071 5.110000133514404 2.0999999046325684
v 0.8500000238418579 5.010000228881836 3.0999999046325684
v 0.8500000238418579 5.010000228881836 2.0999999046325684
v 0.949999988079071 5.010000228881836 3.0999999046325684
v 0.8500000238418579 5.010000228881836 2.0999999046325684
v 0.949999988079071 5.010000228881836 2.0999999046325684
v 0.949999988079071 5.010000228881836 3.0999999046325684
v 0.8500000238418579 5.110000133514404 3.0999999046325684
v 0.8500000238418579 5.010000228881836 3.0999999046325684
v 0.949999988079071 5.110000133514404 3.0999999046325684
v 0.8500000238418579 5.010000228881836 3.0999999046325684
v 0.949999988079071 5.010000228881836 3.0999999046325684
v 0.949999988079071 5.110000133514404 3.0999999046325684
v 0.949999988079071 5.110000133514404 2.0999999046325684
v 0.949999988079071 5.010000228881836 2.0999999046325684
v 0.8500000238418579 5.110000133514404 2.0999999046325684
v 0.949999988079071 5.010000228881836 2.0999999046325684
v 0.8500000238418579 5.010000228881836 2.0999999046325684
v 0.8500000238418579 5.110000133514404 2.0999999046325684
v -1.7999999523162842 3.0399999618530273 1.399999976158142
v -1.7999999523162842 2.759999990463257 1.399999976158142
v -1.7999999523162842 3.0399999618530273 0.6000000238418579
v -1.7999999523162842 2.759999990463257 1.399999976158142
v -1.7999999523162842 2.759999990463257 0.6000000238418579
v -1.7999999523162842 3.0399999618530273 0.6000000238418579
v -3 3.0399999618530273 0.6000000238418579
v -3 2.759999990463257 0.6000000238418579
v -3 3.0399999618530273 1.399999976158142
v -3 2.759999990463257 0.6000000238418579
v -3 2.759999990463257 1.399999976158142
v -3 3.0399999618530273 1.399999976158142
v -3 3.0399999618530273 0.6000000238418579
v -3 3.0399999618530273 1.399999976158142
v -1.7999999523162842 3.0399999618530273 0.6000000238418579
v -3 3.0399999618530273 1.399999976158142
v -1.7999999523162842 3.0399999618530273 1.399999976158142
v -1.7999999523162842 3.0399999618530273 0.6000000238418579
v -3 2.759999990463257 1.399999976158142
v -3 2.759999990463257 0.6000000238418579
v -1.7999999523162842 2.759999990463257 1.399999976158142
v -3 2.759999990463257 0.6000000238418579
v -1.7999999523162842 2.759999990463257 0.6000000238418579
v -1.7999999523162842 2.759999990463257 1.399999976158142
v -3 3.0399999618530273 1.399999976158142
v -3 2.759999990463257 1.399999976158142
v -1.7999999523162842 3.0399999618530273 1.399999976158142
v -3 2.759999990463257 1.399999976158142
v -1.7999999523162842 2.759999990463257 1.399999976158142
v -1.7999999523162842 3.0399999618530273 1.399999976158142
v -1.7999999523162842 3.0399999618530273 0.6000000238418579
v -1.7999999523162842 2.759999990463257 0.6000000238418579
v -3 3.0399999618530273 0.6000000238418579
v -1.7999999523162842 2.759999990463257 0.6000000238418579
v -3 2.759999990463257 0.6000000238418579
v -3 3.0399999618530273 0.6000000238418579
v -2.049999952316284 3.0399999618530273 2.950000047683716
v -2.049999952316284 2.759999990463257 2.950000047683716
v -2.049999952316284 3.0399999618530273 2.25
v -2.049999952316284 2.759999990463257 2.950000047683716
v -2.049999952316284 2.759999990463257 2.25
v -2.049999952316284 3.0399999618530273 2.25
v -2.75 3.0399999618530273 2.25
v -2.75 2.759999990463257 2.25
v -2.75 3.0399999618530273 2.950000047683716
v -2.75 2.759999990463257 2.25
v -2.75 2.759999990463257 2.950000047683716
v -2.75 3.0399999618530273 2.950000047683716
v -2.75 3.0399999618530273 2.25
v -2.75 3.0399999618530273 2.950000047683716
v -2.049999952316284 3.0399999618530273 2.25
v -2.75 3.0399999618530273 2.950000047683716
v -2.049999952316284 3.0399999618530273 2.950000047683716
v -2.049999952316284 3.0399999618530273 2.25
v -2.75 2.759999990463257 2.950000047683716
v -2.75 2.759999990463257 2.25
v -2.049999952316284 2.759999990463257 2.950000047683716
v -2.75 2.759999990463257 2.25
v -2.049999952316284 2.759999990463257 2.25
v -2.049999952316284 2.759999990463257 2.950000047683716
v -2.75 3.0399999618530273 2.950000047683716
v -2.75 2.759999990463257 2.950000047683716
v -2.049999952316284 3.0399999618530273 2.950000047683716
v -2.75 2.759999990463257 2.950000047683716
v -2.049999952316284 2.759999990463257 2.950000047683716
v -2.049999952316284 3.0399999618530273 2.950000047683716
v -2.049999952316284 3.0399999618530273 2.25
v -2.049999952316284 2.759999990463257 2.25
v -2.75 3.0399999618530273 2.25
v -2.049999952316284 2.759999990463257 2.25
v -2.75 2.759999990463257 2.25
v -2.75 3.0399999618530273 2.25
vt 0 1
vt 0 0
vt 1 1
vt 0 0
vt 1 0
vt 1 1
vt 0 1
vt 0 0
vt 1 1
vt 0 0
vt 1 0
vt 1 1
vt 0 1
vt 0 0
vt 1 1
vt 0 0
vt 1 0
vt 1 1
vt 0 1
vt 0 0
vt 1 1
vt 0 0
vt 1 0
vt 1 1
vt 0 1
vt 0 0
vt 1 1
vt 0 0
vt 1 0
vt 1 1
vt 0 1
vt 0 0
vt 1 1
vt 0 0
vt 1 0
vt 1 1
vt 0 1
vt 0 0
vt 1 1
vt 0 0
vt 1 0
vt 1 1
vt 0 1
vt 0 0
vt 1 1
vt 0 0
vt 1 0
vt 1 1
vt 0 1
vt 0 0
vt 1 1
vt 0 0
vt 1 0
vt 1 1
vt 0 1
vt 0 0
vt 1 1
vt 0 0
vt 1 0
vt 1 1
vt 0 1
vt 0 0
vt 1 1
vt 0 0
vt 1 0
vt 1 1
vt 0 1
vt 0 0
vt 1 1
vt 0 0
vt 1 0
vt 1 1
vt 0 1
vt 0 0
vt 1 1
vt 0 0
vt 1 0
vt 1 1
vt 0 1
vt 0 0
vt 1 1
vt 0 0
vt 1 0
vt 1 1
vt 0 1
vt 0 0
vt 1 1
vt 0 0
vt 1 0
vt 1 1
vt 0 1
vt 0 0
vt 1 1
vt 0 0
vt 1 0
vt 1 1
vt 0 1
vt 0 0
vt 1 1
vt 0 0
vt 1 0
vt 1 1
vt 0 1
vt 0 0
vt 1 1
vt 0 0
vt 1 0
vt 1 1
vt 0 1
vt 0 0
vt 1 1
vt 0 0
vt 1 0
vt 1 1
vt 0 1
vt 0 0
vt 1 1
vt 0 0
vt 1 0
vt 1 1
vt 0 1
vt 0 0
vt 1 1
vt 0 0
vt 1 0
vt 1 1
vt 0 1
vt 0 0
vt 1 1
vt 0 0
vt 1 0
vt 1 1
vt 0 1
vt 0 0
vt 1 1
vt 0 0
vt 1 0
vt 1 1
vt 0 1
vt 0 0
vt 1 1
vt 0 0
vt 1 0
vt 1 1
vt 0 1
vt 0 0
vt 1 1
vt 0 0
vt 1 0
vt 1 1
vt 0 1
vt 0 0
vt 1 1
vt 0 0
vt 1 0
vt 1 1
vt 0 1
vt 0 0
vt 1 1
vt 0 0
vt 1 0
vt 1 1
vt 0 1
vt 0 0
vt 1 1
vt 0 0
vt 1 0
vt 1 1
vt 0 1
vt 0 0
vt 1 1
vt 0 0
vt 1 0
vt 1 1
vt 0 1
vt 0 0
vt 1 1
vt 0 0
vt 1 0
vt 1 1
vn 1 0 0
vn 1 0 0
vn 1 0 0
vn 1 0 0
vn 1 0 0
vn 1 0 0
vn -1 0 0
vn -1 0 0
vn -1 0 0
vn -1 0 0
vn -1 0 0
vn -1 0 0
vn 0 1 0
vn 0 1 0
vn 0 1 0
vn 0 1 0
vn 0 1 0
vn 0 1 0
vn 0 -1 0
vn 0 -1 0
vn 0 -1 0
vn 0 -1 0
vn 0 -1 0
vn 0 -1 0
vn 0 0 1
vn 0 0 1
vn 0 0 1
vn 0 0 1
vn 0 0 1
vn 0 0 1
vn 0 0 -1
vn 0 0 -1
vn 0 0 -1
vn 0 0 -1
vn 0 0 -1
vn 0 0 -1
vn 1 0 0
vn 1 0 0
vn 1 0 0
vn 1 0 0
vn 1 0 0
vn 1 0 0
vn -1 0 0
vn -1 0 0
vn -1 0 0
vn -1 0 0
vn -1 0 0
vn -1 0 0
vn 0 1 0
vn 0 1 0
vn 0 1 0
vn 0 1 0
vn 0 1 0
vn 0 1 0
vn 0 -1 0
vn 0 -1 0
vn 0 -1 0
vn 0 -1 0
vn 0 -1 0
vn 0 -1 0
vn 0 0 1
vn 0 0 1
vn 0 0 1
vn 0 0 1
vn 0 0 1
vn 0 0 1
vn 0 0 -1
vn 0 0 -1
vn 0 0 -1
vn 0 0 -1
vn 0 0 -1
vn 0 0 -1
vn 1 0 0
vn 1 0 0
vn 1 0 0
vn 1 0 0
vn 1 0 0
vn 1 0 0
vn -1 0 0
vn -1 0 0
vn -1 0 0
vn -1 0 0
vn -1 0 0
vn -1 0 0
vn 0 1 0
vn 0 1 0
vn 0 1 0
vn 0 1 0
vn 0 1 0
vn 0 1 0
vn 0 -1 0
vn 0 -1 0
vn 0 -1 0
vn 0 -1 0
vn 0 -1 0
vn 0 -1 0
vn 0 0 1
vn 0 0 1
vn 0 0 1
vn 0 0 1
vn 0 0 1
vn 0 0 1
vn 0 0 -1
vn 0 0 -1
vn 0 0 -1
vn 0 0 -1
vn 0 0 -1
vn 0 0 -1
vn 1 0 0
vn 1 0 0
vn 1 0 0
vn 1 0 0
vn 1 0 0
vn 1 0 0
vn -1 0 0
vn -1 0 0
vn -1 0 0
vn -1 0 0
vn -1 0 0
vn -1 0 0
vn 0 1 0
vn 0 1 0
vn 0 1 0
vn 0 1 0
vn 0 1 0
vn 0 1 0
vn 0 -1 0
vn 0 -1 0
vn 0 -1 0
vn 0 -1 0
vn 0 -1 0
vn 0 -1 0
vn 0 0 1
vn 0 0 1
vn 0 0 1
vn 0 0 1
vn 0 0 1
vn 0 0 1
vn 0 0 -1
vn 0 0 -1
vn 0 0 -1
vn 0 0 -1
vn 0 0 -1
vn 0 0 -1
vn 1 0 0
vn 1 0 0
vn 1 0 0
vn 1 0 0
vn 1 0 0
vn 1 0 0
vn -1 0 0
vn -1 0 0
vn -1 0 0
vn -1 0 0
vn -1 0 0
vn -1 0 0
vn 0 1 0
vn 0 1 0
vn 0 1 0
vn 0 1 0
vn 0 1 0
vn 0 1 0
vn 0 -1 0
vn 0 -1 0
vn 0 -1 0
vn 0 -1 0
vn 0 -1 0
vn 0 -1 0
vn 0 0 1
vn 0 0 1
vn 0 0 1
vn 0 0 1
vn 0 0 1
vn 0 0 1
vn 0 0 -1
vn 0 0 -1
vn 0 0 -1
vn 0 0 -1
vn 0 0 -1
vn 0 0 -1
f 613/613/613 614/614/614 615/615/615
f 616/616/616 617/617/617 618/618/618
f 619/619/619 620/620/620 621/621/621
f 622/622/622 623/623/623 624/624/624
f 625/625/625 626/626/626 627/627/627
f 628/628/628 629/629/629 630/630/630
f 631/631/631 632/632/632 633/633/633
f 634/634/634 635/635/635 636/636/636
f 637/637/637 638/638/638 639/639/639
f 640/640/640 641/641/641 642/642/642
f 643/643/643 644/644/644 645/645/645
f 646/646/646 647/647/647 648/648/648
f 649/649/649 650/650/650 651/651/651
f 652/652/652 653/653/653 654/654/654
f 655/655/655 656/656/656 657/657/657
f 658/658/658 659/659/659 660/660/660
f 661/661/661 662/662/662 663/663/663
f 664/664/664 665/665/665 666/666/666
f 667/667/667 668/668/668 669/669/669
f 670/670/670 671/671/671 672/672/672
f 673/673/673 674/674/674 675/675/675
f 676/676/676 677/677/677 678/678/678
f 679/679/679 680/680/680 681/681/681
f 682/682/682 683/683/683 684/684/684
f 685/685/685 686/686/686 687/687/687
f 688/688/688 689/689/689 690/690/690
f 691/691/691 692/692/692 693/693/693
f 694/694/694 695/695/695 696/696/696
f 697/697/697 698/698/698 699/699/699
f 700/700/700 701/701/701 702/702/702
f 703/703/703 704/704/704 705/705/705
f 706/706/706 707/707/707 708/708/708
f 709/709/709 710/710/710 711/711/711
f 712/712/712 713/713/713 714/714/714
f 715/715/715 716/716/716 717/717/717
f 718/718/718 719/719/719 720/720/720
f 721/721/721 722/722/722 723/723/723
f 724/724/724 725/725/725 726/726/726
f 727/727/727 728/728/728 729/729/729
f 730/730/730 731/731/731 732/732/732
f 733/733/733 734/734/734 735/735/735
f 736/736/736 737/737/737 738/738/738
f 739/739/739 740/740/740 741/741/741
f 742/742/742 743/743/743 744/744/744
f 745/745/745 746/746/746 747/747/747
f 748/748/748 749/749/749 750/750/750
f 751/751/751 752/752/752 753/753/753
f 754/754/754 755/755/755 756/756/756
f 757/757/757 758/758/758 759/759/759
f 760/760/760 761/761/761 762/762/762
f 763/763/763 764/764/764 765/765/765
f 766/766/766 767/767/767 768/768/768
f 769/769/769 770/770/770 771/771/771
f 772/772/772 773/773/773 774/774/774
f 775/775/775 776/776/776 777/777/777
f 778/778/778 779/779/779 780/780/780
f 781/781/781 782/782/782 783/783/783
f 784/784/784 785/785/785 786/786/786
f 787/787/787 788/788/788 789/789/789
f 790/790/790 791/791/791 792/792/792
o blue-lights
usemtl signal-blue
v -0.7799999713897705 2.0399999618530273 3.7100000381469727
v -0.7799999713897705 1.6799999475479126 3.7100000381469727
v -0.7799999713897705 2.0399999618530273 3.450000047683716
v -0.7799999713897705 1.6799999475479126 3.7100000381469727
v -0.7799999713897705 1.6799999475479126 3.450000047683716
v -0.7799999713897705 2.0399999618530273 3.450000047683716
v -1.1200000047683716 2.0399999618530273 3.450000047683716
v -1.1200000047683716 1.6799999475479126 3.450000047683716
v -1.1200000047683716 2.0399999618530273 3.7100000381469727
v -1.1200000047683716 1.6799999475479126 3.450000047683716
v -1.1200000047683716 1.6799999475479126 3.7100000381469727
v -1.1200000047683716 2.0399999618530273 3.7100000381469727
v -1.1200000047683716 2.0399999618530273 3.450000047683716
v -1.1200000047683716 2.0399999618530273 3.7100000381469727
v -0.7799999713897705 2.0399999618530273 3.450000047683716
v -1.1200000047683716 2.0399999618530273 3.7100000381469727
v -0.7799999713897705 2.0399999618530273 3.7100000381469727
v -0.7799999713897705 2.0399999618530273 3.450000047683716
v -1.1200000047683716 1.6799999475479126 3.7100000381469727
v -1.1200000047683716 1.6799999475479126 3.450000047683716
v -0.7799999713897705 1.6799999475479126 3.7100000381469727
v -1.1200000047683716 1.6799999475479126 3.450000047683716
v -0.7799999713897705 1.6799999475479126 3.450000047683716
v -0.7799999713897705 1.6799999475479126 3.7100000381469727
v -1.1200000047683716 2.0399999618530273 3.7100000381469727
v -1.1200000047683716 1.6799999475479126 3.7100000381469727
v -0.7799999713897705 2.0399999618530273 3.7100000381469727
v -1.1200000047683716 1.6799999475479126 3.7100000381469727
v -0.7799999713897705 1.6799999475479126 3.7100000381469727
v -0.7799999713897705 2.0399999618530273 3.7100000381469727
v -0.7799999713897705 2.0399999618530273 3.450000047683716
v -0.7799999713897705 1.6799999475479126 3.450000047683716
v -1.1200000047683716 2.0399999618530273 3.450000047683716
v -0.7799999713897705 1.6799999475479126 3.450000047683716
v -1.1200000047683716 1.6799999475479126 3.450000047683716
v -1.1200000047683716 2.0399999618530273 3.450000047683716
v 1 6.400000095367432 2.700000047683716
v 1 6.159999847412109 2.700000047683716
v 1 6.400000095367432 2.5
v 1 6.159999847412109 2.700000047683716
v 1 6.159999847412109 2.5
v 1 6.400000095367432 2.5
v 0.800000011920929 6.400000095367432 2.5
v 0.800000011920929 6.159999847412109 2.5
v 0.800000011920929 6.400000095367432 2.700000047683716
v 0.800000011920929 6.159999847412109 2.5
v 0.800000011920929 6.159999847412109 2.700000047683716
v 0.800000011920929 6.400000095367432 2.700000047683716
v 0.800000011920929 6.400000095367432 2.5
v 0.800000011920929 6.400000095367432 2.700000047683716
v 1 6.400000095367432 2.5
v 0.800000011920929 6.400000095367432 2.700000047683716
v 1 6.400000095367432 2.700000047683716
v 1 6.400000095367432 2.5
v 0.800000011920929 6.159999847412109 2.700000047683716
v 0.800000011920929 6.159999847412109 2.5
v 1 6.159999847412109 2.700000047683716
v 0.800000011920929 6.159999847412109 2.5
v 1 6.159999847412109 2.5
v 1 6.159999847412109 2.700000047683716
v 0.800000011920929 6.400000095367432 2.700000047683716
v 0.800000011920929 6.159999847412109 2.700000047683716
v 1 6.400000095367432 2.700000047683716
v 0.800000011920929 6.159999847412109 2.700000047683716
v 1 6.159999847412109 2.700000047683716
v 1 6.400000095367432 2.700000047683716
v 1 6.400000095367432 2.5
v 1 6.159999847412109 2.5
v 0.800000011920929 6.400000095367432 2.5
v 1 6.159999847412109 2.5
v 0.800000011920929 6.159999847412109 2.5
v 0.800000011920929 6.400000095367432 2.5
v 1.649999976158142 0.8100000023841858 -2.240000009536743
v 1.649999976158142 0.7099999785423279 -2.240000009536743
v 1.649999976158142 0.8100000023841858 -2.4600000381469727
v 1.649999976158142 0.7099999785423279 -2.240000009536743
v 1.649999976158142 0.7099999785423279 -2.4600000381469727
v 1.649999976158142 0.8100000023841858 -2.4600000381469727
v 1.0499999523162842 0.8100000023841858 -2.4600000381469727
v 1.0499999523162842 0.7099999785423279 -2.4600000381469727
v 1.0499999523162842 0.8100000023841858 -2.240000009536743
v 1.0499999523162842 0.7099999785423279 -2.4600000381469727
v 1.0499999523162842 0.7099999785423279 -2.240000009536743
v 1.0499999523162842 0.8100000023841858 -2.240000009536743
v 1.0499999523162842 0.8100000023841858 -2.4600000381469727
v 1.0499999523162842 0.8100000023841858 -2.240000009536743
v 1.649999976158142 0.8100000023841858 -2.4600000381469727
v 1.0499999523162842 0.8100000023841858 -2.240000009536743
v 1.649999976158142 0.8100000023841858 -2.240000009536743
v 1.649999976158142 0.8100000023841858 -2.4600000381469727
v 1.0499999523162842 0.7099999785423279 -2.240000009536743
v 1.0499999523162842 0.7099999785423279 -2.4600000381469727
v 1.649999976158142 0.7099999785423279 -2.240000009536743
v 1.0499999523162842 0.7099999785423279 -2.4600000381469727
v 1.649999976158142 0.7099999785423279 -2.4600000381469727
v 1.649999976158142 0.7099999785423279 -2.240000009536743
v 1.0499999523162842 0.8100000023841858 -2.240000009536743
v 1.0499999523162842 0.7099999785423279 -2.240000009536743
v 1.649999976158142 0.8100000023841858 -2.240000009536743
v 1.0499999523162842 0.7099999785423279 -2.240000009536743
v 1.649999976158142 0.7099999785423279 -2.240000009536743
v 1.649999976158142 0.8100000023841858 -2.240000009536743
v 1.649999976158142 0.8100000023841858 -2.4600000381469727
v 1.649999976158142 0.7099999785423279 -2.4600000381469727
v 1.0499999523162842 0.8100000023841858 -2.4600000381469727
v 1.649999976158142 0.7099999785423279 -2.4600000381469727
v 1.0499999523162842 0.7099999785423279 -2.4600000381469727
v 1.0499999523162842 0.8100000023841858 -2.4600000381469727
v 3.049999952316284 0.8100000023841858 -2.240000009536743
v 3.049999952316284 0.7099999785423279 -2.240000009536743
v 3.049999952316284 0.8100000023841858 -2.4600000381469727
v 3.049999952316284 0.7099999785423279 -2.240000009536743
v 3.049999952316284 0.7099999785423279 -2.4600000381469727
v 3.049999952316284 0.8100000023841858 -2.4600000381469727
v 2.450000047683716 0.8100000023841858 -2.4600000381469727
v 2.450000047683716 0.7099999785423279 -2.4600000381469727
v 2.450000047683716 0.8100000023841858 -2.240000009536743
v 2.450000047683716 0.7099999785423279 -2.4600000381469727
v 2.450000047683716 0.7099999785423279 -2.240000009536743
v 2.450000047683716 0.8100000023841858 -2.240000009536743
v 2.450000047683716 0.8100000023841858 -2.4600000381469727
v 2.450000047683716 0.8100000023841858 -2.240000009536743
v 3.049999952316284 0.8100000023841858 -2.4600000381469727
v 2.450000047683716 0.8100000023841858 -2.240000009536743
v 3.049999952316284 0.8100000023841858 -2.240000009536743
v 3.049999952316284 0.8100000023841858 -2.4600000381469727
v 2.450000047683716 0.7099999785423279 -2.240000009536743
v 2.450000047683716 0.7099999785423279 -2.4600000381469727
v 3.049999952316284 0.7099999785423279 -2.240000009536743
v 2.450000047683716 0.7099999785423279 -2.4600000381469727
v 3.049999952316284 0.7099999785423279 -2.4600000381469727
v 3.049999952316284 0.7099999785423279 -2.240000009536743
v 2.450000047683716 0.8100000023841858 -2.240000009536743
v 2.450000047683716 0.7099999785423279 -2.240000009536743
v 3.049999952316284 0.8100000023841858 -2.240000009536743
v 2.450000047683716 0.7099999785423279 -2.240000009536743
v 3.049999952316284 0.7099999785423279 -2.240000009536743
v 3.049999952316284 0.8100000023841858 -2.240000009536743
v 3.049999952316284 0.8100000023841858 -2.4600000381469727
v 3.049999952316284 0.7099999785423279 -2.4600000381469727
v 2.450000047683716 0.8100000023841858 -2.4600000381469727
v 3.049999952316284 0.7099999785423279 -2.4600000381469727
v 2.450000047683716 0.7099999785423279 -2.4600000381469727
v 2.450000047683716 0.8100000023841858 -2.4600000381469727
vt 0 1
vt 0 0
vt 1 1
vt 0 0
vt 1 0
vt 1 1
vt 0 1
vt 0 0
vt 1 1
vt 0 0
vt 1 0
vt 1 1
vt 0 1
vt 0 0
vt 1 1
vt 0 0
vt 1 0
vt 1 1
vt 0 1
vt 0 0
vt 1 1
vt 0 0
vt 1 0
vt 1 1
vt 0 1
vt 0 0
vt 1 1
vt 0 0
vt 1 0
vt 1 1
vt 0 1
vt 0 0
vt 1 1
vt 0 0
vt 1 0
vt 1 1
vt 0 1
vt 0 0
vt 1 1
vt 0 0
vt 1 0
vt 1 1
vt 0 1
vt 0 0
vt 1 1
vt 0 0
vt 1 0
vt 1 1
vt 0 1
vt 0 0
vt 1 1
vt 0 0
vt 1 0
vt 1 1
vt 0 1
vt 0 0
vt 1 1
vt 0 0
vt 1 0
vt 1 1
vt 0 1
vt 0 0
vt 1 1
vt 0 0
vt 1 0
vt 1 1
vt 0 1
vt 0 0
vt 1 1
vt 0 0
vt 1 0
vt 1 1
vt 0 1
vt 0 0
vt 1 1
vt 0 0
vt 1 0
vt 1 1
vt 0 1
vt 0 0
vt 1 1
vt 0 0
vt 1 0
vt 1 1
vt 0 1
vt 0 0
vt 1 1
vt 0 0
vt 1 0
vt 1 1
vt 0 1
vt 0 0
vt 1 1
vt 0 0
vt 1 0
vt 1 1
vt 0 1
vt 0 0
vt 1 1
vt 0 0
vt 1 0
vt 1 1
vt 0 1
vt 0 0
vt 1 1
vt 0 0
vt 1 0
vt 1 1
vt 0 1
vt 0 0
vt 1 1
vt 0 0
vt 1 0
vt 1 1
vt 0 1
vt 0 0
vt 1 1
vt 0 0
vt 1 0
vt 1 1
vt 0 1
vt 0 0
vt 1 1
vt 0 0
vt 1 0
vt 1 1
vt 0 1
vt 0 0
vt 1 1
vt 0 0
vt 1 0
vt 1 1
vt 0 1
vt 0 0
vt 1 1
vt 0 0
vt 1 0
vt 1 1
vt 0 1
vt 0 0
vt 1 1
vt 0 0
vt 1 0
vt 1 1
vn 1 0 0
vn 1 0 0
vn 1 0 0
vn 1 0 0
vn 1 0 0
vn 1 0 0
vn -1 0 0
vn -1 0 0
vn -1 0 0
vn -1 0 0
vn -1 0 0
vn -1 0 0
vn 0 1 0
vn 0 1 0
vn 0 1 0
vn 0 1 0
vn 0 1 0
vn 0 1 0
vn 0 -1 0
vn 0 -1 0
vn 0 -1 0
vn 0 -1 0
vn 0 -1 0
vn 0 -1 0
vn 0 0 1
vn 0 0 1
vn 0 0 1
vn 0 0 1
vn 0 0 1
vn 0 0 1
vn 0 0 -1
vn 0 0 -1
vn 0 0 -1
vn 0 0 -1
vn 0 0 -1
vn 0 0 -1
vn 1 0 0
vn 1 0 0
vn 1 0 0
vn 1 0 0
vn 1 0 0
vn 1 0 0
vn -1 0 0
vn -1 0 0
vn -1 0 0
vn -1 0 0
vn -1 0 0
vn -1 0 0
vn 0 1 0
vn 0 1 0
vn 0 1 0
vn 0 1 0
vn 0 1 0
vn 0 1 0
vn 0 -1 0
vn 0 -1 0
vn 0 -1 0
vn 0 -1 0
vn 0 -1 0
vn 0 -1 0
vn 0 0 1
vn 0 0 1
vn 0 0 1
vn 0 0 1
vn 0 0 1
vn 0 0 1
vn 0 0 -1
vn 0 0 -1
vn 0 0 -1
vn 0 0 -1
vn 0 0 -1
vn 0 0 -1
vn 1 0 0
vn 1 0 0
vn 1 0 0
vn 1 0 0
vn 1 0 0
vn 1 0 0
vn -1 0 0
vn -1 0 0
vn -1 0 0
vn -1 0 0
vn -1 0 0
vn -1 0 0
vn 0 1 0
vn 0 1 0
vn 0 1 0
vn 0 1 0
vn 0 1 0
vn 0 1 0
vn 0 -1 0
vn 0 -1 0
vn 0 -1 0
vn 0 -1 0
vn 0 -1 0
vn 0 -1 0
vn 0 0 1
vn 0 0 1
vn 0 0 1
vn 0 0 1
vn 0 0 1
vn 0 0 1
vn 0 0 -1
vn 0 0 -1
vn 0 0 -1
vn 0 0 -1
vn 0 0 -1
vn 0 0 -1
vn 1 0 0
vn 1 0 0
vn 1 0 0
vn 1 0 0
vn 1 0 0
vn 1 0 0
vn -1 0 0
vn -1 0 0
vn -1 0 0
vn -1 0 0
vn -1 0 0
vn -1 0 0
vn 0 1 0
vn 0 1 0
vn 0 1 0
vn 0 1 0
vn 0 1 0
vn 0 1 0
vn 0 -1 0
vn 0 -1 0
vn 0 -1 0
vn 0 -1 0
vn 0 -1 0
vn 0 -1 0
vn 0 0 1
vn 0 0 1
vn 0 0 1
vn 0 0 1
vn 0 0 1
vn 0 0 1
vn 0 0 -1
vn 0 0 -1
vn 0 0 -1
vn 0 0 -1
vn 0 0 -1
vn 0 0 -1
f 793/793/793 794/794/794 795/795/795
f 796/796/796 797/797/797 798/798/798
f 799/799/799 800/800/800 801/801/801
f 802/802/802 803/803/803 804/804/804
f 805/805/805 806/806/806 807/807/807
f 808/808/808 809/809/809 810/810/810
f 811/811/811 812/812/812 813/813/813
f 814/814/814 815/815/815 816/816/816
f 817/817/817 818/818/818 819/819/819
f 820/820/820 821/821/821 822/822/822
f 823/823/823 824/824/824 825/825/825
f 826/826/826 827/827/827 828/828/828
f 829/829/829 830/830/830 831/831/831
f 832/832/832 833/833/833 834/834/834
f 835/835/835 836/836/836 837/837/837
f 838/838/838 839/839/839 840/840/840
f 841/841/841 842/842/842 843/843/843
f 844/844/844 845/845/845 846/846/846
f 847/847/847 848/848/848 849/849/849
f 850/850/850 851/851/851 852/852/852
f 853/853/853 854/854/854 855/855/855
f 856/856/856 857/857/857 858/858/858
f 859/859/859 860/860/860 861/861/861
f 862/862/862 863/863/863 864/864/864
f 865/865/865 866/866/866 867/867/867
f 868/868/868 869/869/869 870/870/870
f 871/871/871 872/872/872 873/873/873
f 874/874/874 875/875/875 876/876/876
f 877/877/877 878/878/878 879/879/879
f 880/880/880 881/881/881 882/882/882
f 883/883/883 884/884/884 885/885/885
f 886/886/886 887/887/887 888/888/888
f 889/889/889 890/890/890 891/891/891
f 892/892/892 893/893/893 894/894/894
f 895/895/895 896/896/896 897/897/897
f 898/898/898 899/899/899 900/900/900
f 901/901/901 902/902/902 903/903/903
f 904/904/904 905/905/905 906/906/906
f 907/907/907 908/908/908 909/909/909
f 910/910/910 911/911/911 912/912/912
f 913/913/913 914/914/914 915/915/915
f 916/916/916 917/917/917 918/918/918
f 919/919/919 920/920/920 921/921/921
f 922/922/922 923/923/923 924/924/924
f 925/925/925 926/926/926 927/927/927
f 928/928/928 929/929/929 930/930/930
f 931/931/931 932/932/932 933/933/933
f 934/934/934 935/935/935 936/936/936
